<svg width="84" height="58" viewBox="0 0 84 58" fill="none" xmlns="http://www.w3.org/2000/svg">
<path fill-rule="evenodd" clip-rule="evenodd" d="M55.5981 29.1614H55.6334H55.7016H55.7698H55.838H55.9062H55.9744H56.0426H56.1108H56.1791H56.2473H56.3154H56.3837H56.4519H56.5201H56.5883H56.6565H56.7247H56.793H56.8611H56.9293H56.9976H57.0658H57.134H57.2022H57.2704H57.3386H57.4068H57.475H57.5432H57.6115H57.6797H57.7479H57.8161H57.8843H57.9525H58.0207H58.0889H58.1572H58.2253H58.2935H58.3618H58.43H58.4982H58.5664H58.6346H58.7028H58.771H58.8392H58.9074H58.9757H59.0439H59.1121H59.1803H59.2485H59.3167H59.3849H59.4531H59.5214H59.5896H59.6577H59.7145L59.726 29.1617C59.747 29.1622 59.77 29.1631 59.7942 29.1644C59.8161 29.1656 59.839 29.1671 59.8624 29.1689C59.8848 29.1705 59.9077 29.1724 59.9306 29.1745C59.9536 29.1766 59.9764 29.1789 59.9988 29.1813C60.0223 29.1839 60.0452 29.1867 60.067 29.1896C60.0914 29.1929 60.1144 29.1962 60.1353 29.1998C60.1502 29.2023 60.1641 29.2049 60.1765 29.2075L60.2034 29.2136C60.2263 29.2189 60.249 29.2246 60.2716 29.2308C60.2945 29.2371 60.3173 29.2437 60.3399 29.2509C60.3628 29.2582 60.3855 29.2659 60.4081 29.274C60.431 29.2822 60.4537 29.291 60.4763 29.3001C60.4992 29.3094 60.5219 29.3193 60.5445 29.3295C60.5675 29.3399 60.5902 29.3508 60.6127 29.3622C60.6357 29.3737 60.6584 29.3859 60.6809 29.3984C60.7039 29.4113 60.7267 29.4248 60.7491 29.4386C60.7722 29.4529 60.7949 29.4676 60.8173 29.4828C60.8404 29.4986 60.8632 29.5147 60.8855 29.5315C60.9086 29.5488 60.9314 29.5667 60.9538 29.5852C60.9769 29.6044 60.9997 29.6242 61.022 29.6446C61.0453 29.6658 61.068 29.6876 61.0902 29.71C61.1136 29.7337 61.1363 29.7581 61.1584 29.7831C61.1819 29.8096 61.2046 29.8369 61.2266 29.865C61.2503 29.8951 61.273 29.926 61.2948 29.9578C61.3187 29.9926 61.3415 30.0284 61.363 30.065C61.3873 30.1064 61.4101 30.1489 61.4312 30.1926C61.4563 30.2444 61.4792 30.2977 61.4995 30.3526C61.5268 30.4263 61.5496 30.5027 61.5677 30.5816C61.5989 30.7184 61.6157 30.8624 61.6157 31.0128C61.6157 31.1639 61.5989 31.3085 61.5677 31.4457C61.5496 31.5248 61.5268 31.6015 61.4995 31.6753C61.4791 31.7304 61.4563 31.7838 61.4312 31.8357C61.4101 31.8794 61.3873 31.922 61.363 31.9634C61.3415 32.0001 61.3188 32.0358 61.2948 32.0707C61.273 32.1024 61.2502 32.1334 61.2266 32.1636C61.2046 32.1916 61.1819 32.2188 61.1584 32.2454C61.1363 32.2704 61.1136 32.2948 61.0902 32.3184C61.068 32.3409 61.0452 32.3626 61.022 32.3838C60.9997 32.4041 60.9769 32.4238 60.9538 32.4429C60.9314 32.4613 60.9087 32.4792 60.8855 32.4965C60.8632 32.5132 60.8404 32.5293 60.8173 32.545C60.7949 32.5602 60.7722 32.5749 60.7491 32.589C60.7267 32.6028 60.7039 32.6162 60.6809 32.629C60.6584 32.6415 60.6357 32.6535 60.6127 32.665C60.5902 32.6763 60.5675 32.6872 60.5445 32.6976C60.5219 32.7077 60.4992 32.7174 60.4763 32.7266C60.4537 32.7357 60.431 32.7444 60.4081 32.7525C60.3855 32.7606 60.3628 32.7681 60.3399 32.7753C60.3173 32.7823 60.2945 32.7889 60.2716 32.7951C60.249 32.8012 60.2263 32.8068 60.2034 32.8121L60.1765 32.8181C60.1641 32.8209 60.1502 32.8236 60.1353 32.8263C60.1144 32.8299 60.0914 32.8334 60.067 32.8367C60.0452 32.8396 60.0223 32.8424 59.9988 32.845C59.9764 32.8475 59.9536 32.8497 59.9306 32.8518C59.9077 32.8538 59.8848 32.8557 59.8624 32.8573C59.839 32.8589 59.8161 32.8604 59.7942 32.8615C59.77 32.8628 59.747 32.8637 59.726 32.8642L59.6894 32.8646H59.6577H59.5896H59.5214H59.4531H59.3849H59.3167H59.2485H59.1803H59.1121H59.0439H58.9757H58.9074H58.8392H58.771H58.7028H58.6346H58.5664H58.4982H58.43H58.3618H58.2935H58.2253H58.1572H58.0889H58.0207H57.9525H57.8843H57.8161H57.7479H57.6797H57.6115H57.5432H57.475H57.4068H57.3386H57.2704H57.2022H57.134H57.0658H56.9976H56.9293H56.8611H56.793H56.7247H56.6565H56.5883H56.5201H56.4519H56.3837H56.3154H56.2473H56.1791H56.1108H56.0426H55.9744H55.9062H55.838H55.7698H55.7016H55.6334H55.5981V29.1614ZM61.0904 24.9702C61.1179 25.0945 61.1326 25.2261 61.1326 25.3648C61.1326 25.5032 61.1179 25.6347 61.0904 25.759C61.0728 25.8388 61.0499 25.9155 61.0222 25.989C61.0019 26.0427 60.9792 26.0946 60.954 26.1448C60.9329 26.1868 60.9101 26.2277 60.8858 26.2671C60.8643 26.3021 60.8414 26.336 60.8176 26.3689C60.7957 26.3989 60.773 26.428 60.7494 26.4562C60.7274 26.4825 60.7047 26.508 60.6812 26.5328C60.6591 26.556 60.6363 26.5785 60.613 26.6004C60.5908 26.6211 60.568 26.6413 60.5447 26.6608C60.5225 26.6794 60.4997 26.6974 60.4765 26.7149C60.4542 26.7318 60.4315 26.748 60.4084 26.7637C60.386 26.7789 60.3632 26.7935 60.3401 26.8076C60.3177 26.8213 60.2949 26.8345 60.2719 26.8471C60.2495 26.8595 60.2267 26.8714 60.2037 26.8827C60.1812 26.8938 60.1584 26.9044 60.1355 26.9146C60.113 26.9245 60.0902 26.934 60.0673 26.943C60.0447 26.9518 60.022 26.9601 59.9991 26.9681C59.9765 26.9759 59.9538 26.9832 59.9309 26.9901C59.9083 26.9969 59.8856 27.0033 59.8627 27.0092C59.8401 27.015 59.8174 27.0204 59.7945 27.0253C59.7719 27.0303 59.7491 27.0346 59.7263 27.0387L59.7097 27.0417C59.6964 27.044 59.6788 27.0466 59.658 27.0491C59.6379 27.0517 59.6148 27.0543 59.5898 27.0568C59.5682 27.059 59.5453 27.0611 59.5217 27.0631C59.4993 27.0649 59.4764 27.0665 59.4534 27.068C59.4305 27.0695 59.4075 27.0707 59.3852 27.0716C59.3616 27.0726 59.3386 27.0732 59.317 27.0733L59.3062 27.0733H59.2488H59.1806H59.1124H59.0442H58.976H58.9078H58.8396H58.7714H58.7031H58.6349H58.5668H58.4985H58.4303H58.3621H58.2939H58.2257H58.1575H58.0893H58.0211H57.9529H57.8847H57.8164H57.7482H57.6801H57.6118H57.5436H57.4754H57.4072H57.339H57.2708H57.2026H57.1344H57.0662H56.998H56.9298H56.8615H56.7933H56.7252H56.6569H56.5887H56.5205H56.4523H56.3841H56.3159H56.2477H56.1795H56.1113H56.0431H55.9748H55.9066H55.8385H55.7702H55.702H55.6338H55.5981V23.656H55.6338H55.702H55.7702H55.8385H55.9066H55.9748H56.0431H56.1113H56.1795H56.2477H56.3159H56.3841H56.4523H56.5205H56.5887H56.6569H56.7252H56.7933H56.8615H56.9298H56.998H57.0662H57.1344H57.2026H57.2708H57.339H57.4072H57.4754H57.5436H57.6118H57.6801H57.7482H57.8164H57.8847H57.9529H58.0211H58.0893H58.1575H58.2257H58.2939H58.3621H58.4303H58.4985H58.5668H58.6349H58.7031H58.7714H58.8396H58.9078H58.976H59.0442H59.1124H59.1806H59.2488H59.317H59.3457L59.3852 23.6573C59.4075 23.6582 59.4305 23.6595 59.4534 23.661C59.4764 23.6625 59.4993 23.6642 59.5217 23.666C59.5453 23.6679 59.5682 23.67 59.5898 23.6721C59.6148 23.6745 59.6379 23.6769 59.658 23.6792C59.6788 23.6816 59.6964 23.6838 59.7097 23.6857L59.7263 23.6886C59.7491 23.6927 59.7719 23.6973 59.7945 23.7023C59.8174 23.7073 59.8401 23.7127 59.8627 23.7186C59.8856 23.7246 59.9083 23.731 59.9309 23.7378C59.9538 23.7448 59.9765 23.7522 59.9991 23.76C60.022 23.768 60.0447 23.7764 60.0673 23.7853C60.0902 23.7943 60.113 23.8039 60.1355 23.8138C60.1584 23.824 60.1812 23.8346 60.2037 23.8458C60.2267 23.8572 60.2495 23.869 60.2719 23.8814C60.2949 23.894 60.3177 23.9073 60.3401 23.921C60.3632 23.9351 60.386 23.9497 60.4084 23.9649C60.4315 23.9806 60.4542 23.997 60.4765 24.0138C60.4997 24.0313 60.5225 24.0493 60.5447 24.068C60.568 24.0875 60.5908 24.1077 60.613 24.1284C60.6363 24.1503 60.6591 24.1728 60.6812 24.196C60.7047 24.2207 60.7274 24.2463 60.7494 24.2726C60.773 24.3008 60.7957 24.33 60.8176 24.36C60.8414 24.3929 60.8643 24.4267 60.8858 24.4617C60.9101 24.5012 60.9329 24.542 60.954 24.5841C60.9792 24.6342 61.0019 24.6863 61.0222 24.7399C61.0499 24.8135 61.0728 24.8903 61.0904 24.9702ZM69.5494 7.25H69.5774L69.5773 42.347C69.5773 42.5566 69.5675 42.7641 69.5494 42.9691C69.5334 43.1495 69.5106 43.328 69.4811 43.5042C69.4613 43.6227 69.4386 43.74 69.4129 43.8564C69.3921 43.951 69.3694 44.045 69.3447 44.1381C69.3234 44.2186 69.3006 44.2983 69.2765 44.3776C69.2547 44.4492 69.2322 44.5205 69.2083 44.5912C69.1865 44.6553 69.1636 44.7189 69.1401 44.7822C69.1181 44.8411 69.0953 44.8996 69.0718 44.9578C69.0498 45.0124 69.027 45.0666 69.0036 45.1206C68.9815 45.1717 68.9587 45.2225 68.9354 45.273C68.9132 45.3211 68.8904 45.3689 68.8672 45.4164C68.8449 45.4618 68.8222 45.5072 68.7989 45.5521C68.7767 45.5952 68.7539 45.6381 68.7308 45.6806C68.7085 45.7215 68.6856 45.762 68.6625 45.8024C68.6402 45.8416 68.6174 45.8804 68.5943 45.919C68.5719 45.9567 68.5491 45.9941 68.5261 46.0312C68.5036 46.0674 68.481 46.1035 68.4578 46.1393C68.4354 46.1739 68.4125 46.2082 68.3896 46.2423C68.3672 46.2756 68.3443 46.3085 68.3214 46.3414C68.2989 46.3737 68.2762 46.4059 68.2531 46.4378C68.2306 46.4689 68.208 46.4999 68.1849 46.5307C68.1625 46.5607 68.1396 46.5902 68.1167 46.6198C68.0941 46.649 68.0715 46.6781 68.0485 46.7068C68.026 46.7351 68.0033 46.7631 67.9803 46.7909C67.9578 46.8182 67.9349 46.8452 67.9121 46.8721C67.8894 46.8987 67.8669 46.9254 67.8438 46.9517C67.8213 46.9774 67.7985 47.0027 67.7756 47.028C67.7531 47.0531 67.7303 47.0779 67.7074 47.1026C67.6848 47.127 67.6622 47.1513 67.6392 47.1754C67.6167 47.199 67.5938 47.2221 67.571 47.2454C67.5483 47.2686 67.5257 47.2918 67.5027 47.3146C67.4802 47.3369 67.4573 47.3588 67.4345 47.3808C67.4118 47.4026 67.3892 47.4245 67.3663 47.4461C67.3437 47.4673 67.3209 47.4882 67.2981 47.5091C67.2755 47.5298 67.2527 47.5504 67.2298 47.5708C67.2072 47.591 67.1845 47.611 67.1616 47.6309C67.139 47.6505 67.1162 47.67 67.0934 47.6893C67.0707 47.7085 67.0481 47.7277 67.0252 47.7466C67.0026 47.7653 66.9798 47.7836 66.957 47.802C66.9343 47.8202 66.9117 47.8385 66.8888 47.8565C66.8662 47.8743 66.8433 47.8916 66.8205 47.9091C66.7978 47.9264 66.7752 47.9438 66.7523 47.961C66.7298 47.9778 66.7069 47.9943 66.6841 48.0109C66.6613 48.0274 66.6387 48.0441 66.6158 48.0604C66.5933 48.0765 66.5704 48.0921 66.5476 48.1079C66.5249 48.1236 66.5023 48.1394 66.4794 48.1549C66.4568 48.1701 66.434 48.185 66.4112 48.2001C66.3885 48.215 66.3659 48.23 66.343 48.2447C66.3203 48.2592 66.2976 48.2735 66.2748 48.2878C66.2521 48.302 66.2294 48.3162 66.2065 48.3301C66.1839 48.3439 66.1612 48.3576 66.1383 48.3712L66.0701 48.4112C66.0474 48.4244 66.0247 48.4375 66.0019 48.4504C65.9793 48.4632 65.9564 48.4758 65.9336 48.4883C65.9109 48.5009 65.8883 48.5135 65.8655 48.5257C65.8428 48.5379 65.82 48.5496 65.7972 48.5615C65.7744 48.5734 65.7519 48.5856 65.729 48.5973C65.7064 48.6088 65.6835 48.6197 65.6608 48.631C65.638 48.6423 65.6154 48.6537 65.5925 48.6647C65.5699 48.6756 65.5471 48.6862 65.5243 48.6969L65.4561 48.7286L65.3879 48.7593C65.3652 48.7693 65.3424 48.7791 65.3196 48.7889C65.2969 48.7987 65.2743 48.8088 65.2515 48.8183C65.2288 48.8278 65.206 48.8367 65.1832 48.846C65.1605 48.8552 65.1379 48.8647 65.115 48.8737C65.0923 48.8826 65.0696 48.8911 65.0468 48.8998C65.0241 48.9084 65.0014 48.9171 64.9786 48.9255L64.9103 48.9505C64.8877 48.9586 64.8648 48.9665 64.8421 48.9744C64.8194 48.9823 64.7968 48.9905 64.7739 48.9982C64.7513 49.0057 64.7284 49.0128 64.7056 49.0202L64.6375 49.0421C64.6148 49.0493 64.592 49.0561 64.5692 49.063L64.501 49.0832C64.4783 49.0898 64.4556 49.0966 64.4328 49.103C64.4102 49.1093 64.3873 49.1152 64.3646 49.1214C64.3418 49.1275 64.3192 49.1338 64.2963 49.1397L64.2281 49.1567L64.1599 49.1733L64.0917 49.1894C64.069 49.1946 64.0462 49.1993 64.0235 49.2042C64.0007 49.2091 63.9781 49.2142 63.9552 49.219L63.887 49.2325L63.8188 49.2455C63.796 49.2497 63.7734 49.2542 63.7506 49.2582C63.7279 49.2622 63.7051 49.2657 63.6823 49.2694L63.6141 49.2807L63.5459 49.2908L63.4777 49.3003C63.4549 49.3034 63.4323 49.3069 63.4095 49.3098C63.3868 49.3127 63.3639 49.3149 63.3413 49.3176C63.3185 49.3202 63.2958 49.3229 63.273 49.3253C63.2503 49.3277 63.2276 49.3302 63.2048 49.3324C63.1822 49.3346 63.1593 49.3364 63.1366 49.3384C63.1138 49.3404 63.0911 49.3426 63.0683 49.3444C63.0457 49.3461 63.0229 49.3476 63.0001 49.3491L62.9319 49.3534C62.9092 49.3547 62.8865 49.3564 62.8637 49.3575C62.841 49.3586 62.8182 49.3592 62.7955 49.3601L62.7273 49.3627L62.659 49.3644C62.6363 49.3649 62.6136 49.365 62.5908 49.3653L62.5226 49.3661L62.5085 49.3663H62.4544H62.3861H62.318H62.2497H62.1815H62.1133H62.045H61.9768H61.9086H61.8404H61.7721H61.704H61.6357H61.5675H61.4993H61.431H61.3628H61.2946H61.2264H61.1581H61.09H61.0217H60.9535H60.8853H60.8171H60.7488H60.6806H60.6124H60.5441H60.476H60.4077H60.3395H60.2713H60.2031H60.1348H60.0666H59.9984H59.9302H59.862H59.7938H59.7255H59.6573H59.5891H59.5208H59.4526H59.3844H59.3162H59.248H59.1798H59.1115H59.0433H58.9751H58.9069H58.8386H58.7704H58.7022H58.634H58.5658H58.4975H58.4293H58.3611H58.2929H58.2247H58.1565H58.0882H58.02H57.9518H57.8835H57.8153H57.7471H57.6789H57.6107H57.5425H57.4742H57.406H57.3378H57.2696H57.2013H57.1331H57.0649H56.9967H56.9285H56.8602H56.792H56.7238H56.6556H56.5873H56.5191H56.4509H56.3827H56.3145H56.2463H56.178H56.1098H56.0416H55.9733H55.9052H55.8369H55.7687H55.7005H55.6323H55.564H55.4958H55.4276H55.3594H55.2912H55.2229H55.1547H55.0865H55.0183H54.95H54.8818H54.8136H54.7454H54.6772H54.609H54.5407H54.4725H54.4043H54.336H54.2678H54.1996H54.1314H54.0632H53.995H53.9267H53.8585H53.7903H53.7221H53.6538H53.5857H53.5174H53.4492H53.381H53.3127H53.2445H53.1763H53.1081H53.0398H52.9717H52.9034H52.8352H52.767H52.6988H52.6305H52.5623H52.4941H52.4258H52.3577H52.2894H52.1422V35.0561H52.2894H52.3577H52.4258H52.4941H52.5623H52.6305H52.6988H52.767H52.8352H52.9034H52.9717H53.0398H53.1081H53.1763H53.2445H53.3127H53.381H53.4492H53.5174H53.5857H53.6538H53.7221H53.7903H53.8585H53.9267H53.995H54.0632H54.1314H54.1996H54.2678H54.336H54.4043H54.4725H54.5407H54.609H54.6772H54.7454H54.8136H54.8818H54.95H55.0183H55.0865H55.1547H55.2229H55.2912H55.3594H55.4276H55.4958H55.564H55.6323H55.7005H55.7687H55.8369H55.9052H55.9733H56.0416H56.1098H56.178H56.2463H56.3145H56.3827H56.4509H56.5191H56.5873H56.6556H56.7238H56.792H56.8602H56.9285H56.9967H57.0649H57.1331H57.2013H57.2696H57.3378H57.406H57.4742H57.5425H57.6107H57.6789H57.7471H57.8153H57.8835H57.9518H58.02H58.0882H58.1565H58.2247H58.2929H58.3611H58.4293H58.4975H58.5658H58.634H58.7022H58.7704H58.8386H58.9069H58.9751H59.0433H59.1115H59.1798H59.248H59.3162H59.3844H59.4526H59.5208H59.5891H59.6573H59.7255H59.7938H59.862H59.9302H59.9984H60.0666H60.1348H60.2031H60.2713H60.3395H60.4077H60.476H60.5441H60.6124H60.6806H60.7488H60.8171H60.8853H60.9535H61.0217H61.09H61.1581H61.2264H61.2946H61.3628H61.431H61.4993H61.5675H61.6357H61.704H61.7721H61.8404H61.9086H61.9768H62.045H62.1133H62.1815H62.2497H62.318H62.3861H62.4544H62.5226H62.5908H62.659H62.7273H62.7955H62.8637H62.9319H63.0001H63.0683H63.1045L63.1366 35.0558L63.2048 35.0552L63.273 35.0538C63.2958 35.0532 63.3186 35.0529 63.3413 35.0521C63.3641 35.0513 63.3867 35.0503 63.4095 35.0493L63.4777 35.0461L63.5459 35.042L63.6141 35.0374L63.6823 35.0321L63.7506 35.0258C63.7733 35.0237 63.7962 35.0216 63.8188 35.0193C63.8416 35.0169 63.8643 35.0142 63.887 35.0116L63.9552 35.0033C63.9781 35.0004 64.0008 34.9976 64.0235 34.9945C64.0463 34.9913 64.069 34.9878 64.0917 34.9845C64.1145 34.981 64.1373 34.9777 64.1599 34.974L64.2281 34.9626L64.2963 34.9504C64.3191 34.9462 64.342 34.9421 64.3646 34.9377C64.3874 34.9332 64.4101 34.9284 64.4328 34.9236L64.501 34.909C64.5238 34.9039 64.5466 34.8989 64.5692 34.8936C64.5921 34.8883 64.6148 34.8826 64.6375 34.877C64.6602 34.8714 64.683 34.8656 64.7056 34.8597C64.7284 34.8538 64.7513 34.8478 64.7739 34.8415C64.7967 34.8353 64.8194 34.8288 64.8421 34.8222C64.8649 34.8157 64.8877 34.809 64.9103 34.8021L64.9786 34.7809C65.0015 34.7737 65.0241 34.7661 65.0468 34.7586C65.0696 34.7509 65.0924 34.7433 65.115 34.7354C65.1379 34.7274 65.1606 34.7194 65.1832 34.7112C65.2062 34.7028 65.2288 34.694 65.2515 34.6854C65.2743 34.6766 65.297 34.6678 65.3196 34.6587C65.3425 34.6496 65.3653 34.6405 65.3879 34.631C65.4108 34.6215 65.4335 34.6117 65.4561 34.6018C65.479 34.5918 65.5017 34.5816 65.5243 34.5713C65.5472 34.5608 65.57 34.5503 65.5925 34.5396C65.6154 34.5288 65.6382 34.5178 65.6608 34.5067C65.6837 34.4953 65.7063 34.4837 65.729 34.4719C65.7519 34.4601 65.7746 34.4479 65.7972 34.4357C65.8202 34.4233 65.8429 34.4107 65.8655 34.398C65.8884 34.3851 65.9111 34.372 65.9336 34.3587C65.9565 34.3452 65.9794 34.3316 66.0019 34.3177C66.0248 34.3035 66.0475 34.2892 66.0701 34.2746C66.0931 34.2598 66.1158 34.2447 66.1383 34.2295C66.1613 34.2141 66.184 34.1984 66.2065 34.1825C66.2295 34.1662 66.2523 34.1499 66.2748 34.1332C66.2978 34.1163 66.3205 34.0991 66.343 34.0817C66.366 34.0638 66.3888 34.0459 66.4112 34.0276C66.4342 34.0089 66.4569 33.99 66.4794 33.9708C66.5025 33.9512 66.5252 33.9312 66.5476 33.911C66.5707 33.8903 66.5934 33.8693 66.6158 33.848C66.639 33.8261 66.6617 33.8039 66.6841 33.7815C66.7073 33.7582 66.7299 33.7348 66.7523 33.711C66.7755 33.6864 66.7982 33.6614 66.8205 33.6362C66.8437 33.6099 66.8665 33.5834 66.8888 33.5565C66.912 33.5285 66.9347 33.5001 66.957 33.4714C66.9802 33.4413 67.0031 33.411 67.0252 33.3802C67.0487 33.3475 67.0712 33.3142 67.0934 33.2806C67.1169 33.245 67.1396 33.2089 67.1616 33.1724C67.1853 33.1332 67.208 33.0934 67.2298 33.0531C67.2536 33.0092 67.2765 32.9648 67.2981 32.9198C67.3222 32.8694 67.3449 32.8182 67.3663 32.7663C67.3908 32.7068 67.4137 32.6465 67.4345 32.585C67.4602 32.5093 67.4828 32.4321 67.5027 32.3536C67.5318 32.2387 67.5547 32.1209 67.571 32.0001C67.5907 31.8536 67.6011 31.7031 67.6011 31.5484C67.6011 31.3977 67.5909 31.2514 67.571 31.1093C67.5546 30.9925 67.5318 30.8787 67.5027 30.7679C67.4829 30.6924 67.4601 30.6183 67.4345 30.5456C67.4136 30.4861 67.3909 30.4273 67.3663 30.3697C67.345 30.3198 67.3222 30.2706 67.2981 30.2222C67.2764 30.1786 67.2536 30.1357 67.2298 30.0933C67.2079 30.0544 67.1853 30.0158 67.1616 29.9779C67.1397 29.9427 67.1169 29.908 67.0934 29.8738C67.0713 29.8414 67.0486 29.8093 67.0252 29.7778C67.0031 29.748 66.9802 29.7188 66.957 29.6898C66.9347 29.6621 66.912 29.6347 66.8888 29.6077C66.8664 29.5817 66.8438 29.556 66.8205 29.5307C66.7982 29.5063 66.7755 29.4822 66.7523 29.4585C66.73 29.4355 66.7072 29.413 66.6841 29.3906C66.6617 29.3689 66.6389 29.3476 66.6158 29.3264C66.5934 29.3059 66.5707 29.2857 66.5476 29.2657C66.5252 29.2463 66.5025 29.227 66.4794 29.208C66.4569 29.1895 66.4342 29.1712 66.4112 29.1531C66.3887 29.1355 66.366 29.118 66.343 29.1008C66.3205 29.084 66.2977 29.0674 66.2748 29.051C66.2523 29.0349 66.2295 29.019 66.2065 29.0033C66.184 28.988 66.1613 28.9728 66.1383 28.9578C66.1158 28.9431 66.093 28.9285 66.0701 28.9142C66.0475 28.9002 66.0248 28.8863 66.0019 28.8726C65.9794 28.8591 65.9566 28.8459 65.9336 28.8328C65.9111 28.8199 65.8884 28.8072 65.8655 28.7947C65.8429 28.7824 65.8202 28.7702 65.7972 28.7583C65.7746 28.7464 65.7519 28.7348 65.729 28.7232C65.7064 28.7118 65.6837 28.7006 65.6608 28.6895C65.6381 28.6786 65.6155 28.6678 65.5925 28.6571C65.57 28.6467 65.5472 28.6365 65.5243 28.6264C65.5018 28.6164 65.479 28.6066 65.4561 28.5969C65.4335 28.5873 65.4107 28.5779 65.3879 28.5685C65.3652 28.5593 65.3426 28.5501 65.3196 28.5412C65.297 28.5324 65.2743 28.5237 65.2515 28.5151C65.2288 28.5067 65.206 28.4986 65.1832 28.4904C65.1606 28.4823 65.1379 28.4744 65.115 28.4666C65.0923 28.4588 65.0697 28.4511 65.0468 28.4436C65.0241 28.4362 65.0014 28.4289 64.9786 28.4218C64.956 28.4147 64.9331 28.4079 64.9103 28.4011L64.8421 28.3812C64.8194 28.3748 64.7967 28.3683 64.7739 28.3621C64.7513 28.356 64.7284 28.3501 64.7056 28.3443C64.683 28.3384 64.6603 28.3328 64.6375 28.3272C64.6148 28.3216 64.5921 28.3161 64.5692 28.3108C64.5466 28.3056 64.5238 28.3005 64.501 28.2955C64.4784 28.2905 64.4556 28.2857 64.4328 28.281C64.4101 28.2763 64.3874 28.2715 64.3646 28.2671L64.2963 28.2541L64.2281 28.2421C64.2055 28.2381 64.1827 28.2342 64.1599 28.2305L64.0917 28.2199C64.069 28.2165 64.0462 28.2133 64.0235 28.2101L63.9552 28.2008L63.887 28.1923L63.8188 28.1847L63.7506 28.1775L63.6823 28.1713L63.6141 28.1656L63.5512 28.1608L63.5511 28.0796L63.6141 28.0698L63.6823 28.0587C63.7052 28.0548 63.728 28.0509 63.7506 28.0468L63.8188 28.0338C63.8417 28.0293 63.8644 28.0246 63.887 28.0199L63.9552 28.0051C63.9781 28 64.0009 27.9948 64.0235 27.9894C64.0464 27.9839 64.069 27.9782 64.0917 27.9725C64.1146 27.9667 64.1373 27.9606 64.1599 27.9546C64.1827 27.9484 64.2055 27.9421 64.2281 27.9356C64.251 27.9291 64.2738 27.9225 64.2963 27.9158C64.3192 27.9089 64.342 27.9018 64.3646 27.8946C64.3875 27.8873 64.4102 27.8798 64.4328 27.8722C64.4557 27.8645 64.4784 27.8566 64.501 27.8486C64.5239 27.8406 64.5466 27.8324 64.5692 27.8239C64.5921 27.8154 64.6149 27.8068 64.6375 27.7979C64.6604 27.789 64.6831 27.7799 64.7056 27.7706C64.7286 27.7612 64.7513 27.7516 64.7739 27.7418C64.7968 27.7319 64.8195 27.7218 64.8421 27.7115C64.865 27.7011 64.8878 27.6905 64.9103 27.6797C64.9333 27.6687 64.956 27.6576 64.9786 27.6463C65.0015 27.6348 65.0243 27.6231 65.0468 27.6112C65.0697 27.5992 65.0925 27.5869 65.115 27.5745C65.138 27.5618 65.1607 27.5489 65.1832 27.5359C65.2062 27.5226 65.2289 27.509 65.2515 27.4953C65.2745 27.4813 65.2971 27.4672 65.3196 27.4528C65.3427 27.4382 65.3654 27.4232 65.3879 27.4081C65.4109 27.3926 65.4336 27.377 65.4561 27.3611C65.4791 27.3448 65.5019 27.3283 65.5243 27.3117C65.5474 27.2945 65.5701 27.2772 65.5925 27.2597C65.6156 27.2416 65.6384 27.2234 65.6608 27.2049C65.6838 27.1858 65.7066 27.1664 65.729 27.1468C65.7521 27.1266 65.7748 27.1061 65.7972 27.0854C65.8203 27.064 65.8431 27.0423 65.8655 27.0204C65.8886 26.9977 65.9114 26.9748 65.9336 26.9516C65.9569 26.9273 65.9796 26.9029 66.0019 26.878C66.0251 26.8522 66.0479 26.826 66.0701 26.7995C66.0934 26.7719 66.1162 26.7438 66.1383 26.7154C66.1617 26.6855 66.1844 26.6552 66.2065 26.6245C66.23 26.592 66.2527 26.5591 66.2748 26.5258C66.2983 26.4904 66.3211 26.4545 66.343 26.4182C66.3666 26.3788 66.3894 26.339 66.4112 26.2988C66.4351 26.2545 66.4578 26.2096 66.4794 26.1643C66.5036 26.1133 66.5264 26.0616 66.5476 26.0094C66.5724 25.9485 66.5951 25.8868 66.6158 25.8243C66.6418 25.7458 66.6646 25.6659 66.6841 25.585C66.7156 25.4539 66.7383 25.3199 66.7523 25.1837C66.7634 25.0762 66.7692 24.9673 66.7692 24.8573C66.7692 24.7411 66.7634 24.6279 66.7523 24.5174C66.7382 24.3762 66.7153 24.2399 66.6841 24.1083C66.6646 24.0261 66.6418 23.9457 66.6158 23.8673C66.5951 23.8046 66.5723 23.7431 66.5476 23.6828C66.5263 23.6309 66.5036 23.5798 66.4794 23.5297C66.4578 23.485 66.435 23.4411 66.4112 23.3978C66.3894 23.3582 66.3666 23.3193 66.343 23.2808C66.321 23.2452 66.2983 23.21 66.2748 23.1755C66.2527 23.143 66.2299 23.1112 66.2065 23.0797C66.1844 23.0499 66.1617 23.0206 66.1383 22.9917C66.116 22.964 66.0934 22.9367 66.0701 22.9098C66.0479 22.8842 66.0251 22.8591 66.0019 22.8343C65.9796 22.8103 65.9568 22.7868 65.9336 22.7635C65.9113 22.741 65.8886 22.7189 65.8655 22.697C65.8431 22.6759 65.8203 22.6549 65.7972 22.6344C65.7748 22.6144 65.752 22.5947 65.729 22.5753C65.7065 22.5564 65.6838 22.5378 65.6608 22.5194C65.6383 22.5016 65.6156 22.4839 65.5925 22.4665C65.5701 22.4496 65.5473 22.4329 65.5243 22.4164C65.5018 22.4003 65.4791 22.3845 65.4561 22.3688C65.4336 22.3535 65.4109 22.3385 65.3879 22.3236C65.3654 22.309 65.3426 22.2946 65.3196 22.2805C65.2971 22.2666 65.2744 22.253 65.2515 22.2395C65.2289 22.2262 65.2062 22.2132 65.1832 22.2003C65.1607 22.1877 65.138 22.1752 65.115 22.163C65.0925 22.1509 65.0697 22.1391 65.0468 22.1274C65.0242 22.1159 65.0015 22.1045 64.9786 22.0934C64.956 22.0824 64.9333 22.0714 64.9103 22.0608C64.8878 22.0503 64.865 22.0399 64.8421 22.0298C64.8195 22.0198 64.7968 22.0102 64.7739 22.0004C64.7513 21.9909 64.7285 21.9815 64.7056 21.9722C64.6831 21.9632 64.6603 21.9542 64.6375 21.9454C64.6148 21.9366 64.5921 21.928 64.5692 21.9196C64.5466 21.9113 64.5239 21.9031 64.501 21.8951C64.4784 21.8872 64.4557 21.8795 64.4328 21.8718C64.4102 21.8643 64.3874 21.857 64.3646 21.8497C64.342 21.8425 64.3192 21.8355 64.2963 21.8286C64.2737 21.8217 64.251 21.8149 64.2281 21.8083C64.2055 21.8018 64.1827 21.7956 64.1599 21.7894C64.1373 21.7832 64.1145 21.7773 64.0917 21.7714L64.0235 21.7542C64.0008 21.7486 63.9781 21.7431 63.9552 21.7379C63.9326 21.7326 63.9099 21.7276 63.887 21.7226L63.8188 21.7082C63.7961 21.7036 63.7735 21.6988 63.7506 21.6945C63.728 21.6901 63.7051 21.686 63.6823 21.6819L63.6141 21.67C63.5915 21.6662 63.5688 21.6623 63.5459 21.6587L63.4777 21.6484L63.4095 21.6389L63.3413 21.6299L63.273 21.6219L63.2048 21.6146L63.1366 21.6078L63.0683 21.6018L63.0001 21.5966L62.9319 21.5918L62.8637 21.5879L62.8366 21.5864L62.7955 21.5838L62.7273 21.5798L62.659 21.5761L62.5908 21.5725L62.5226 21.5693L62.4544 21.5664L62.3861 21.5639L62.318 21.5618L62.2497 21.5603L62.1815 21.5594L62.1439 21.5593H62.1133H62.045H61.9768H61.9086H61.8404H61.7721H61.704H61.6357H61.5675H61.4993H61.431H61.3628H61.2946H61.2264H61.1581H61.09H61.0217H60.9535H60.8853H60.8171H60.7488H60.6806H60.6124H60.5441H60.476H60.4077H60.3395H60.2713H60.2031H60.1348H60.0666H59.9984H59.9302H59.862H59.7938H59.7255H59.6573H59.5891H59.5208H59.4526H59.3844H59.3162H59.248H59.1798H59.1115H59.0433H58.9751H58.9069H58.8386H58.7704H58.7022H58.634H58.5658H58.4975H58.4293H58.3611H58.2929H58.2247H58.1565H58.0882H58.02H57.9518H57.8835H57.8153H57.7471H57.6789H57.6107H57.5425H57.4742H57.406H57.3378H57.2696H57.2013H57.1331H57.0649H56.9967H56.9285H56.8602H56.792H56.7238H56.6556H56.5873H56.5191H56.4509H56.3827H56.3145H56.2463H56.178H56.1098H56.0416H55.9733H55.9052H55.8369H55.7687H55.7005H55.6323H55.564H55.4958H55.4276H55.3594H55.2912H55.2229H55.1547H55.0865H55.0183H54.95H54.8818H54.8136H54.7454H54.6772H54.609H54.5407H54.4725H54.4043H54.336H54.2678H54.1996H54.1314H54.0632H53.995H53.9267H53.8585H53.7903H53.7221H53.6538H53.5857H53.5174H53.4492H53.381H53.3127H53.2445H53.1763H53.1081H53.0398H52.9717H52.9034H52.8352H52.767H52.6988H52.6305H52.5623H52.4941H52.4258H52.3577H52.2894H52.1422V14.27C52.1422 13.7796 52.1931 13.301 52.2894 12.839C52.3101 12.7401 52.3329 12.642 52.3577 12.5447C52.3789 12.4614 52.4017 12.3787 52.4258 12.2967C52.4474 12.2234 52.4702 12.1506 52.4941 12.0784C52.5159 12.0123 52.5385 11.9466 52.5623 11.8815C52.5843 11.8211 52.6069 11.761 52.6305 11.7013C52.6526 11.6456 52.6753 11.5902 52.6988 11.5352C52.7209 11.4834 52.7436 11.4317 52.767 11.3804C52.7891 11.3317 52.812 11.2834 52.8352 11.2353C52.8574 11.1894 52.8802 11.1439 52.9034 11.0986C52.9257 11.055 52.9485 11.0118 52.9717 10.9687C52.9939 10.9272 53.0167 10.886 53.0398 10.845C53.0622 10.8052 53.085 10.7658 53.1081 10.7266C53.1305 10.6885 53.1532 10.6506 53.1763 10.613C53.1987 10.5766 53.2215 10.5404 53.2445 10.5044C53.2669 10.4696 53.2898 10.435 53.3127 10.4006C53.3352 10.3669 53.3579 10.3333 53.381 10.3C53.4035 10.2674 53.426 10.2348 53.4492 10.2025C53.4716 10.1713 53.4945 10.1405 53.5174 10.1097C53.5399 10.0793 53.5627 10.0492 53.5857 10.0193C53.6083 9.98984 53.6308 9.96025 53.6538 9.93116C53.6763 9.90286 53.6992 9.875 53.7221 9.84704C53.7446 9.81947 53.7673 9.79212 53.7903 9.76494C53.8129 9.7381 53.8355 9.71126 53.8585 9.68476C53.881 9.65893 53.9039 9.63354 53.9267 9.60805C53.9494 9.58278 53.972 9.55746 53.995 9.53252C54.0175 9.5081 54.0403 9.4839 54.0632 9.45975C54.0857 9.43594 54.1085 9.4123 54.1314 9.38877C54.154 9.36558 54.1766 9.34239 54.1996 9.31948C54.2222 9.29696 54.245 9.27478 54.2678 9.2526C54.2905 9.23053 54.313 9.20824 54.336 9.18651C54.3585 9.16523 54.3815 9.14445 54.4043 9.12345C54.427 9.10256 54.4496 9.08161 54.4725 9.061C54.4951 9.04073 54.5179 9.02085 54.5407 9.00092C54.5634 8.9811 54.5861 8.96128 54.609 8.94173C54.6316 8.92247 54.6543 8.90349 54.6772 8.88451C54.6998 8.8657 54.7225 8.84695 54.7454 8.82842C54.768 8.81005 54.7907 8.79192 54.8136 8.77389L54.8818 8.7206L54.95 8.66872C54.9727 8.6517 54.9954 8.6348 55.0183 8.61807C55.0409 8.6015 55.0636 8.58499 55.0865 8.56865L55.1547 8.52053C55.1773 8.50475 55.2001 8.48908 55.2229 8.47358L55.2912 8.42771L55.3594 8.38306C55.3821 8.36841 55.4047 8.35381 55.4276 8.33943L55.4958 8.29709C55.5186 8.28311 55.5412 8.26913 55.564 8.25543C55.5866 8.24184 55.6095 8.22864 55.6323 8.21533C55.655 8.20203 55.6776 8.1886 55.7005 8.17558C55.723 8.16272 55.746 8.15031 55.7687 8.13767C55.7914 8.12504 55.814 8.11218 55.8369 8.09983C55.8595 8.08764 55.8824 8.07585 55.9052 8.06389C55.9279 8.05193 55.9505 8.03991 55.9733 8.02817C55.996 8.01655 56.0188 8.00526 56.0416 7.99392C56.0643 7.98263 56.087 7.97129 56.1098 7.96023L56.178 7.92749C56.2007 7.91677 56.2235 7.90632 56.2463 7.89582C56.269 7.88538 56.2916 7.87476 56.3145 7.86454C56.3371 7.85444 56.36 7.84478 56.3827 7.83489C56.4054 7.82501 56.4281 7.81496 56.4509 7.8053C56.4735 7.79576 56.4964 7.78666 56.5191 7.77734C56.5418 7.76807 56.5645 7.75869 56.5873 7.74965L56.6556 7.72298L56.7238 7.69721C56.7466 7.68867 56.7692 7.68002 56.792 7.67177C56.8146 7.66357 56.8375 7.65588 56.8602 7.6479C56.883 7.63993 56.9056 7.63179 56.9285 7.62404C56.9511 7.61634 56.9739 7.6091 56.9967 7.60163L57.0649 7.57968C57.0876 7.57249 57.1103 7.56525 57.1331 7.55828C57.1558 7.55138 57.1786 7.54486 57.2013 7.53818C57.2241 7.53144 57.2467 7.52448 57.2696 7.51802C57.2922 7.51162 57.315 7.50567 57.3378 7.49949C57.3605 7.49331 57.3832 7.48708 57.406 7.48113L57.4742 7.46361C57.4969 7.45794 57.5197 7.45255 57.5425 7.4471C57.5652 7.44165 57.5878 7.43581 57.6107 7.43059C57.6333 7.42542 57.6562 7.42071 57.6789 7.41571L57.7471 7.40094L57.8153 7.38696C57.838 7.38247 57.8608 7.37825 57.8835 7.37399C57.9063 7.36966 57.9289 7.36506 57.9518 7.36096C57.9744 7.35686 57.9973 7.35338 58.02 7.34956L58.0882 7.33833C58.1109 7.33474 58.1337 7.33103 58.1565 7.32766C58.1791 7.32429 58.2019 7.32131 58.2247 7.31817C58.2474 7.31503 58.2701 7.3116 58.2929 7.30868C58.3156 7.30576 58.3384 7.30318 58.3611 7.30048L58.4293 7.29273C58.4521 7.29026 58.4747 7.28751 58.4975 7.28526C58.5202 7.28302 58.543 7.28128 58.5658 7.27926L58.634 7.27325L58.7022 7.26814C58.7249 7.26651 58.7477 7.26522 58.7704 7.26381C58.7931 7.26247 58.8158 7.26073 58.8386 7.25955C58.8613 7.25837 58.8842 7.25769 58.9069 7.25674L58.9751 7.25421C58.9979 7.25348 59.0205 7.25253 59.0433 7.25202C59.066 7.25152 59.0888 7.25146 59.1115 7.25112C59.1343 7.25079 59.157 7.25039 59.1798 7.25028L59.1969 7.25006H59.248H59.3162H59.3844H59.4526H59.5208H59.5891H59.6573H59.7255H59.7938H59.862H59.9302H59.9984H60.0666H60.1348H60.2031H60.2713H60.3395H60.4077H60.476H60.5441H60.6124H60.6806H60.7488H60.8171H60.8853H60.9535H61.0217H61.09H61.1581H61.2264H61.2946H61.3628H61.431H61.4993H61.5675H61.6357H61.704H61.7721H61.8404H61.9086H61.9768H62.045H62.1133H62.1815H62.2497H62.318H62.3861H62.4544H62.5226H62.5908H62.659H62.7273H62.7955H62.8637H62.9319H63.0001H63.0683H63.1366H63.2048H63.273H63.3413H63.4095H63.4777H63.5459H63.6141H63.6823H63.7506H63.8188H63.887H63.9552H64.0235H64.0917H64.1599H64.2281H64.2963H64.3646H64.4328H64.501H64.5692H64.6375H64.7056H64.7739H64.8421H64.9103H64.9786H65.0468H65.115H65.1832H65.2515H65.3196H65.3879H65.4561H65.5243H65.5925H65.6608H65.729H65.7972H65.8655H65.9336H66.0019H66.0701H66.1383H66.2065H66.2748H66.343H66.4112H66.4794H66.5476H66.6158H66.6841H66.7523H66.8205H66.8888H66.957H67.0252H67.0934H67.1616H67.2298H67.2981H67.3663H67.4345H67.5027H67.571H67.6392H67.7074H67.7756H67.8438H67.9121H67.9803H68.0485H68.1167H68.1849H68.2531H68.3214H68.3896H68.4578H68.5261H68.5943H68.6625H68.7308H68.7989H68.8672H68.9354H69.0036H69.0718H69.1401H69.2083H69.2765H69.3447H69.4129H69.4811H69.5494V7.25V7.25Z" fill="#54B230"/>
<path fill-rule="evenodd" clip-rule="evenodd" d="M13.0345 31.6055V14.2699C13.0345 13.7809 13.0849 13.3036 13.1808 12.8428C13.2013 12.7439 13.2242 12.6458 13.2489 12.5485C13.27 12.4651 13.2928 12.3824 13.317 12.3002C13.3385 12.227 13.3612 12.1543 13.3851 12.0821C13.4069 12.016 13.4294 11.9502 13.4532 11.885C13.4752 11.8246 13.4977 11.7646 13.5213 11.705C13.5433 11.6493 13.566 11.5937 13.5894 11.5387C13.6115 11.4868 13.6342 11.4353 13.6575 11.3841C13.6796 11.3354 13.7024 11.2871 13.7256 11.239C13.7477 11.1931 13.7706 11.1475 13.7937 11.1021C13.8159 11.0586 13.8386 11.0153 13.8618 10.9723C13.884 10.9308 13.9068 10.8896 13.9298 10.8486C13.9522 10.8089 13.9748 10.7694 13.998 10.7302C14.0204 10.6921 14.0429 10.6542 14.0661 10.6166C14.0884 10.5802 14.1112 10.5441 14.1342 10.5081C14.1565 10.4733 14.1794 10.4387 14.2023 10.4043C14.2247 10.3706 14.2473 10.337 14.2703 10.3037C14.293 10.2711 14.3153 10.2384 14.3385 10.2061C14.3608 10.175 14.3837 10.1442 14.4066 10.1134C14.4291 10.0831 14.4517 10.053 14.4747 10.023C14.4972 9.9936 14.5198 9.96395 14.5428 9.93486C14.5652 9.90662 14.5881 9.87882 14.6108 9.85091C14.6333 9.82334 14.656 9.79588 14.679 9.76865C14.7015 9.74186 14.7241 9.71514 14.7471 9.68869C14.7695 9.6628 14.7923 9.63736 14.8152 9.61181C14.8377 9.58649 14.8603 9.56122 14.8833 9.53629C14.9057 9.51186 14.9286 9.48777 14.9513 9.46368C14.9739 9.43982 14.9966 9.41617 15.0195 9.39265C15.042 9.36946 15.0647 9.34626 15.0876 9.32335C15.1101 9.30084 15.1329 9.27866 15.1557 9.25647C15.1784 9.23441 15.2008 9.21217 15.2238 9.19044C15.2462 9.16916 15.2691 9.14838 15.2918 9.12738C15.3145 9.10643 15.337 9.08543 15.36 9.06482C15.3825 9.04461 15.4053 9.02479 15.4281 9.00485C15.4507 8.98503 15.4733 8.96515 15.4962 8.94561C15.5187 8.92635 15.5415 8.90742 15.5643 8.88844C15.5868 8.86963 15.6095 8.85082 15.6323 8.83229C15.6549 8.81399 15.6777 8.79585 15.7005 8.77777C15.7231 8.75985 15.7457 8.74211 15.7686 8.72448C15.7911 8.70701 15.8139 8.68977 15.8367 8.67259C15.8593 8.65558 15.882 8.63862 15.9048 8.62188L15.9728 8.57258C15.9955 8.55635 16.0181 8.54024 16.041 8.52429C16.0635 8.50851 16.0863 8.4929 16.1091 8.4774C16.1317 8.46196 16.1543 8.44663 16.1771 8.43147C16.1998 8.41648 16.2225 8.40171 16.2453 8.38694C16.2679 8.37228 16.2905 8.35751 16.3133 8.34308C16.3359 8.32882 16.3587 8.31489 16.3815 8.30086C16.4042 8.28687 16.4267 8.27272 16.4496 8.25902C16.4721 8.24549 16.4949 8.23235 16.5176 8.21904C16.5404 8.20573 16.5629 8.1922 16.5858 8.17911C16.6083 8.16626 16.6312 8.15396 16.6538 8.14132C16.6766 8.12869 16.6991 8.11589 16.722 8.10348C16.7445 8.09123 16.7673 8.07944 16.7901 8.06748C16.8127 8.05552 16.8353 8.0435 16.8581 8.03177C16.8808 8.02014 16.9035 8.00875 16.9263 7.99735L16.9943 7.96377C17.017 7.9527 17.0397 7.94164 17.0625 7.93086C17.0851 7.92014 17.1078 7.90975 17.1306 7.89925C17.1533 7.88875 17.1758 7.87802 17.1986 7.8678C17.2212 7.85764 17.244 7.84809 17.2668 7.83821C17.2894 7.82832 17.3121 7.81827 17.3348 7.80861C17.3575 7.79907 17.3803 7.78986 17.403 7.78054L17.4711 7.75291L17.5391 7.72607L17.6073 7.70035C17.63 7.69182 17.6525 7.683 17.6753 7.67469C17.6979 7.66649 17.7208 7.65885 17.7435 7.65088C17.7662 7.64291 17.7888 7.63482 17.8116 7.62707L17.8796 7.60444L17.9478 7.58248C17.9704 7.5753 17.9931 7.56794 18.0158 7.56098C18.0384 7.55407 18.0613 7.5475 18.0839 7.54082C18.1067 7.53408 18.1293 7.52723 18.1521 7.52072C18.1747 7.51426 18.1974 7.50825 18.2201 7.50202L18.2883 7.48365C18.3109 7.4777 18.3336 7.47164 18.3564 7.46591C18.379 7.46018 18.4018 7.45496 18.4244 7.44946C18.4471 7.44395 18.4698 7.43823 18.4926 7.43295C18.5152 7.42773 18.538 7.42284 18.5606 7.41784L18.6288 7.40313C18.6514 7.3983 18.6741 7.39342 18.6969 7.38887C18.7195 7.38438 18.7423 7.38022 18.7649 7.3759C18.7877 7.37157 18.8103 7.36708 18.8331 7.36298C18.8557 7.35888 18.8784 7.35518 18.9011 7.3513L18.9693 7.34007C18.9919 7.33648 19.0146 7.3326 19.0374 7.32918C19.06 7.32575 19.0828 7.32289 19.1054 7.31969C19.1281 7.31654 19.1508 7.31317 19.1736 7.3102L19.2416 7.30172L19.3098 7.29402C19.3325 7.2915 19.3551 7.28858 19.3779 7.28628C19.4005 7.28397 19.4233 7.28229 19.4459 7.28021L19.5141 7.27426C19.5367 7.27235 19.5594 7.2705 19.5821 7.26887C19.6048 7.26724 19.6275 7.26595 19.6503 7.26454C19.673 7.26314 19.6956 7.26151 19.7184 7.26028C19.741 7.25904 19.7637 7.2582 19.7864 7.25719L19.8546 7.2546C19.8772 7.25382 19.8999 7.25264 19.9226 7.25208C19.9453 7.25152 19.968 7.25157 19.9907 7.25124C20.0134 7.2509 20.0361 7.25051 20.0589 7.25039L20.1269 7.25H20.1951H20.2631H20.3312H20.3994H20.4674H20.5356H20.6036H20.6717H20.7399H20.8079H20.8761H20.9441H21.0122H21.0804H21.1484H21.2166H21.2846H21.3527H21.4209H21.4889H21.5571H21.6251H21.6932H21.7614H21.8294H21.8976H21.9656H22.0337H22.1019H22.1699H22.2381H22.3061H22.3742H22.4424H22.5104H22.5785H22.6466H22.7147H22.7829H22.8509H22.919H22.9872H23.0552H23.1234H23.1914H23.2595H23.3277H23.3957H23.4639H23.5319H23.6H23.6682H23.7362H23.8044H23.8724H23.9405H24.0087H24.0767H24.1448H24.2129H24.281H24.3492H24.4172H24.4854H24.5534H24.6215H24.6897H24.7577H24.8258H24.8939H24.962H25.0302H25.0982H25.1663H25.2344H25.3025H25.3707H25.4387H25.5068H25.5749H25.643H25.7112H25.7792H25.8473H25.9154H25.9835H26.0516H26.1197H26.1878H26.2559H26.324H26.3922H26.4602H26.5283H26.5964H26.6645H26.7327H26.8007H26.8688H26.9369H27.005H27.0731H27.1412H27.2093H27.2774H27.3455H27.4137H27.4817H27.5498H27.618H27.686H27.7541H27.8222H27.8903H27.9585H28.0265H28.0946H28.1627H28.2308H28.2989H28.367H28.4351H28.5032H28.5713H28.6395H28.7075H28.7756H28.8437H28.9118H28.9799H29.048H29.1161H29.1842H29.2523H29.3204H29.3885H29.4566H29.5247H29.5928H29.6609H29.729H29.7971H29.8652H29.9333H30.0014H30.0695H30.1376H30.2057H30.2738H30.3419H30.41H30.4678V42.347C30.4678 42.6523 30.4481 42.953 30.41 43.2481C30.3917 43.3901 30.3686 43.5307 30.3419 43.6699C30.3215 43.7758 30.2989 43.881 30.2738 43.9851C30.2527 44.0729 30.2301 44.16 30.2057 44.2465C30.1843 44.3224 30.1615 44.3977 30.1376 44.4724C30.116 44.5401 30.0932 44.6074 30.0695 44.6742C30.0477 44.736 30.025 44.7975 30.0014 44.8585C29.9794 44.9155 29.9567 44.9721 29.9333 45.0284C29.9113 45.0814 29.8885 45.1341 29.8652 45.1864C29.8431 45.236 29.8203 45.2853 29.7971 45.3344C29.7749 45.3812 29.7522 45.4276 29.729 45.4738C29.7068 45.5182 29.6841 45.5623 29.6609 45.606C29.6386 45.6482 29.6159 45.6902 29.5928 45.7318C29.5704 45.7722 29.5479 45.8123 29.5247 45.8521C29.5024 45.8905 29.4797 45.9287 29.4566 45.9667C29.4343 46.0034 29.4115 46.0397 29.3885 46.076C29.3661 46.1114 29.3434 46.1466 29.3204 46.1816C29.2979 46.2158 29.2754 46.25 29.2523 46.2837C29.2299 46.3164 29.2071 46.349 29.1842 46.3813C29.1618 46.4129 29.1391 46.4443 29.1161 46.4755C29.0936 46.5062 29.071 46.5368 29.048 46.5672C29.0256 46.5968 29.0029 46.6262 28.9799 46.6555C28.9574 46.6841 28.9347 46.7124 28.9118 46.7406C28.8893 46.7685 28.8667 46.7964 28.8437 46.824C28.8213 46.8509 28.7985 46.8774 28.7756 46.904C28.7531 46.9301 28.7304 46.9561 28.7075 46.9819C28.6849 47.0074 28.6624 47.033 28.6395 47.0582C28.617 47.0828 28.5941 47.1069 28.5713 47.1312C28.5487 47.1553 28.5262 47.1795 28.5032 47.2032C28.4807 47.2265 28.4579 47.2495 28.4351 47.2725C28.4125 47.2953 28.3899 47.3178 28.367 47.3403C28.3445 47.3625 28.3218 47.3845 28.2989 47.4064C28.2764 47.4279 28.2536 47.4491 28.2308 47.4703C28.2082 47.4914 28.1856 47.5125 28.1627 47.5333C28.1402 47.5537 28.1174 47.5737 28.0946 47.5938C28.0719 47.6138 28.0495 47.634 28.0265 47.6537C28.0041 47.6731 27.9811 47.6919 27.9585 47.711C27.9358 47.73 27.9132 47.7492 27.8903 47.768C27.8678 47.7864 27.845 47.8044 27.8222 47.8225C27.7996 47.8406 27.777 47.8588 27.7541 47.8766C27.7316 47.8941 27.7088 47.9112 27.686 47.9284C27.6634 47.9456 27.6409 47.9629 27.618 47.9798C27.5954 47.9965 27.5725 48.0127 27.5498 48.0292C27.5271 48.0455 27.5046 48.062 27.4817 48.0781C27.4592 48.094 27.4364 48.1095 27.4137 48.125C27.3909 48.1406 27.3684 48.1564 27.3455 48.1718C27.323 48.1868 27.3002 48.2015 27.2774 48.2163C27.2547 48.2311 27.2322 48.2462 27.2093 48.2608C27.1868 48.2751 27.1639 48.2889 27.1412 48.303C27.1186 48.3171 27.096 48.3314 27.0731 48.3452C27.0505 48.3589 27.0277 48.3721 27.005 48.3855C26.9824 48.3988 26.9598 48.4123 26.9369 48.4255C26.9143 48.4384 26.8916 48.4511 26.8688 48.4639C26.8462 48.4766 26.8235 48.4892 26.8007 48.5017C26.7781 48.514 26.7554 48.5263 26.7327 48.5383L26.6645 48.574C26.6419 48.5858 26.6192 48.5975 26.5964 48.609C26.5738 48.6204 26.5511 48.6315 26.5283 48.6427C26.5056 48.6538 26.4831 48.6652 26.4602 48.6761C26.4377 48.6869 26.4148 48.6972 26.3922 48.7077C26.3694 48.7183 26.3469 48.729 26.324 48.7394C26.3015 48.7496 26.2786 48.7593 26.2559 48.7693L26.1878 48.7989L26.1197 48.8276C26.0971 48.837 26.0743 48.8461 26.0516 48.8553C26.0289 48.8644 26.0063 48.8737 25.9835 48.8827C25.961 48.8915 25.9382 48.8997 25.9154 48.9083C25.8927 48.9169 25.8702 48.9257 25.8473 48.934C25.8247 48.9423 25.802 48.9503 25.7792 48.9584L25.7112 48.9822L25.643 49.0054C25.6204 49.0129 25.5976 49.0201 25.5749 49.0273C25.5522 49.0346 25.5297 49.0422 25.5068 49.0493C25.4843 49.0563 25.4614 49.0627 25.4387 49.0695L25.3707 49.0896L25.3025 49.1089C25.2799 49.1152 25.2572 49.1211 25.2344 49.1272C25.2117 49.1333 25.1891 49.1397 25.1663 49.1455C25.1438 49.1512 25.1208 49.1564 25.0982 49.162C25.0756 49.1675 25.0529 49.1731 25.0302 49.1785L24.962 49.194L24.8939 49.2088C24.8712 49.2137 24.8487 49.2189 24.8258 49.2236C24.8032 49.2282 24.7804 49.2321 24.7577 49.2365C24.7351 49.2409 24.7124 49.2453 24.6897 49.2495L24.6215 49.2616C24.5989 49.2656 24.5762 49.2691 24.5534 49.2728C24.5307 49.2765 24.5081 49.2806 24.4854 49.284C24.4627 49.2875 24.44 49.2904 24.4172 49.2937L24.3492 49.3032C24.3265 49.3062 24.3038 49.3093 24.281 49.3121C24.2584 49.3149 24.2356 49.3173 24.2129 49.3199C24.1902 49.3225 24.1676 49.3253 24.1448 49.3276C24.1222 49.33 24.0995 49.332 24.0767 49.3341L24.0087 49.3401C23.9859 49.342 23.9633 49.3444 23.9405 49.3461C23.9179 49.3478 23.8951 49.3489 23.8724 49.3504L23.8044 49.3546L23.7362 49.3582C23.7136 49.3593 23.6908 49.36 23.6682 49.3608C23.6454 49.3616 23.6227 49.3627 23.6 49.3634C23.5774 49.364 23.5546 49.3642 23.5319 49.3647L23.4639 49.3655C23.4428 49.3657 23.4219 49.3663 23.4007 49.3663H23.3277H23.2595H23.1914H23.1234H23.0552H22.9872H22.919H22.8509H22.7829H22.7147H22.6466H22.5785H22.5104H22.4424H22.3742H22.3061H22.2381H22.1699H22.1019H22.0337H21.9656H21.8976H21.8294H21.7614H21.6932H21.6251H21.5571H21.4889H21.4209H21.3527H21.2846H21.2166H21.1484H21.0804H21.0122H20.9441H20.8761H20.8079H20.7399H20.6717H20.6036H20.5356H20.4674H20.3994H20.3312H20.2631H20.1951H20.1269H20.0589H19.9907H19.9226H19.8546H19.7864H19.7184H19.6503H19.5821H19.5141H19.4459H19.3779H19.3098H19.2416H19.1736H19.1054H19.0374H18.9693H18.9011H18.8331H18.7649H18.6969H18.6288H18.5606H18.4926H18.4244H18.3564H18.2883H18.2201H18.1521H18.0839H18.0158H17.9478H17.8796H17.8116H17.7435H17.6753H17.6073H17.5391H17.4711H17.403H17.3348H17.2668H17.1986H17.1306H17.0625H16.9943H16.9263H16.8581H16.7901H16.722H16.6538H16.5858H16.5176H16.4496H16.3815H16.3133H16.2453H16.1771H16.1091H16.041H15.9728H15.9048H15.8367H15.7686H15.7005H15.6323H15.5643H15.4962H15.4281H15.36H15.2918H15.2238H15.1557H15.0876H15.0195H14.9513H14.8833H14.8152H14.7471H14.679H14.6108H14.5428H14.4747H14.4066H14.3385H14.2703H14.2023H14.1342H14.0661H13.998H13.9298H13.8618H13.7937H13.7256H13.6575H13.5894H13.5213H13.4532H13.3851H13.317H13.2489H13.1808H13.0345V34.5733C13.0345 34.5733 13.0848 34.5871 13.1808 34.6111L13.2489 34.628L13.317 34.6445L13.3851 34.6607L13.4532 34.6767L13.5213 34.6925L13.5894 34.708L13.6575 34.7232L13.7256 34.7383L13.7937 34.7531L13.8618 34.7678L13.9298 34.7822L13.998 34.7965L14.0661 34.8106L14.1342 34.8244L14.2023 34.8381L14.2703 34.8516L14.3385 34.865L14.4066 34.8781L14.4747 34.8912L14.5428 34.904L14.6108 34.9167L14.679 34.9292L14.7471 34.9416L14.8152 34.9537L14.8833 34.9658L14.9513 34.9777L15.0195 34.9894L15.0876 35.0009L15.1557 35.0123L15.2238 35.0235L15.2918 35.0347L15.36 35.0456L15.4281 35.0564L15.4962 35.0671L15.5643 35.0776L15.6323 35.0879L15.7005 35.0981L15.7686 35.1082L15.8367 35.118L15.9048 35.1278L15.9728 35.1374L16.041 35.1469L16.1091 35.1562L16.1771 35.1654L16.2453 35.1744L16.3133 35.1832L16.3815 35.192L16.4496 35.2005L16.5176 35.209L16.5858 35.2173L16.6538 35.2255L16.722 35.2334L16.7901 35.2413L16.8581 35.2489L16.9263 35.2566L16.9943 35.264L17.0625 35.2712L17.1306 35.2784L17.1986 35.2853L17.2668 35.2922L17.3348 35.2989L17.403 35.3054L17.4711 35.3119L17.5391 35.3181L17.6073 35.3243L17.6753 35.3301L17.7435 35.336L17.8116 35.3417L17.8796 35.3472L17.9478 35.3526L18.0158 35.3577L18.0839 35.3629L18.1521 35.3678L18.2201 35.3725L18.2883 35.3773L18.3564 35.3816L18.4244 35.386L18.4926 35.3902L18.5606 35.3942L18.6288 35.3982L18.6969 35.4018L18.7649 35.4054L18.8331 35.4089L18.9011 35.4121L18.9693 35.4153L19.0374 35.4182L19.1054 35.4211L19.1736 35.4239L19.2416 35.4262L19.3098 35.4286L19.3779 35.4309L19.4459 35.4328L19.5141 35.4349L19.5821 35.4366L19.6503 35.4381L19.7184 35.4396L19.7864 35.4408L19.8546 35.4419L19.9226 35.4429L19.9907 35.4436L20.0589 35.4443L20.1269 35.4448L20.1951 35.445L20.2631 35.4452L20.3312 35.4451L20.3994 35.4446L20.4674 35.4442L20.5356 35.4439L20.6036 35.4435L20.6717 35.4422L20.7399 35.441L20.8079 35.4398L20.8761 35.4385L20.9441 35.4368L21.0122 35.4347L21.0804 35.4326L21.1484 35.4305L21.2166 35.4283L21.2846 35.4253L21.3527 35.4223L21.4209 35.4193L21.4889 35.4163L21.5571 35.4126L21.6251 35.4087L21.6932 35.4048L21.7614 35.4008L21.8294 35.3963L21.8976 35.3915L21.9656 35.3866L22.0337 35.3817L22.1019 35.3764L22.1699 35.3705L22.2381 35.3647L22.3061 35.3588L22.3742 35.3524L22.4424 35.3455L22.5104 35.3387L22.5785 35.3318L22.6466 35.3242L22.7147 35.3163L22.7829 35.3084L22.8509 35.3004L22.919 35.2916L22.9872 35.2826L23.0552 35.2735L23.1234 35.2643C23.1463 35.2611 23.1687 35.2575 23.1914 35.2542L23.2595 35.244L23.3277 35.2338L23.3957 35.2231C23.4186 35.2194 23.4411 35.2154 23.4639 35.2117L23.5319 35.2003C23.5545 35.1965 23.5776 35.1928 23.6 35.1889C23.623 35.1849 23.6453 35.1805 23.6682 35.1764L23.7362 35.1638L23.8044 35.1511L23.8724 35.1379C23.8953 35.1334 23.9178 35.1285 23.9405 35.1239L24.0087 35.11L24.0767 35.0959C24.0997 35.091 24.122 35.0857 24.1448 35.0806L24.2129 35.0654C24.2355 35.0602 24.2586 35.0554 24.281 35.0502C24.304 35.0448 24.3264 35.0391 24.3492 35.0336L24.4172 35.017C24.4398 35.0114 24.4629 35.006 24.4854 35.0004C24.5083 34.9946 24.5308 34.9885 24.5534 34.9826L24.6215 34.9645C24.6442 34.9585 24.6672 34.9526 24.6897 34.9464C24.7126 34.9402 24.7351 34.9336 24.7577 34.9272L24.8258 34.9076C24.8485 34.9011 24.8715 34.8947 24.8939 34.888L24.962 34.8673L25.0302 34.846C25.0528 34.839 25.0758 34.8321 25.0982 34.8248L25.1663 34.8023L25.2344 34.7794C25.2571 34.7717 25.2802 34.7643 25.3025 34.7565C25.3255 34.7484 25.3479 34.7401 25.3707 34.7319L25.4387 34.7073C25.4614 34.6989 25.4844 34.6907 25.5068 34.6822C25.5298 34.6736 25.5522 34.6646 25.5749 34.6558C25.5977 34.647 25.6206 34.6382 25.643 34.6293L25.7112 34.6018L25.7792 34.5734C25.8019 34.5639 25.825 34.5547 25.8473 34.545C25.8704 34.5351 25.8927 34.5247 25.9154 34.5146L25.9835 34.4842L26.0516 34.4527C26.0745 34.442 26.0971 34.4311 26.1197 34.4202C26.1424 34.4093 26.1655 34.3985 26.1878 34.3874C26.2109 34.376 26.2332 34.3642 26.2559 34.3526C26.2787 34.3411 26.3016 34.3296 26.324 34.3179C26.347 34.3058 26.3695 34.2935 26.3922 34.2813C26.415 34.269 26.4377 34.2567 26.4602 34.2442C26.4831 34.2315 26.5058 34.2187 26.5283 34.2058C26.5513 34.1928 26.5739 34.1794 26.5964 34.1661C26.6192 34.1527 26.6421 34.1393 26.6645 34.1257C26.6875 34.1117 26.71 34.0976 26.7327 34.0834C26.7554 34.0692 26.7783 34.055 26.8007 34.0406C26.8237 34.0258 26.8462 34.0105 26.8688 33.9955C26.8916 33.9803 26.9146 33.9652 26.9369 33.9498C26.96 33.934 26.9824 33.9179 27.005 33.9018C27.0278 33.8856 27.0508 33.8694 27.0731 33.853C27.0962 33.8361 27.1187 33.819 27.1412 33.8019C27.1641 33.7845 27.1869 33.7671 27.2093 33.7495C27.2323 33.7315 27.2549 33.7132 27.2774 33.6949C27.3004 33.6762 27.3231 33.6573 27.3455 33.6383C27.3684 33.619 27.3913 33.5998 27.4137 33.5802C27.4368 33.56 27.4592 33.5394 27.4817 33.5189C27.5046 33.4981 27.5275 33.4774 27.5498 33.4564C27.5729 33.4345 27.5955 33.4124 27.618 33.3903C27.641 33.3676 27.6636 33.3447 27.686 33.3218C27.7089 33.2983 27.7319 33.2749 27.7541 33.2511C27.7773 33.2262 27.7997 33.2011 27.8222 33.1759C27.8454 33.15 27.868 33.1239 27.8903 33.0976C27.9133 33.0706 27.9362 33.0436 27.9585 33.0162C27.9815 32.9877 28.0043 32.9592 28.0265 32.9304C28.0498 32.9003 28.0723 32.8698 28.0946 32.8393C28.1178 32.8075 28.1405 32.7755 28.1627 32.7433C28.186 32.7097 28.2087 32.6758 28.2308 32.6417C28.2541 32.606 28.2768 32.57 28.2989 32.5338C28.3222 32.4955 28.345 32.457 28.367 32.4181C28.3904 32.377 28.4131 32.3355 28.4351 32.2938C28.4586 32.2491 28.4813 32.2041 28.5032 32.1588C28.5269 32.11 28.5495 32.0608 28.5713 32.0114C28.595 31.9576 28.6178 31.9034 28.6395 31.8488C28.6633 31.7885 28.6861 31.7278 28.7075 31.6665C28.7318 31.597 28.7544 31.5268 28.7756 31.4559C28.8004 31.3732 28.823 31.2896 28.8437 31.2052C28.8694 31.1004 28.8922 30.9945 28.9118 30.8874C28.941 30.728 28.9635 30.5661 28.9799 30.402C29.0028 30.1732 29.0139 29.9403 29.0139 29.7037V21.5594H28.9118H28.8437H28.7756H28.7075H28.6395H28.5713H28.5032H28.4351H28.367H28.2989H28.2308H28.1627H28.0946H28.0265H27.9585H27.8903H27.8222H27.7541H27.686H27.618H27.5498H27.4817H27.4137H27.3455H27.2774H27.2093H27.1412H27.0731H27.005H26.9369H26.8688H26.8007H26.7327H26.6645H26.5964H26.5283H26.4602H26.3922H26.324H26.2559H26.1878H26.1197H26.0516H25.9835H25.9154H25.8473H25.7792H25.7112H25.643H25.5749H25.5068H25.4387H25.3707H25.3025H25.2344H25.1663H25.0982H25.0302H24.962H24.8939H24.8258H24.7577H24.6897H24.6215H24.5534H24.4854H24.4172H24.3492H24.281H24.2129H24.1448H24.0767H24.0087H23.9405H23.8724H23.8044H23.7362H23.6682H23.6H23.5319H23.4639H23.3957H23.3277H23.2595H23.1914H23.1234H23.0552H22.9872L22.9355 29.7037C22.9355 29.8311 22.9299 29.9566 22.919 30.0796C22.9051 30.2364 22.8823 30.3891 22.8509 30.5377C22.8315 30.6295 22.8088 30.7195 22.7829 30.8079C22.7622 30.8784 22.7395 30.9476 22.7147 31.0158C22.6936 31.0738 22.6708 31.1308 22.6466 31.1871C22.6251 31.2373 22.6024 31.2867 22.5785 31.3354C22.5567 31.3798 22.5342 31.4237 22.5104 31.4667C22.4886 31.5064 22.4658 31.5452 22.4424 31.5838C22.4204 31.62 22.3977 31.6557 22.3742 31.6909C22.3522 31.724 22.3294 31.7565 22.3061 31.7887C22.284 31.8193 22.2614 31.8496 22.2381 31.8795C22.2159 31.9078 22.1931 31.9355 22.1699 31.963C22.1477 31.9893 22.125 32.0153 22.1019 32.041C22.0796 32.0657 22.0569 32.0901 22.0337 32.1141C22.0114 32.1372 21.9888 32.1601 21.9656 32.1826C21.9433 32.2044 21.9206 32.2259 21.8976 32.247C21.8752 32.2675 21.8524 32.2875 21.8294 32.3074C21.8071 32.3267 21.7844 32.3457 21.7614 32.3644C21.739 32.3826 21.7162 32.4005 21.6932 32.4182C21.6708 32.4354 21.6481 32.4523 21.6251 32.4691C21.6027 32.4853 21.58 32.5014 21.5571 32.5172C21.5346 32.5326 21.5119 32.5478 21.4889 32.5628C21.4665 32.5774 21.4438 32.5918 21.4209 32.6059C21.3984 32.6197 21.3757 32.6333 21.3527 32.6467C21.3303 32.6598 21.3075 32.6726 21.2846 32.6853C21.2622 32.6977 21.2395 32.7097 21.2166 32.7218C21.1941 32.7336 21.1714 32.7451 21.1484 32.7564C21.1259 32.7675 21.1033 32.7785 21.0804 32.7893C21.0578 32.7998 21.0352 32.8103 21.0122 32.8205C20.9897 32.8305 20.967 32.8404 20.9441 32.85C20.9217 32.8594 20.8989 32.8685 20.8761 32.8775C20.8536 32.8865 20.8308 32.8952 20.8079 32.9037C20.7854 32.9121 20.7628 32.9204 20.7399 32.9285C20.7173 32.9364 20.6946 32.9443 20.6717 32.9519C20.6492 32.9594 20.6265 32.9667 20.6036 32.9738C20.5811 32.9809 20.5584 32.9876 20.5356 32.9943C20.513 33.0009 20.4903 33.0074 20.4674 33.0136C20.4448 33.0198 20.4222 33.0261 20.3994 33.0319C20.3768 33.0377 20.3541 33.0432 20.3312 33.0487C20.3087 33.0541 20.286 33.0592 20.2631 33.0643C20.2406 33.0693 20.2179 33.0742 20.1951 33.0789C20.1724 33.0836 20.1498 33.0882 20.1269 33.0925C20.1044 33.0968 20.0816 33.1007 20.0589 33.1047C20.0362 33.1087 20.0136 33.1126 19.9907 33.1162L19.9226 33.1266C19.9001 33.1298 19.8774 33.1328 19.8546 33.1358C19.8319 33.1388 19.8093 33.1417 19.7864 33.1443L19.7184 33.1518C19.6958 33.1541 19.6731 33.1562 19.6503 33.1582C19.6276 33.1603 19.605 33.1623 19.5821 33.1641C19.5596 33.1658 19.5369 33.1673 19.5141 33.1688C19.4914 33.1703 19.4687 33.1715 19.4459 33.1727C19.4233 33.1738 19.4007 33.175 19.3779 33.1759C19.3553 33.1768 19.3325 33.1773 19.3098 33.178L19.2416 33.1796C19.2191 33.18 19.1964 33.1801 19.1736 33.1803L19.1054 33.1803L19.0374 33.1799L18.9693 33.1789L18.9011 33.1775L18.8331 33.1757L18.7649 33.1735L18.6969 33.1708L18.6288 33.1676L18.5606 33.1642L18.4926 33.1601L18.4244 33.1558L18.3564 33.151L18.2883 33.1457L18.2201 33.14L18.1521 33.134L18.0839 33.1275L18.0158 33.1206L17.9478 33.1133L17.8796 33.1056L17.8116 33.0974L17.7435 33.0888L17.6753 33.0799L17.6073 33.0705L17.5391 33.0606L17.4711 33.0505L17.403 33.04L17.3348 33.029L17.2668 33.0176L17.1986 33.0059L17.1306 32.9937L17.0625 32.9811L16.9943 32.9682L16.9263 32.9549L16.8581 32.9411L16.7901 32.9271L16.722 32.9126L16.6538 32.8977L16.5858 32.8825L16.5176 32.8669L16.4496 32.8509L16.3815 32.8345L16.3133 32.8178L16.2453 32.8008L16.1771 32.7831L16.1091 32.7653L16.041 32.7471L15.9728 32.7285L15.9048 32.7096L15.8367 32.6903L15.7686 32.6707L15.7005 32.6506L15.6323 32.6302L15.5643 32.6096L15.4962 32.5884L15.4281 32.567L15.36 32.5453L15.2918 32.5232L15.2238 32.5007L15.1557 32.4779L15.0876 32.4547L15.0195 32.4313L14.9513 32.4074L14.8833 32.3832L14.8152 32.3588L14.7471 32.3339L14.679 32.3087L14.6108 32.2833L14.5428 32.2575L14.4747 32.2313L14.4066 32.2049L14.3385 32.1781L14.2703 32.151L14.2023 32.1236L14.1342 32.0958L14.0661 32.0678L13.998 32.0394L13.9298 32.0107L13.8618 31.9817L13.7937 31.9525L13.7256 31.9227L13.6575 31.8929L13.5894 31.8627L13.5213 31.8322L13.4532 31.8014L13.3851 31.7703L13.317 31.7389L13.2489 31.7072L13.1808 31.6752C13.132 31.6521 13.0832 31.629 13.0345 31.6055Z" fill="#006CB9"/>
<path fill-rule="evenodd" clip-rule="evenodd" d="M32.7351 23.339C32.6854 23.3788 32.6366 23.419 32.5889 23.4598V14.27C32.5889 13.7813 32.6394 13.3042 32.7351 12.8436C32.7557 12.7447 32.7785 12.6467 32.8032 12.5494C32.8244 12.4659 32.8472 12.3831 32.8713 12.3008C32.8928 12.2276 32.9156 12.1548 32.9394 12.0825C32.9612 12.0165 32.9838 11.9508 33.0075 11.8856C33.0294 11.8253 33.0521 11.7652 33.0756 11.7056C33.0977 11.6499 33.1203 11.5945 33.1437 11.5394C33.1658 11.4876 33.1885 11.436 33.2118 11.3847C33.2339 11.3361 33.2568 11.2877 33.2799 11.2396C33.3021 11.1937 33.3249 11.1482 33.348 11.1029C33.3702 11.0593 33.393 11.016 33.4161 10.973C33.4384 10.9315 33.4612 10.8903 33.4842 10.8493C33.5066 10.8096 33.5292 10.77 33.5524 10.7308C33.5747 10.6928 33.5973 10.6549 33.6204 10.6172C33.6428 10.5809 33.6655 10.5448 33.6885 10.5089C33.7109 10.474 33.7337 10.4395 33.7566 10.405C33.7791 10.3712 33.8017 10.3377 33.8247 10.3044C33.8473 10.2717 33.8698 10.239 33.8929 10.2068C33.9152 10.1756 33.9381 10.1449 33.9609 10.1141C33.9834 10.0838 34.0061 10.0536 34.0291 10.0237C34.0516 9.99422 34.0741 9.96468 34.0971 9.9356C34.1195 9.90735 34.1425 9.8795 34.1653 9.85159C34.1878 9.82402 34.2105 9.79656 34.2334 9.76938C34.2559 9.74254 34.2785 9.71581 34.3015 9.68936C34.3239 9.66353 34.3468 9.63804 34.3696 9.61254C34.3921 9.58728 34.4147 9.56189 34.4377 9.53691C34.4602 9.51248 34.4829 9.48833 34.5057 9.46424C34.5282 9.44043 34.551 9.41679 34.5738 9.39327C34.5964 9.37007 34.619 9.34688 34.6419 9.32397C34.6644 9.30151 34.6872 9.27933 34.71 9.25715C34.7327 9.23508 34.7552 9.21284 34.7781 9.19106C34.8006 9.16977 34.8235 9.149 34.8462 9.128C34.8688 9.10705 34.8914 9.08605 34.9144 9.06544C34.9369 9.04523 34.9597 9.02535 34.9824 9.00541C35.0051 8.98554 35.0277 8.96571 35.0506 8.94617C35.0731 8.92691 35.0959 8.90799 35.1186 8.88901C35.1413 8.8702 35.1639 8.85138 35.1868 8.8328C35.2093 8.81449 35.2321 8.79635 35.2549 8.77833C35.2775 8.76042 35.3002 8.74262 35.323 8.72498C35.3456 8.70758 35.3683 8.69034 35.3911 8.67315C35.4137 8.65614 35.4364 8.63918 35.4591 8.62245C35.4817 8.60583 35.5045 8.58943 35.5273 8.57309C35.5499 8.55692 35.5726 8.54074 35.5954 8.5248C35.618 8.50902 35.6407 8.49346 35.6635 8.47791C35.6861 8.46247 35.7088 8.44708 35.7316 8.43192C35.7541 8.41693 35.7769 8.40216 35.7997 8.38739C35.8223 8.37268 35.8449 8.35796 35.8678 8.34353C35.8904 8.32927 35.9131 8.31534 35.9359 8.30131C35.9586 8.28732 35.9812 8.27317 36.004 8.25947C36.0266 8.24588 36.0494 8.23274 36.0721 8.21943C36.0949 8.20613 36.1174 8.19254 36.1402 8.17951C36.1627 8.16665 36.1857 8.1543 36.2083 8.14166C36.2311 8.12903 36.2536 8.11628 36.2764 8.10393C36.299 8.09168 36.3218 8.07989 36.3445 8.06788C36.3672 8.05592 36.3898 8.0439 36.4126 8.03216L36.4807 7.99774L36.5488 7.9641C36.5715 7.9531 36.5941 7.94198 36.6169 7.9312C36.6395 7.92047 36.6623 7.91008 36.6851 7.89958C36.7078 7.88914 36.7303 7.87836 36.7531 7.86814C36.7757 7.85797 36.7985 7.84843 36.8213 7.83855C36.8439 7.82866 36.8666 7.81861 36.8893 7.80895C36.912 7.79941 36.9347 7.79014 36.9574 7.78082L37.0256 7.75319C37.0482 7.74415 37.0708 7.73511 37.0936 7.72629C37.1162 7.71753 37.139 7.70911 37.1618 7.70058C37.1845 7.69204 37.207 7.68322 37.2298 7.67491C37.2524 7.66672 37.2753 7.65908 37.298 7.65111C37.3207 7.64313 37.3433 7.63505 37.3661 7.6273C37.3887 7.61955 37.4115 7.61213 37.4342 7.60467L37.5023 7.58271C37.5249 7.57552 37.5476 7.56817 37.5704 7.56115C37.593 7.55424 37.6158 7.54773 37.6385 7.54104C37.6612 7.53431 37.6838 7.5274 37.7066 7.52089C37.7292 7.51443 37.752 7.50842 37.7747 7.50219L37.8428 7.48382C37.8655 7.47787 37.8881 7.47181 37.9109 7.46608C37.9335 7.46041 37.9563 7.45507 37.979 7.44957C38.0017 7.44407 38.0243 7.43834 38.0471 7.43306C38.0697 7.42784 38.0925 7.42295 38.1152 7.41796L38.1833 7.40324C38.2061 7.39847 38.2286 7.39353 38.2514 7.38898C38.274 7.38443 38.2968 7.38033 38.3195 7.37601C38.3422 7.37169 38.3648 7.36714 38.3876 7.36304L38.4557 7.35136L38.5238 7.34018C38.5466 7.33653 38.5692 7.33266 38.592 7.32923C38.6146 7.32581 38.6374 7.32294 38.66 7.31974C38.6827 7.3166 38.7054 7.31329 38.7281 7.31031L38.7962 7.30183L38.8643 7.29408C38.8871 7.29155 38.9097 7.28863 38.9325 7.28633C38.9551 7.28403 38.9779 7.28235 39.0005 7.28027L39.0687 7.27432C39.0913 7.27241 39.114 7.27055 39.1367 7.26892C39.1594 7.2673 39.1822 7.266 39.2048 7.2646C39.2276 7.2632 39.2502 7.26157 39.273 7.26033C39.2956 7.2591 39.3184 7.25826 39.3411 7.25724L39.4092 7.25466C39.4319 7.25388 39.4545 7.2527 39.4773 7.25213C39.4999 7.25157 39.5227 7.25163 39.5454 7.25129C39.5681 7.25096 39.5908 7.25056 39.6135 7.25045L39.6435 7.25006H39.6816H39.7497H39.8178H39.8859H39.954H40.0221H40.0902H40.1583H40.2264H40.2945H40.3627H40.4307H40.4988H40.5669H40.635H40.7032H40.7712H40.8394H40.9074H40.9755H41.0437H41.1117H41.1799H41.2479H41.3161H41.3842H41.4523H41.5204H41.5885H41.6566H41.7247H41.7928H41.8609H41.929H41.9971H42.0652H42.1333H42.2014H42.2695H42.3376H42.4057H42.4738H42.5419H42.6101H42.6781H42.7462H42.8143H42.8824H42.9506H43.0186H43.0868H43.1549H43.223H43.2911H43.3591H43.4273H43.4954H43.5635H43.6316H43.6997H43.7678H43.8359H43.904H43.9721H44.0402H44.1083H44.1764H44.2445H44.3126H44.3808H44.4488H44.5169H44.585H44.6531H44.7213H44.7893H44.8575H44.9255H44.9937H45.0618H45.1298H45.198H45.266H45.3342H45.4023H45.4704H45.5385H45.6066H45.6747H45.7428H45.8109H45.879H45.9471H46.0152H46.0833H46.1514H46.2195H46.2876H46.3557H46.4238H46.4919H46.56H46.6282H46.6962H46.7644H46.8324H46.9005H46.9687H47.0367H47.1049H47.173H47.2411H47.3092H47.3773H47.4454H47.5135H47.5816H47.6497H47.7178H47.7859H47.854H47.9221H47.9902H48.0583H48.1264H48.1945H48.2626H48.3307H48.3989H48.4669H48.5351H48.6031H48.6712H48.7394H48.8074H48.8756H48.9436H49.0118H49.0799H49.1479H49.2161H49.2841H49.3523H49.4204H49.4885H49.5566H49.6247H49.6928H49.7609H49.829H49.8971H49.9652H50.0229V42.347C50.0229 42.6522 50.0033 42.9527 49.9652 43.2477C49.9469 43.3897 49.9239 43.5302 49.8971 43.6694C49.8768 43.7753 49.8541 43.8805 49.829 43.9847C49.8078 44.0725 49.7853 44.1597 49.7609 44.2462C49.7394 44.322 49.7167 44.3974 49.6928 44.4721C49.6711 44.5399 49.6483 44.607 49.6247 44.6739C49.6028 44.7357 49.5801 44.7972 49.5566 44.8582C49.5346 44.9151 49.512 44.9717 49.4885 45.028C49.4664 45.081 49.4437 45.1337 49.4204 45.186C49.3982 45.2357 49.3755 45.2849 49.3523 45.3339C49.3301 45.3808 49.3074 45.4273 49.2841 45.4735C49.2619 45.5178 49.2392 45.5619 49.2161 45.6057C49.1937 45.6479 49.1711 45.6899 49.1479 45.7316C49.1255 45.7719 49.103 45.8121 49.0799 45.8519C49.0576 45.8902 49.0348 45.9284 49.0118 45.9663C48.9894 46.0031 48.9667 46.0394 48.9436 46.0757C48.9213 46.1111 48.8986 46.1463 48.8756 46.1812C48.8531 46.2154 48.8306 46.2497 48.8074 46.2834C48.785 46.3162 48.7623 46.3486 48.7394 46.381C48.717 46.4126 48.6942 46.4439 48.6712 46.4752C48.6487 46.5059 48.6261 46.5366 48.6031 46.5669C48.5807 46.5965 48.558 46.6258 48.5351 46.6551C48.5126 46.6837 48.4898 46.7121 48.4669 46.7403C48.4444 46.7682 48.4219 46.7961 48.3989 46.8236C48.3764 46.8505 48.3536 46.8771 48.3307 46.9037C48.3082 46.9299 48.2855 46.9558 48.2626 46.9816C48.24 47.0071 48.2175 47.0326 48.1945 47.0578C48.1721 47.0824 48.1492 47.1066 48.1264 47.1309C48.1038 47.155 48.0813 47.1792 48.0583 47.203C48.0358 47.2263 48.013 47.2492 47.9902 47.2722C47.9677 47.2949 47.945 47.3175 47.9221 47.34C47.8996 47.3621 47.8769 47.3842 47.854 47.4061C47.8315 47.4276 47.8087 47.4488 47.7859 47.47C47.7633 47.4911 47.7407 47.5123 47.7178 47.5331C47.6953 47.5535 47.6725 47.5734 47.6497 47.5935C47.627 47.6136 47.6045 47.6338 47.5816 47.6535C47.5591 47.6729 47.5362 47.6918 47.5135 47.7108C47.4908 47.7298 47.4683 47.749 47.4454 47.7677C47.4229 47.7862 47.4 47.8041 47.3773 47.8222C47.3546 47.8403 47.3321 47.8585 47.3092 47.8763C47.2867 47.8939 47.2638 47.9109 47.2411 47.9282C47.2184 47.9454 47.1959 47.9626 47.173 47.9796C47.1504 47.9963 47.1276 48.0126 47.1049 48.029C47.0822 48.0453 47.0596 48.0619 47.0367 48.0779C47.0142 48.0938 46.9914 48.1092 46.9687 48.1248C46.946 48.1404 46.9234 48.1562 46.9005 48.1715C46.878 48.1866 46.8552 48.2012 46.8324 48.2161C46.8098 48.2309 46.7873 48.246 46.7644 48.2605C46.7418 48.2749 46.7189 48.2887 46.6962 48.3028C46.6736 48.3169 46.651 48.3312 46.6282 48.345C46.6056 48.3586 46.5828 48.3718 46.56 48.3853C46.5374 48.3986 46.5147 48.4121 46.4919 48.4252C46.4693 48.4382 46.4466 48.451 46.4238 48.4637L46.3557 48.5015L46.2876 48.5382L46.2195 48.5738C46.1969 48.5856 46.1742 48.5973 46.1514 48.6089C46.1288 48.6203 46.1061 48.6313 46.0833 48.6425C46.0606 48.6537 46.0381 48.6651 46.0152 48.676C45.9927 48.6867 45.9698 48.697 45.9471 48.7076C45.9244 48.7181 45.9018 48.7289 45.879 48.7392C45.8564 48.7494 45.8336 48.7592 45.8109 48.7692L45.7428 48.7988L45.6747 48.8275L45.6066 48.8551C45.5839 48.8643 45.5613 48.8736 45.5385 48.8825C45.5159 48.8914 45.4931 48.8996 45.4704 48.9082C45.4477 48.9168 45.4251 48.9256 45.4023 48.9339C45.3796 48.9422 45.3569 48.9502 45.3342 48.9582L45.266 48.9821L45.198 49.0052C45.1754 49.0128 45.1526 49.0199 45.1298 49.0272C45.1071 49.0345 45.0845 49.0421 45.0618 49.0492C45.0392 49.0562 45.0164 49.0626 44.9937 49.0694L44.9255 49.0895L44.8575 49.1088C44.8348 49.1151 44.8121 49.1211 44.7893 49.1271C44.7666 49.1332 44.7441 49.1396 44.7213 49.1454C44.6986 49.1512 44.6759 49.1564 44.6531 49.1619C44.6304 49.1675 44.6078 49.1731 44.585 49.1784L44.5169 49.194L44.4488 49.2087C44.4261 49.2136 44.4035 49.2188 44.3808 49.2235C44.3581 49.2281 44.3353 49.2321 44.3126 49.2365L44.2445 49.2494L44.1764 49.2616C44.1538 49.2655 44.1311 49.2691 44.1083 49.2728C44.0856 49.2765 44.063 49.2805 44.0402 49.284C44.0176 49.2875 43.9948 49.2904 43.9721 49.2937L43.904 49.3032C43.8813 49.3062 43.8586 49.3093 43.8359 49.3121C43.8133 49.3149 43.7905 49.3173 43.7678 49.3199C43.7451 49.3225 43.7225 49.3253 43.6997 49.3276C43.6771 49.33 43.6543 49.332 43.6316 49.3341L43.5635 49.3402C43.5408 49.3421 43.5182 49.3444 43.4954 49.3461C43.4728 49.3478 43.45 49.3489 43.4273 49.3504L43.3591 49.3547L43.2911 49.3583C43.2684 49.3593 43.2457 49.36 43.223 49.3608C43.2003 49.3617 43.1776 49.3627 43.1549 49.3634C43.1322 49.364 43.1095 49.3642 43.0868 49.3647L43.0186 49.3656C42.9974 49.3657 42.9763 49.3664 42.9551 49.3664H42.9506H42.8824H42.8143H42.7462H42.6781H42.6101H42.5419H42.4738H42.4057H42.3376H42.2695H42.2014H42.1333H42.0652H41.9971H41.929H41.8609H41.7928H41.7247H41.6566H41.5885H41.5204H41.4523H41.3842H41.3161H41.2479H41.1799H41.1117H41.0437H40.9755H40.9074H40.8394H40.7712H40.7032H40.635H40.5669H40.4988H40.4307H40.3627H40.2945H40.2264H40.1583H40.0902H40.0221H39.954H39.8859H39.8178H39.7497H39.6816H39.6135H39.5454H39.4773H39.4092H39.3411H39.273H39.2048H39.1367H39.0687H39.0005H38.9325H38.8643H38.7962H38.7281H38.66H38.592H38.5238H38.4557H38.3876H38.3195H38.2514H38.1833H38.1152H38.0471H37.979H37.9109H37.8428H37.7747H37.7066H37.6385H37.5704H37.5023H37.4342H37.3661H37.298H37.2298H37.1618H37.0936H37.0256H36.9574H36.8893H36.8213H36.7531H36.6851H36.6169H36.5488H36.4807H36.4126H36.3445H36.2764H36.2083H36.1402H36.0721H36.004H35.9359H35.8678H35.7997H35.7316H35.6635H35.5954H35.5273H35.4591H35.3911H35.323H35.2549H35.1868H35.1186H35.0506H34.9824H34.9144H34.8462H34.7781H34.71H34.6419H34.5738H34.5057H34.4377H34.3696H34.3015H34.2334H34.1653H34.0971H34.0291H33.9609H33.8929H33.8247H33.7566H33.6885H33.6204H33.5524H33.4842H33.4161H33.348H33.2799H33.2118H33.1437H33.0756H33.0075H32.9394H32.8713H32.8032H32.7351H32.5889V33.1595C32.6366 33.2001 32.6854 33.2403 32.7351 33.2802C32.7576 33.2982 32.7803 33.3162 32.8032 33.3341C32.8257 33.3517 32.8484 33.3693 32.8713 33.3867C32.8939 33.4039 32.9165 33.4211 32.9394 33.4382C32.9619 33.4548 32.9847 33.4713 33.0075 33.4878C33.03 33.5041 33.0528 33.5203 33.0756 33.5364C33.0982 33.5523 33.1208 33.5682 33.1437 33.584L33.2118 33.6303C33.2343 33.6454 33.2571 33.6604 33.2799 33.6754L33.348 33.7195C33.3706 33.734 33.3932 33.7484 33.4161 33.7627C33.4386 33.7768 33.4614 33.7907 33.4842 33.8046L33.5524 33.8458C33.575 33.8593 33.5976 33.8727 33.6204 33.886C33.6429 33.8992 33.6657 33.9121 33.6885 33.9251L33.7566 33.9635L33.8247 34.001L33.8929 34.0376C33.9155 34.0496 33.938 34.0617 33.9609 34.0737C33.9834 34.0854 34.0063 34.0969 34.0291 34.1085L34.0971 34.1428L34.1653 34.1765L34.2334 34.2092C34.256 34.2199 34.2786 34.2308 34.3015 34.2415L34.3696 34.2727L34.4377 34.3037L34.5057 34.3336L34.5738 34.3631L34.6419 34.392L34.71 34.4202L34.7781 34.4479L34.8462 34.4749L34.9144 34.5016L34.9824 34.5273C35.0051 34.5359 35.0277 34.5445 35.0506 34.5529L35.1186 34.5776C35.1413 34.5858 35.1639 34.5941 35.1868 34.6022C35.2093 34.6102 35.2322 34.6179 35.2549 34.6258L35.323 34.6493L35.3911 34.672C35.4137 34.6795 35.4362 34.6872 35.4591 34.6946C35.4817 34.702 35.5046 34.709 35.5273 34.7163L35.5954 34.7379L35.6635 34.7587L35.7316 34.7794L35.7997 34.7994L35.8678 34.8191L35.9359 34.8384L36.004 34.8573L36.0721 34.8757L36.1402 34.8937L36.2083 34.9115L36.2764 34.9286L36.3445 34.9457L36.4126 34.9621L36.4807 34.9785L36.5488 34.9941L36.6169 35.0096L36.6851 35.0246L36.7531 35.0394L36.8213 35.0539L36.8893 35.0679L36.9574 35.0818L37.0256 35.0951L37.0936 35.1083L37.1618 35.1211L37.2298 35.1335L37.298 35.1459L37.3661 35.1576L37.4342 35.1693L37.5023 35.1806L37.5704 35.1916L37.6385 35.2025L37.7066 35.2128L37.7747 35.2231L37.8428 35.233L37.9109 35.2426L37.979 35.2521L38.0471 35.2611L38.1152 35.27L38.1833 35.2786L38.2514 35.2869L38.3195 35.2952L38.3876 35.303L38.4557 35.3105L38.5238 35.3181L38.592 35.3251L38.66 35.3321L38.7281 35.3388L38.7962 35.3451L38.8643 35.3515L38.9325 35.3574L39.0005 35.3632L39.0687 35.3689L39.1367 35.3741L39.2048 35.3792L39.273 35.3844L39.3411 35.3889L39.4092 35.3935L39.4773 35.398L39.5454 35.4019L39.6135 35.4058L39.6816 35.4097L39.7497 35.413L39.8178 35.4164L39.8859 35.4197L39.954 35.4225L40.0221 35.4253L40.0902 35.428L40.1583 35.4302L40.2264 35.4325L40.2945 35.4346L40.3627 35.4363L40.4307 35.438L40.4988 35.4397L40.5669 35.4409L40.635 35.442L40.7032 35.4432L40.7712 35.4439L40.8394 35.4445L40.9074 35.4451L40.9755 35.4454L41.0437 35.4455L41.1117 35.4456L41.1799 35.4454L41.2479 35.445L41.3161 35.4446L41.3842 35.4441L41.4523 35.4432L41.5204 35.4423L41.5885 35.4414L41.6566 35.44L41.7247 35.4386L41.7928 35.4372L41.8609 35.4355L41.929 35.4336L41.9971 35.4317L42.0652 35.4297L42.1333 35.4273L42.2014 35.425L42.2695 35.4227L42.3376 35.4199L42.4057 35.4171L42.4738 35.4143L42.5071 35.4129L42.5419 35.4112L42.6101 35.4079L42.6781 35.4043L42.7462 35.4006L42.8143 35.3965L42.8824 35.3924L42.9506 35.3878L43.0186 35.3832L43.0868 35.3782L43.1549 35.3732L43.223 35.3678L43.2911 35.3623L43.3591 35.3565L43.4273 35.3505L43.4954 35.3444L43.5635 35.338L43.6316 35.3315L43.6997 35.3248L43.7678 35.318L43.8359 35.3108L43.904 35.3035L43.9721 35.2961L44.0402 35.2884L44.1083 35.2806L44.1764 35.2726L44.2445 35.2645L44.3126 35.2562L44.3808 35.2477L44.4488 35.2391L44.5169 35.2304L44.585 35.2213L44.6531 35.2122L44.7213 35.203L44.7893 35.1935L44.8575 35.184L44.9255 35.1742L44.9937 35.1644L45.0618 35.1543L45.1298 35.1441L45.198 35.1338L45.266 35.1233L45.3342 35.1127L45.4023 35.1019L45.4704 35.0911L45.5385 35.0801L45.6066 35.0689L45.6747 35.0576L45.7428 35.0461L45.8109 35.0346L45.879 35.0228L45.9471 35.011L46.0152 34.999L46.0833 34.9868L46.1514 34.9746L46.2195 34.9622L46.2876 34.9497L46.3557 34.937L46.4238 34.9242L46.4919 34.9113L46.56 34.8983L46.6282 34.8851L46.6962 34.8718L46.7644 34.8583L46.8324 34.8448L46.9005 34.8311L46.9687 34.8172L47.0367 34.8031L47.1049 34.789L47.173 34.7748L47.2411 34.7604L47.3092 34.7459L47.3773 34.7312L47.4454 34.7163L47.5135 34.7013L47.5816 34.6862L47.6497 34.6709L47.7178 34.6554L47.7859 34.6397L47.854 34.6238L47.9221 34.6078L47.9902 34.5915L48.058 34.5749V31.6056L47.9902 31.6391L47.9221 31.6725L47.854 31.7056L47.7859 31.7383L47.7178 31.7709L47.6497 31.8031L47.5816 31.8349L47.5135 31.8664L47.4454 31.8976L47.3773 31.9285L47.3092 31.959L47.2411 31.9892L47.173 32.0189L47.1049 32.0484L47.0367 32.0775L46.9687 32.1063L46.9005 32.1347L46.8324 32.1628L46.7644 32.1904L46.6962 32.2177L46.6282 32.2446L46.56 32.2712L46.4919 32.2974L46.4238 32.3232L46.3557 32.3486L46.2876 32.3736L46.2195 32.3983L46.1514 32.4226L46.0833 32.4465L46.0152 32.47L45.9471 32.4931L45.879 32.5158L45.8109 32.5382L45.7428 32.5602L45.6747 32.5818L45.6066 32.6031L45.5385 32.6238L45.4704 32.6443L45.4023 32.6644L45.3342 32.684L45.266 32.7033L45.198 32.7222L45.1298 32.7407L45.0618 32.7588L44.9937 32.7766L44.9255 32.7939L44.8575 32.8109L44.7893 32.8274L44.7213 32.8437L44.6531 32.8596L44.585 32.8749L44.5169 32.8901L44.4488 32.9048L44.3808 32.9191L44.3126 32.933L44.2445 32.9465L44.1764 32.9598L44.1083 32.9725L44.0402 32.9849L43.9721 32.997L43.904 33.0088L43.8359 33.02L43.7678 33.0309L43.6997 33.0416L43.6316 33.0518L43.5635 33.0616L43.4954 33.0711L43.4273 33.0802L43.3591 33.0889L43.2911 33.0974L43.223 33.1055L43.1549 33.1131L43.0868 33.1204L43.0186 33.1274L42.9506 33.1339L42.8824 33.1402L42.8143 33.1462L42.7462 33.1517L42.7049 33.1549L42.6781 33.1567L42.6101 33.1613L42.5419 33.1658L42.4738 33.1694L42.4057 33.1728L42.3376 33.176L42.2695 33.1782L42.2014 33.1804L42.1333 33.1818L42.0652 33.1828L41.9971 33.1837C41.9743 33.1838 41.9517 33.1835 41.929 33.1835L41.8609 33.1832L41.7928 33.1822L41.7247 33.1808L41.6566 33.179C41.6337 33.1783 41.6112 33.1772 41.5885 33.1763C41.5658 33.1754 41.543 33.1746 41.5204 33.1735L41.4523 33.1698L41.3842 33.1657L41.3161 33.161L41.2479 33.1557C41.2253 33.1538 41.2024 33.1522 41.1799 33.1502C41.157 33.1481 41.1345 33.1456 41.1117 33.1434L41.0437 33.1366L40.9755 33.1287L40.9074 33.1205L40.8394 33.1116L40.7712 33.102C40.7485 33.0987 40.7257 33.0955 40.7032 33.0919C40.6803 33.0884 40.6577 33.0845 40.635 33.0807C40.6123 33.077 40.5894 33.0735 40.5669 33.0695C40.544 33.0655 40.5215 33.061 40.4988 33.0568C40.4761 33.0526 40.4532 33.0486 40.4307 33.0442C40.4078 33.0397 40.3854 33.0348 40.3627 33.03C40.3399 33.0253 40.3171 33.0208 40.2945 33.0158C40.2717 33.0108 40.2491 33.0055 40.2264 33.0003L40.1583 32.9844C40.1355 32.9789 40.1128 32.973 40.0902 32.9673C40.0674 32.9615 40.0447 32.9558 40.0221 32.9498C39.9993 32.9437 39.9766 32.9374 39.954 32.9311C39.9312 32.9248 39.9084 32.9184 39.8859 32.9118C39.863 32.9051 39.8404 32.8982 39.8178 32.8913C39.795 32.8843 39.7723 32.8774 39.7497 32.8702C39.7269 32.8629 39.7042 32.8553 39.6816 32.8478C39.6589 32.8402 39.636 32.8327 39.6135 32.8249C39.5906 32.8169 39.5681 32.8087 39.5454 32.8005C39.5227 32.7922 39.4998 32.7841 39.4773 32.7756C39.4544 32.767 39.4318 32.758 39.4092 32.7491C39.3864 32.7401 39.3636 32.7313 39.3411 32.7222C39.3181 32.7128 39.2956 32.7029 39.273 32.6933C39.2502 32.6836 39.2273 32.674 39.2048 32.664C39.1819 32.6538 39.1594 32.6433 39.1367 32.6328C39.114 32.6223 39.0912 32.6117 39.0687 32.6009C39.0458 32.5899 39.0231 32.5787 39.0005 32.5674C38.9777 32.556 38.955 32.5444 38.9325 32.5326C38.9097 32.5208 38.8868 32.5091 38.8643 32.4969C38.8414 32.4845 38.8189 32.4717 38.7962 32.4589C38.7735 32.446 38.7506 32.4332 38.7281 32.42C38.7052 32.4066 38.6826 32.3929 38.66 32.3792C38.6371 32.3653 38.6145 32.351 38.592 32.3368C38.5692 32.3223 38.5462 32.308 38.5238 32.2932C38.5008 32.278 38.4784 32.2624 38.4557 32.2468C38.4328 32.2311 38.4101 32.2151 38.3876 32.199C38.3648 32.1827 38.3419 32.1663 38.3195 32.1496C38.2965 32.1324 38.274 32.1149 38.2514 32.0973C38.2285 32.0794 38.2058 32.0615 38.1833 32.0432C38.1605 32.0246 38.1376 32.0061 38.1152 31.9871C38.0922 31.9676 38.0696 31.9476 38.0471 31.9276C38.0241 31.9073 38.0015 31.8866 37.979 31.8657C37.9561 31.8444 37.9333 31.823 37.9109 31.8012C37.888 31.779 37.8651 31.7568 37.8428 31.734C37.8197 31.7106 37.7971 31.6866 37.7747 31.6625C37.7516 31.6379 37.729 31.6129 37.7066 31.5877C37.6835 31.5617 37.6608 31.5355 37.6385 31.509C37.6155 31.4817 37.5927 31.4542 37.5704 31.4262C37.5473 31.3974 37.5245 31.3682 37.5023 31.3386C37.4792 31.3081 37.4564 31.2773 37.4342 31.246C37.4111 31.2135 37.3883 31.1806 37.3661 31.1473C37.3429 31.1126 37.3202 31.0774 37.298 31.0419C37.2747 31.0046 37.252 30.9668 37.2298 30.9287C37.2065 30.8885 37.1839 30.8478 37.1618 30.8066C37.1383 30.763 37.1157 30.7187 37.0936 30.674C37.0702 30.6264 37.0474 30.5781 37.0256 30.5293C37.002 30.4768 36.9791 30.4238 36.9574 30.3699C36.9334 30.3103 36.9111 30.2495 36.8893 30.1882C36.8653 30.1202 36.8425 30.0514 36.8213 29.9813C36.7967 29.9001 36.7739 29.8174 36.7531 29.7334C36.7273 29.6289 36.7048 29.5222 36.6851 29.4135C36.6557 29.2523 36.6329 29.0867 36.6169 28.9165C36.5986 28.72 36.5892 28.5176 36.5892 28.3093C36.5892 28.101 36.5986 27.8984 36.6169 27.7018C36.6329 27.5316 36.6557 27.3658 36.6851 27.2046C36.7048 27.0959 36.7273 26.9889 36.7531 26.8844C36.7739 26.8004 36.7967 26.7178 36.8213 26.6365C36.8425 26.5664 36.8653 26.4974 36.8893 26.4294C36.9111 26.3681 36.9334 26.3073 36.9574 26.2477C36.9791 26.1937 37.002 26.1407 37.0256 26.0881C37.0474 26.0393 37.0702 25.991 37.0936 25.9434C37.1157 25.8987 37.1383 25.8544 37.1618 25.8107C37.1839 25.7696 37.2065 25.7288 37.2298 25.6886C37.252 25.6504 37.2747 25.6126 37.298 25.5753C37.3202 25.5397 37.3429 25.5046 37.3661 25.4698C37.3883 25.4365 37.4111 25.4037 37.4342 25.3711C37.4564 25.3398 37.4792 25.309 37.5023 25.2784C37.5245 25.2489 37.5473 25.2197 37.5704 25.1908C37.5927 25.1629 37.6155 25.1353 37.6385 25.108C37.6608 25.0815 37.6835 25.0552 37.7066 25.0293C37.729 25.0041 37.7516 24.979 37.7747 24.9543C37.7971 24.9304 37.8197 24.9063 37.8428 24.8829C37.8651 24.8601 37.888 24.8378 37.9109 24.8156C37.9333 24.7938 37.9561 24.7724 37.979 24.7511C38.0015 24.7303 38.0241 24.7095 38.0471 24.6891C38.0696 24.6692 38.0922 24.6492 38.1152 24.6297C38.1376 24.6107 38.1605 24.5921 38.1833 24.5736C38.2058 24.5553 38.2285 24.5373 38.2514 24.5194C38.274 24.5018 38.2965 24.4842 38.3195 24.467C38.3419 24.4503 38.3648 24.434 38.3876 24.4176C38.4101 24.4015 38.4328 24.3856 38.4557 24.3698C38.4784 24.3543 38.5008 24.3386 38.5238 24.3235C38.5462 24.3086 38.5692 24.2943 38.592 24.2798C38.6145 24.2655 38.6371 24.2513 38.66 24.2374C38.6826 24.2236 38.7052 24.21 38.7281 24.1965C38.7506 24.1833 38.7735 24.1705 38.7962 24.1577C38.8189 24.1449 38.8414 24.1321 38.8643 24.1197C38.8868 24.1075 38.9097 24.0958 38.9325 24.0839C38.955 24.0722 38.9777 24.0605 39.0005 24.0491C39.0231 24.0378 39.0458 24.0266 39.0687 24.0156C39.0912 24.0048 39.114 23.9942 39.1367 23.9837C39.1594 23.9732 39.1819 23.9627 39.2048 23.9525C39.2273 23.9425 39.2502 23.9329 39.273 23.9232C39.2956 23.9135 39.3181 23.9037 39.3411 23.8943C39.3636 23.8851 39.3864 23.8763 39.4092 23.8674C39.4318 23.8584 39.4544 23.8495 39.4773 23.8408C39.4998 23.8323 39.5227 23.8242 39.5454 23.8159C39.5681 23.8077 39.5906 23.7995 39.6135 23.7915C39.636 23.7837 39.6589 23.7761 39.6816 23.7685C39.7042 23.761 39.7269 23.7535 39.7497 23.7462C39.7723 23.739 39.795 23.732 39.8178 23.7251C39.8404 23.7182 39.863 23.7113 39.8859 23.7046L39.954 23.6853C39.9766 23.679 39.9993 23.6726 40.0221 23.6666C40.0447 23.6606 40.0674 23.6548 40.0902 23.649C40.1128 23.6433 40.1355 23.6375 40.1583 23.632L40.2264 23.6161C40.2491 23.6109 40.2717 23.6055 40.2945 23.6005C40.3171 23.5956 40.3399 23.591 40.3627 23.5863C40.3854 23.5816 40.4078 23.5766 40.4307 23.5721C40.4532 23.5677 40.4761 23.5637 40.4988 23.5595C40.5215 23.5553 40.544 23.5508 40.5669 23.5468C40.5894 23.5428 40.6123 23.5393 40.635 23.5356C40.6577 23.5318 40.6803 23.5279 40.7032 23.5244L40.7712 23.5143L40.8394 23.5047L40.9074 23.4958L40.9755 23.4876L41.0437 23.4797L41.1117 23.4729C41.1345 23.4706 41.157 23.4682 41.1799 23.4661C41.2024 23.464 41.2253 23.4625 41.2479 23.4606L41.3161 23.4552L41.3842 23.4505L41.4523 23.4465L41.5204 23.4427C41.543 23.4416 41.5658 23.4409 41.5885 23.44C41.6112 23.4391 41.6337 23.438 41.6566 23.4372L41.7247 23.4355L41.7928 23.434L41.8609 23.433L41.929 23.4328C41.9517 23.4327 41.9743 23.4325 41.9971 23.4326L42.0652 23.4334L42.1333 23.4344L42.2014 23.4359L42.2695 23.4381L42.3376 23.4403L42.4057 23.4434L42.4738 23.4468L42.5419 23.4505L42.6101 23.455L42.6781 23.4595L42.7049 23.4613L42.7462 23.4646L42.8143 23.47L42.8824 23.4758L42.9506 23.482L43.0186 23.4885L43.0868 23.4954L43.1549 23.5026L43.223 23.5101L43.2911 23.518L43.3591 23.5264L43.4273 23.5349L43.4954 23.5439L43.5635 23.5534L43.6316 23.563L43.6997 23.5731L43.7678 23.5836L43.8359 23.5944L43.904 23.6055L43.9721 23.6172L44.0402 23.6291L44.1083 23.6414L44.1764 23.654L44.2445 23.6671L44.3126 23.6806L44.3808 23.6944L44.4488 23.7086L44.5169 23.7232L44.585 23.7382L44.6531 23.7534L44.7213 23.7692L44.7893 23.7853L44.8575 23.8018L44.9255 23.8187L44.9937 23.836L45.0618 23.8537L45.1298 23.8717L45.198 23.8902L45.266 23.909L45.3342 23.9282L45.4023 23.9479L45.4704 23.9679L45.5385 23.9884L45.6066 24.0092L45.6747 24.0303L45.7428 24.052L45.8109 24.074L45.879 24.0964L45.9471 24.1192L46.0152 24.1423L46.0833 24.1658L46.1514 24.1899L46.2195 24.2142L46.2876 24.2389L46.3557 24.2641L46.4238 24.2896L46.4919 24.3156L46.56 24.3419L46.6282 24.3685L46.6962 24.3956L46.7644 24.4231L46.8324 24.4509L46.9005 24.4792L46.9687 24.5077L47.0367 24.5367L47.1049 24.566L47.173 24.5957L47.2411 24.6257L47.3092 24.6562L47.3773 24.6869L47.4454 24.718L47.5135 24.7495L47.5816 24.7813L47.6497 24.8134L47.7178 24.8459L47.7859 24.8787L47.854 24.9118L47.9221 24.9452L47.9902 24.979L48.058 25.0128V22.0414L47.9902 22.0248L47.9221 22.0085L47.854 21.9924L47.7859 21.9765L47.7178 21.9609L47.6497 21.9454L47.5816 21.9301L47.5135 21.9149L47.4454 21.9L47.3773 21.8851L47.3092 21.8704L47.2411 21.856L47.173 21.8415L47.1049 21.8273L47.0367 21.8132L46.9687 21.7992L46.9005 21.7853L46.8324 21.7716L46.7644 21.758L46.6962 21.7446L46.6282 21.7314L46.56 21.7181L46.4919 21.7051L46.4238 21.6922L46.3557 21.6794L46.2876 21.6668L46.2195 21.6543L46.1514 21.6419L46.0833 21.6297L46.0152 21.6175L45.9471 21.6056L45.879 21.5937L45.8109 21.582L45.7428 21.5705L45.6747 21.559L45.6066 21.5477L45.5385 21.5366L45.4704 21.5256L45.4023 21.5147L45.3342 21.5039L45.266 21.4934L45.198 21.4829L45.1298 21.4726L45.0618 21.4624L44.9937 21.4524L44.9255 21.4426L44.8575 21.4328L44.7893 21.4233L44.7213 21.4139L44.6531 21.4047L44.585 21.3956L44.5169 21.3866L44.4488 21.3779L44.3808 21.3692L44.3126 21.3607L44.2445 21.3524L44.1764 21.3443L44.1083 21.3364L44.0402 21.3286L43.9721 21.321L43.904 21.3136L43.8359 21.3064L43.7678 21.2993L43.6997 21.2925L43.6316 21.2857L43.5635 21.2792L43.4954 21.2729L43.4273 21.2668L43.3591 21.2608L43.2911 21.2551L43.223 21.2496L43.1549 21.2443L43.0868 21.2393L43.0186 21.2343L42.9506 21.2297L42.8824 21.2252L42.8143 21.2211L42.7462 21.217L42.6781 21.2133L42.6101 21.2098L42.5419 21.2065L42.5071 21.2049L42.4738 21.2035L42.4057 21.2007L42.3376 21.1979L42.2695 21.1951L42.2014 21.1927L42.1333 21.1904L42.0652 21.1881L41.9971 21.186L41.929 21.1841L41.8609 21.1823L41.7928 21.1805L41.7247 21.1791L41.6566 21.1778L41.5885 21.1764L41.5204 21.1755L41.4523 21.1746L41.3842 21.1737L41.3161 21.1731L41.2479 21.1728L41.1799 21.1724L41.1117 21.1722L41.0437 21.1723L40.9755 21.1725L40.9074 21.1727L40.8394 21.1733L40.7712 21.174L40.7032 21.1746L40.635 21.1758L40.5669 21.177L40.4988 21.1781L40.4307 21.1798L40.3627 21.1815L40.2945 21.1832L40.2264 21.1854L40.1583 21.1876L40.0902 21.1899L40.0221 21.1926L39.954 21.1954L39.8859 21.1982L39.8178 21.2015L39.7497 21.2049L39.6816 21.2082L39.6135 21.212L39.5454 21.216L39.4773 21.2199L39.4092 21.2244L39.3411 21.2289L39.273 21.2335L39.2048 21.2387L39.1367 21.2438L39.0687 21.2491L39.0005 21.2548L38.9325 21.2605L38.8643 21.2665L38.7962 21.2728L38.7281 21.2792L38.66 21.2859L38.592 21.2929L38.5238 21.2999L38.4557 21.3075L38.3876 21.315L38.3195 21.3228L38.2514 21.3311L38.1833 21.3393L38.1152 21.3481L38.0471 21.357L37.979 21.3659L37.9109 21.3755L37.8428 21.3851L37.7747 21.3949L37.7066 21.4053L37.6385 21.4155L37.5704 21.4264L37.5023 21.4375L37.4342 21.4488L37.3661 21.4605L37.298 21.4722L37.2298 21.4846L37.1618 21.4971L37.0936 21.5099L37.0256 21.5231L36.9574 21.5363L36.8893 21.5503L36.8213 21.5643L36.7531 21.5788L36.6851 21.5936L36.6169 21.6086L36.5488 21.6242L36.4807 21.6398L36.4126 21.6562L36.3445 21.6726L36.2764 21.6896L36.2083 21.7068L36.1402 21.7246L36.0721 21.7426L36.004 21.7611L35.9359 21.78L35.8678 21.7992L35.7997 21.819L35.7316 21.8389L35.6635 21.8597L35.5954 21.8805L35.5273 21.9022C35.5046 21.9094 35.4817 21.9165 35.4591 21.9238L35.3911 21.9465C35.3684 21.954 35.3455 21.9614 35.323 21.9691L35.2549 21.9927L35.1868 22.0163C35.1639 22.0244 35.1413 22.0327 35.1186 22.0409C35.0959 22.0491 35.0731 22.0572 35.0506 22.0656L34.9824 22.0912C34.9597 22.0998 34.9369 22.1083 34.9144 22.117L34.8462 22.1437L34.7781 22.1706L34.71 22.1984L34.6419 22.2266L34.5738 22.2555L34.5057 22.285L34.4377 22.315L34.3696 22.346L34.3015 22.3772C34.2786 22.3878 34.256 22.3987 34.2334 22.4095L34.1653 22.4423L34.0971 22.4759L34.0291 22.5103C34.0063 22.5219 33.9834 22.5334 33.9609 22.5451C33.938 22.557 33.9155 22.5692 33.8929 22.5812L33.8247 22.6178L33.7566 22.6553C33.7337 22.668 33.7111 22.6809 33.6885 22.6938C33.6657 22.7068 33.6429 22.7197 33.6204 22.7329C33.5976 22.7462 33.575 22.7596 33.5524 22.7731C33.5295 22.7868 33.5068 22.8005 33.4842 22.8143C33.4614 22.8283 33.4386 22.8422 33.4161 22.8562C33.3932 22.8705 33.3706 22.885 33.348 22.8995L33.2799 22.9437C33.2571 22.9586 33.2343 22.9735 33.2118 22.9887L33.1437 23.0351C33.1208 23.0508 33.0982 23.0667 33.0756 23.0826C33.0528 23.0987 33.03 23.115 33.0075 23.1313C32.9847 23.1478 32.9619 23.1643 32.9394 23.181C32.9165 23.198 32.8939 23.2152 32.8713 23.2324C32.8484 23.2499 32.8257 23.2675 32.8032 23.2851C32.7803 23.303 32.7576 23.3209 32.7351 23.339V23.339Z" fill="#E10238"/>
</svg>
