<?xml version="1.0" encoding="UTF-8"?>
<svg xmlns="http://www.w3.org/2000/svg" xmlns:xlink="http://www.w3.org/1999/xlink" width="595.275574pt" height="841.889771pt" viewBox="0 0 595.275574 841.889771" version="1.1">
<g id="surface1">
<path style=" stroke:none;fill-rule:nonzero;fill:rgb(63%,63%,63%);fill-opacity:1;" d="M 65.765625 350.136719 C 63.636719 321.648438 49.519531 336.273438 74.804688 282.332031 C 69.476562 268.640625 77.414062 257.273438 99.070312 235.617188 C 107.320312 227.367188 94.734375 204.519531 121.890625 199.898438 C 138.8125 197.035156 117.609375 164.890625 148.421875 162.652344 C 152.617188 162.339844 177.535156 158.230469 177.84375 157.097656 C 182.269531 142.042969 189.242188 123.476562 206.078125 130.421875 C 220.933594 136.542969 201.457031 131.015625 212.285156 119.027344 C 228.1875 101.453125 228.472656 120.953125 239.640625 106.328125 C 246.472656 110.125 272.238281 117.667969 283.039062 117.667969 C 297.242188 117.667969 302.398438 104.316406 305.914062 106.328125 C 313.878906 110.890625 333.695312 117.015625 340.441406 120.671875 C 356.769531 129.515625 371.394531 122.625 393.335938 130.507812 C 420.007812 140.089844 403.824219 157.039062 448.242188 162.511719 C 468.339844 164.976562 462.386719 185.046875 471.742188 188.871094 C 476.078125 190.660156 505.445312 206.191406 504.707031 235.191406 C 504.339844 249.789062 541.558594 277.085938 523.332031 290.890625 C 518.316406 294.71875 539.972656 300.105469 529.539062 319.578125 C 526.902344 324.566406 534.472656 345.261719 529.992188 352.203125 C 521.433594 351.242188 512.730469 353.707031 502.382812 351.609375 C 500.429688 340.242188 504.113281 299.453125 498.160156 284.996094 C 485.320312 253.898438 434.550781 189.496094 422.304688 183.203125 C 381.742188 162.3125 370.203125 144.027344 291.910156 147.375 C 267.730469 148.394531 257.074219 144.707031 219.402344 160.128906 C 169.710938 180.453125 155.90625 199.957031 128.464844 230.457031 C 101.507812 260.390625 94.875 288.058594 94.535156 305.601562 C 94.507812 306.851562 92.097656 339.308594 92.097656 350.617188 C 81.269531 349.539062 65.792969 350.191406 65.765625 350.136719 Z M 65.765625 350.136719 "/>
<path style=" stroke:none;fill-rule:nonzero;fill:rgb(63%,63%,63%);fill-opacity:1;" d="M 273.175781 347.753906 C 275.867188 316.6875 320.429688 311.667969 330.347656 351.636719 C 330.859375 353.734375 331.964844 355.605469 330.859375 357.25 C 329.242188 357.535156 326.039062 351.609375 325.019531 350.816406 C 325.730469 351.15625 327.457031 352.828125 328.875 354.21875 C 315.976562 321.875 282.386719 325.390625 280.460938 347.753906 C 280.460938 349.765625 278.84375 351.382812 276.832031 351.382812 C 274.820312 351.382812 273.175781 349.765625 273.175781 347.753906 Z M 325.019531 350.816406 C 324.90625 350.703125 324.820312 350.675781 324.765625 350.757812 C 324.792969 350.730469 324.90625 350.730469 325.019531 350.816406 Z M 324.765625 350.757812 C 324.738281 350.789062 324.738281 350.816406 324.738281 350.84375 C 324.738281 350.816406 324.738281 350.789062 324.765625 350.757812 Z M 324.765625 350.757812 "/>
<path style=" stroke:none;fill-rule:nonzero;fill:rgb(63%,63%,63%);fill-opacity:1;" d="M 247.605469 349.683594 C 247.351562 350.957031 247.066406 352.0625 246.726562 353.027344 L 246.726562 353.054688 L 246.726562 353.027344 C 244.574219 359.09375 240.71875 358.722656 239.894531 351.324219 L 239.894531 351.269531 C 239.128906 344.269531 241.085938 330.945312 249.816406 310.820312 C 255.828125 296.902344 265.011719 296.816406 278.445312 291.882812 C 301.40625 283.40625 320.542969 290.324219 339.5625 303.308594 C 348.660156 309.515625 355.777344 338.230469 358.214844 356.683594 C 358.300781 355.097656 358.382812 353.90625 358.441406 353.507812 C 358.382812 354.726562 358.382812 356.257812 358.382812 357.902344 C 359.066406 363.542969 359.292969 368.105469 358.953125 370.574219 L 357.960938 370.742188 C 357.84375 370.375 357.789062 369.4375 357.789062 368.164062 C 356.625 355.152344 346.933594 313.964844 336.558594 307.898438 C 303.675781 288.707031 297.894531 294.972656 263.765625 304.328125 C 256.195312 306.398438 249.421875 334.347656 247.351562 347.640625 C 247.632812 348.265625 247.71875 348.972656 247.605469 349.683594 Z M 247.605469 349.683594 "/>
<path style=" stroke:none;fill-rule:nonzero;fill:rgb(63%,63%,63%);fill-opacity:1;" d="M 195.730469 387.863281 C 194.542969 362.976562 192.527344 320.824219 207.15625 299.960938 C 216.285156 286.921875 237.714844 263.054688 250.78125 255.488281 C 264.671875 247.40625 309.0625 237.429688 324.3125 243.097656 C 349.085938 252.285156 386.789062 283.378906 395.460938 307.757812 C 401.074219 323.546875 402.066406 373.605469 401.214844 392.371094 L 401.214844 392.796875 L 400.28125 393.164062 C 400.167969 393.050781 400.109375 392.738281 400.023438 392.257812 L 399.941406 392.285156 L 399.941406 391.464844 C 399.769531 389.480469 399.742188 386.050781 399.796875 381.941406 C 399.117188 359.941406 396.339844 321.476562 391.804688 309.683594 C 382.707031 286.128906 345.996094 258.492188 321.84375 249.960938 C 308.550781 245.253906 266.769531 254.609375 254.4375 261.78125 C 241.992188 268.980469 221.640625 291.96875 213.050781 304.242188 C 199.925781 322.980469 202.054688 363.203125 202.675781 385.683594 C 203.300781 387.609375 202.222656 389.648438 200.296875 390.246094 C 198.367188 390.839844 196.328125 389.792969 195.730469 387.863281 Z M 401.214844 392.371094 L 401.214844 392.398438 Z M 401.214844 392.371094 "/>
<path style=" stroke:none;fill-rule:nonzero;fill:rgb(63%,63%,63%);fill-opacity:1;" d="M 170.816406 387.667969 C 169.339844 373.378906 165.828125 312.632812 178.582031 299.339844 C 191.933594 285.449219 187.683594 282.160156 199.277344 264.839844 C 216.964844 238.394531 219.175781 236.351562 252 224.757812 C 316.402344 202.023438 345.683594 220.59375 396.339844 256.960938 C 415.246094 270.511719 412.015625 266.484375 418.480469 287.519531 C 425.027344 308.75 442.375 371.28125 431.574219 392.542969 C 441.015625 370.886719 420.207031 310.195312 412.46875 289.53125 C 405.296875 270.398438 411.082031 276.378906 391.578125 264.074219 C 342.425781 233.035156 315.496094 218.550781 255.628906 235.757812 C 223.710938 244.941406 223.257812 245.933594 205.058594 269.886719 C 192.273438 286.695312 197.941406 288.625 181.925781 303.390625 C 170.929688 313.511719 170.304688 375.960938 170.816406 387.667969 Z M 170.816406 387.667969 "/>
<path style=" stroke:none;fill-rule:nonzero;fill:rgb(63%,63%,63%);fill-opacity:1;" d="M 139.832031 355.863281 C 150.207031 307.046875 163.558594 261.582031 203.753906 229.097656 C 217.417969 218.039062 255.144531 211.292969 274.59375 203.894531 C 313.398438 189.15625 311.273438 199.925781 347.273438 212.089844 C 391.097656 226.941406 397.898438 242.332031 429.25 273.796875 C 445.71875 290.324219 443.308594 293.441406 447.390625 318.671875 C 448.15625 323.261719 457.992188 407.140625 451.699219 392.996094 C 451.246094 391.976562 449.234375 369.296875 449.40625 368.25 L 449.347656 368.25 C 449.375 368.21875 449.375 368.21875 449.375 368.191406 C 450 368.050781 450.878906 373.664062 451.671875 379.503906 C 450.625 360.113281 446.257812 335.367188 443.308594 319.351562 C 438.660156 294.152344 441.78125 293.015625 425.679688 277.398438 C 394.46875 247.125 388.601562 232.609375 346.109375 218.609375 C 310.394531 206.816406 313.484375 196.722656 277.539062 210.8125 C 259.3125 217.984375 220.734375 225.863281 208.96875 235.585938 C 170.816406 267.164062 159.277344 309.96875 149.5 356.710938 C 149.273438 359.375 146.890625 361.359375 144.226562 361.105469 C 141.5625 360.878906 139.578125 358.527344 139.832031 355.863281 Z M 139.832031 355.863281 "/>
<path style=" stroke:none;fill-rule:nonzero;fill:rgb(63%,63%,63%);fill-opacity:1;" d="M 121.605469 392.597656 C 127.558594 344.496094 119.28125 339.421875 135.523438 290.722656 C 137.394531 285.082031 165.289062 236.15625 167.214844 233.714844 C 172.96875 226.402344 185.414062 219.488281 193.945312 211.152344 C 216.652344 188.957031 215.433594 195.675781 243.75 184.535156 C 289.8125 166.367188 308.75 171.667969 355.917969 183.34375 C 383.753906 190.203125 384.234375 194.484375 405.835938 207.976562 C 431.773438 224.191406 459.582031 264.160156 467.488281 293.359375 C 470.636719 305.007812 480.898438 402.832031 474.578125 399.542969 C 474.121094 399.316406 473.894531 377.859375 473.8125 366.917969 C 473.300781 360.285156 472.847656 355.152344 472.820312 354.839844 C 467.773438 295.457031 464.484375 276.265625 421.878906 231.5625 C 403.652344 212.457031 402.09375 218.523438 387.15625 206.730469 C 368.617188 192.132812 335.507812 194.03125 311.640625 188.277344 L 300.5 185.015625 C 286.894531 182.4375 259.597656 188.503906 246.871094 192.785156 C 218.777344 202.167969 220.335938 195.761719 198.285156 215.6875 C 190.347656 222.832031 176.03125 230.910156 171.15625 236.722656 C 169.03125 239.242188 140.257812 286.042969 138.21875 291.570312 C 120.613281 339.589844 128.777344 344.636719 121.605469 392.597656 Z M 474.265625 373.605469 C 474.578125 381.457031 474.546875 380.097656 475.085938 393.84375 C 475.171875 388.886719 474.773438 381.003906 474.265625 373.605469 Z M 474.265625 373.605469 "/>
<path style=" stroke:none;fill-rule:nonzero;fill:rgb(63%,63%,63%);fill-opacity:1;" d="M 101.847656 403.3125 C 93.375 365.839844 104.9375 292.847656 122.285156 258.71875 C 123.421875 256.449219 144.964844 221.386719 145.8125 220.335938 C 169.796875 191.195312 219.882812 156.613281 257.300781 154.121094 C 285.648438 152.25 292.734375 159.363281 316.429688 162 C 350.136719 165.796875 356.597656 166.675781 389.679688 181.925781 C 417.628906 194.796875 397.472656 187.710938 412.269531 190.148438 C 433.957031 193.71875 449.746094 237.289062 460.175781 253.191406 C 484.042969 289.617188 478.542969 270.933594 492.972656 318.5 C 494.21875 322.582031 507.375 362.382812 497.480469 366.945312 C 503.148438 356.96875 491.414062 327.96875 488.578125 320.003906 C 471.601562 272.496094 479.59375 293.699219 454.335938 257.585938 C 445.804688 245.367188 425.847656 198.398438 407.621094 199.472656 C 401.046875 199.871094 372.273438 185.554688 364.789062 182.917969 C 335.59375 172.6875 342.113281 175.863281 315.183594 173.367188 C 293.414062 171.355469 282.953125 164.636719 257.894531 165.882812 C 236.976562 166.902344 199.390625 184.847656 183.941406 197.632812 C 153.523438 222.746094 155.878906 222.859375 136.148438 252.199219 C 111.941406 288.253906 99.949219 360.027344 101.847656 403.3125 Z M 101.847656 403.3125 "/>
<path style=" stroke:none;fill-rule:nonzero;fill:rgb(63%,63%,63%);fill-opacity:1;" d="M 222.492188 378.140625 C 226.175781 302.371094 215.546875 288.226562 297.976562 269.972656 C 341.6875 260.277344 358.441406 282.472656 375.648438 321.875 C 386.757812 347.328125 383.953125 360.398438 380.382812 386.984375 L 377.09375 352.742188 C 373.917969 331.597656 351.609375 288.625 329.667969 281.535156 C 316.175781 277.171875 254.324219 288.707031 242.023438 302.96875 C 227.621094 319.691406 231.875 352.402344 222.492188 378.140625 Z M 222.492188 378.140625 "/>
<path style=" stroke:none;fill-rule:nonzero;fill:rgb(63%,63%,63%);fill-opacity:1;" d="M 262.402344 365.699219 C 247.804688 358.414062 259.398438 290.464844 319.4375 313.597656 C 335.367188 319.71875 347.925781 337.863281 340.042969 353.734375 C 339.960938 353.878906 339.816406 354.246094 339.617188 354.300781 L 339.5625 354.273438 C 339.5625 354.21875 339.535156 354.21875 339.589844 354.1875 C 342.425781 335.878906 336.472656 322.753906 318.414062 316.402344 C 266.285156 298.148438 249.050781 350.078125 262.402344 365.699219 Z M 339.589844 354.1875 C 339.617188 354.21875 339.617188 354.21875 339.648438 354.21875 C 339.617188 354.1875 339.617188 354.1875 339.589844 354.1875 Z M 339.589844 354.1875 "/>
<path style=" stroke:none;fill-rule:nonzero;fill:rgb(63%,63%,63%);fill-opacity:1;" d="M 127.21875 216.140625 C 117.042969 220.675781 153.097656 212.257812 168.859375 220.136719 C 186.886719 229.152344 198.738281 251.066406 214.753906 251.066406 C 215.035156 251.066406 186.71875 228.925781 176.230469 217.359375 C 162.511719 202.222656 157.632812 193.691406 152.191406 193.464844 C 142.074219 193.011719 140.570312 210.21875 127.21875 216.140625 Z M 127.21875 216.140625 "/>
<path style=" stroke:none;fill-rule:nonzero;fill:rgb(63%,63%,63%);fill-opacity:1;" d="M 438.40625 186.746094 C 441.183594 192.699219 391.945312 237.203125 393.929688 234.738281 C 396.398438 231.648438 409.691406 229.039062 421.992188 220.789062 C 437.1875 210.613281 451.617188 194.796875 451.277344 194.597656 C 440.730469 188.417969 451.617188 188.390625 438.40625 186.746094 Z M 438.40625 186.746094 "/>
<path style=" stroke:none;fill-rule:nonzero;fill:rgb(55%,55%,55%);fill-opacity:1;" d="M 24.378906 349.457031 L 567.242188 349.457031 L 567.242188 488.578125 L 24.378906 488.578125 Z M 24.378906 349.457031 "/>
<path style=" stroke:none;fill-rule:nonzero;fill:rgb(100%,100%,100%);fill-opacity:1;" d="M 93.089844 452.523438 C 89.347656 452.863281 86.089844 453.683594 83.339844 454.933594 C 82.089844 455.613281 81.46875 456.292969 81.46875 456.972656 C 81.46875 457.570312 81.695312 458.136719 82.148438 458.703125 L 85.40625 463.664062 C 86.769531 465.960938 88.527344 468.679688 90.707031 471.882812 C 91.84375 473.472656 93.261719 474.546875 94.988281 475.058594 C 96.691406 475.570312 98.871094 475.765625 101.480469 475.652344 L 91.046875 457.851562 C 96.972656 456.578125 102.953125 455.667969 108.933594 455.101562 C 114.917969 454.535156 122.371094 453.96875 131.273438 453.375 C 139.691406 452.917969 146.097656 452.464844 150.433594 452.011719 C 150.320312 453.515625 150.007812 454.847656 149.554688 456.039062 C 149.101562 457.226562 148.820312 458.136719 148.707031 458.703125 C 148.480469 459.609375 148.167969 460.574219 147.769531 461.621094 C 147.375 462.640625 147.003906 463.777344 146.664062 465.023438 C 146.550781 465.25 146.496094 465.589844 146.496094 466.074219 C 146.496094 466.640625 146.691406 467.066406 147.089844 467.347656 C 147.488281 467.632812 147.96875 467.859375 148.535156 468.027344 C 149.101562 468.199219 149.554688 468.398438 149.894531 468.625 C 150.605469 468.964844 151.226562 469.132812 151.796875 469.132812 C 152.929688 469.132812 153.609375 468.566406 153.835938 467.433594 C 156.585938 460.007812 158.34375 454.933594 159.136719 452.183594 C 159.589844 450.480469 158.625 449.007812 156.246094 447.816406 C 153.835938 446.625 151.511719 445.976562 149.214844 445.863281 C 148.195312 445.40625 147.683594 444.019531 147.683594 441.75 C 147.683594 440.703125 147.769531 439.425781 147.941406 437.894531 C 148.109375 436.335938 148.136719 435.117188 148.023438 434.210938 C 147.570312 420.378906 146.722656 406.628906 145.472656 392.9375 C 144.992188 388.007812 144.480469 383.925781 143.914062 380.691406 C 143.347656 377.433594 142.441406 374.257812 141.195312 371.167969 C 140.144531 368.675781 138.785156 367.058594 137.082031 366.378906 C 133.992188 365.242188 130.847656 364.675781 127.671875 364.675781 C 123.5625 364.675781 119.054688 365.527344 114.152344 367.226562 C 111.96875 368.023438 110.210938 369.863281 108.851562 372.726562 C 107.714844 375.449219 107.007812 378.3125 106.78125 381.289062 C 106.441406 385.625 106.042969 392.117188 105.589844 400.820312 C 105.25 407.421875 104.796875 413.148438 104.230469 417.941406 C 103.664062 422.730469 102.726562 427.464844 101.480469 432.140625 C 101.253906 432.820312 100.714844 434.863281 99.863281 438.234375 C 99.015625 441.609375 97.9375 444.671875 96.691406 447.476562 C 95.441406 450.285156 94.253906 451.957031 93.089844 452.523438 Z M 123.222656 447.390625 C 121.378906 447.503906 119 447.960938 116.023438 448.753906 C 113.074219 449.460938 110.664062 449.746094 108.851562 449.632812 L 113.300781 425.648438 C 113.980469 421.652344 114.320312 416.722656 114.320312 410.910156 L 114.320312 397.898438 C 114.320312 396.992188 114.378906 394.496094 114.492188 390.445312 C 114.605469 386.390625 114.945312 382.59375 115.511719 379.046875 C 115.738281 377.007812 118.089844 374.597656 122.542969 371.847656 C 122.996094 372.671875 123.222656 373.464844 123.222656 374.257812 L 123.050781 376.496094 L 121.152344 430.609375 C 121.039062 433.585938 121.125 436.335938 121.40625 438.917969 C 121.691406 441.496094 122.316406 444.300781 123.222656 447.390625 Z M 176.429688 421.371094 C 176.429688 430.15625 178.101562 439.683594 181.417969 449.972656 C 183.003906 454.875 185.242188 458.390625 188.164062 460.488281 C 191.082031 462.613281 195.023438 463.664062 200.039062 463.664062 C 201.542969 463.664062 203.273438 463.519531 205.285156 463.238281 C 207.269531 462.953125 208.773438 462.757812 209.820312 462.640625 C 212.203125 462.300781 214.128906 460.914062 215.632812 458.53125 C 217.785156 454.988281 219.628906 450.199219 221.101562 444.132812 C 223.484375 433.757812 225.667969 419.1875 227.59375 400.449219 C 227.820312 397.730469 227.933594 395.773438 227.933594 394.640625 C 227.933594 388.234375 226.800781 382.253906 224.53125 376.667969 C 223.144531 373.125 221.640625 370.601562 219.996094 369.128906 C 218.324219 367.625 215.859375 366.886719 212.542969 366.886719 C 210.5 366.886719 208.828125 367 207.582031 367.226562 C 204.859375 367.683594 202.847656 367.910156 201.601562 367.910156 C 199.871094 367.910156 198.339844 367.683594 196.980469 367.226562 C 196.1875 366.886719 195.308594 366.71875 194.398438 366.71875 C 192.246094 366.71875 190.289062 367.851562 188.589844 370.148438 C 185.386719 374.597656 182.949219 379.332031 181.21875 384.347656 C 179.519531 389.734375 178.300781 395.347656 177.5625 401.242188 C 176.824219 407.113281 176.429688 413.828125 176.429688 421.371094 Z M 208.460938 455.753906 C 205.257812 446.855469 203.894531 440.53125 203.128906 432.992188 C 202.195312 423.523438 201.769531 412.980469 201.769531 401.328125 L 201.769531 393.449219 C 201.769531 390.8125 202.335938 386.757812 203.472656 381.289062 C 204.152344 378.539062 204.660156 376.015625 205.03125 373.746094 C 205.257812 372.5 205.738281 371.621094 206.476562 371.167969 C 208.121094 370.175781 209.480469 369.382812 211.179688 369.46875 C 220.707031 369.835938 220.28125 401.472656 219.714844 408.527344 C 218.324219 425.226562 217.898438 444.757812 208.460938 455.753906 Z M 291.429688 375.617188 C 290.523438 373.125 289.8125 371.621094 289.304688 371.167969 C 288.792969 370.714844 287.488281 370.488281 285.449219 370.488281 C 283.292969 370.488281 280.035156 370.601562 275.699219 370.828125 C 272.496094 371.167969 269.261719 371.339844 265.945312 371.339844 C 260.703125 371.339844 255.96875 370.660156 251.746094 369.296875 C 250.722656 368.957031 249.902344 368.789062 249.335938 368.789062 C 248.316406 368.789062 247.605469 369.15625 247.210938 369.894531 C 246.8125 370.628906 246.5 371.792969 246.273438 373.40625 C 245.933594 377.859375 245.652344 384.519531 245.394531 393.449219 C 245.167969 406.007812 245.054688 415.472656 245.054688 421.878906 C 245.054688 434.324219 245.394531 444.699219 246.105469 453.03125 C 246.21875 454.535156 246.5 456.121094 246.953125 457.851562 C 247.40625 459.554688 247.691406 460.6875 247.804688 461.253906 C 248.371094 462.984375 249.449219 463.777344 251.066406 463.664062 C 254.238281 463.324219 259.03125 462.925781 265.4375 462.472656 C 267.703125 462.246094 268.894531 461.082031 269.035156 459.042969 L 269.546875 456.292969 C 269.660156 455.386719 269.972656 454.734375 270.480469 454.335938 C 270.992188 453.941406 271.644531 453.910156 272.4375 454.253906 C 273.457031 454.59375 274.5625 454.761719 275.699219 454.761719 C 277.058594 454.761719 279.128906 454.421875 281.847656 453.742188 C 290.183594 452.238281 294.347656 446.65625 294.347656 436.933594 C 294.347656 432.480469 293.554688 428.03125 291.941406 423.582031 C 291.144531 421.199219 289.925781 419.300781 288.285156 417.941406 C 286.609375 416.550781 284.484375 415.585938 281.847656 415.019531 C 280.148438 414.566406 278.191406 414.339844 276.039062 414.339844 C 273.289062 414.339844 270.851562 415.019531 268.667969 416.382812 C 268.101562 415.019531 267.816406 413.574219 267.816406 412.015625 L 267.816406 409.378906 C 267.363281 399.542969 266.625 391.605469 265.605469 385.570312 C 265.265625 383.5 265.097656 381.910156 265.097656 380.777344 C 265.097656 379.503906 265.519531 378.679688 266.371094 378.285156 C 267.222656 377.886719 269.148438 377.574219 272.097656 377.347656 C 276.320312 376.894531 282.757812 376.300781 291.429688 375.617188 Z M 268.328125 430.269531 C 267.988281 427.40625 268.496094 425.054688 269.886719 423.242188 C 272.070312 420.292969 276.234375 416.210938 279.554688 420.578125 C 280.828125 422.25 283.40625 422.816406 284.089844 425.394531 C 284.769531 427.945312 285.109375 430.667969 285.109375 433.53125 C 285.109375 438.546875 284.089844 442.542969 282.019531 445.519531 C 279.636719 448.808594 276.605469 450.652344 272.949219 450.992188 L 272.097656 450.992188 C 270.285156 450.992188 269.375 450.027344 269.375 448.074219 Z M 333.722656 378.199219 C 332.789062 377.632812 332.304688 377.007812 332.25 376.300781 C 332.191406 375.617188 332.164062 375.164062 332.164062 374.9375 C 331.710938 371.734375 331.144531 369.46875 330.464844 368.078125 C 329.78125 366.71875 328.761719 365.753906 327.375 365.1875 C 326.011719 364.621094 323.714844 364.136719 320.542969 363.796875 L 318.8125 363.628906 C 316.660156 363.515625 315.183594 363.769531 314.363281 364.421875 C 313.570312 365.046875 313 366.433594 312.660156 368.617188 C 311.980469 373.066406 311.640625 377.632812 311.640625 382.308594 C 311.527344 385.625 311.472656 390.585938 311.472656 397.21875 C 311.472656 410.34375 311.867188 426.21875 312.660156 444.8125 C 312.773438 449.972656 313.738281 455.214844 315.582031 460.574219 C 316.035156 461.734375 316.488281 462.527344 316.941406 462.984375 C 317.394531 463.4375 317.960938 463.664062 318.640625 463.664062 C 318.984375 463.664062 319.632812 463.550781 320.542969 463.324219 C 323.261719 462.414062 327.488281 461.253906 333.210938 459.894531 C 334.6875 459.554688 335.792969 458.984375 336.527344 458.191406 C 337.265625 457.371094 337.804688 456.179688 338.171875 454.59375 C 338.96875 451.503906 339.363281 447.5625 339.363281 442.773438 L 339.195312 434.039062 L 339.023438 430.953125 C 339.023438 429.363281 339.363281 428.316406 340.042969 427.863281 C 340.722656 427.40625 342.367188 426.898438 345.003906 426.332031 C 345.457031 426.332031 345.941406 426.273438 346.449219 426.160156 C 346.960938 426.046875 347.472656 425.992188 347.925781 425.992188 C 354.300781 424.941406 358.753906 421.484375 361.246094 415.53125 C 363.316406 410.625 364.335938 406.234375 364.335938 402.347656 C 364.675781 393.335938 363.882812 384.179688 361.957031 374.9375 C 361.617188 372.785156 361.019531 370.941406 360.226562 369.46875 C 357.960938 364.902344 353.734375 362.496094 347.585938 362.269531 C 343.472656 362.269531 340.328125 364.449219 338.171875 368.789062 C 337.238281 370.261719 336.273438 372.300781 335.253906 374.9375 Z M 354.925781 383.5 C 354.925781 391.039062 354.726562 396.992188 354.332031 401.328125 C 353.566406 409.632812 352.914062 411.363281 348.605469 417.628906 C 346.902344 420.09375 338.203125 423.4375 337.804688 420.492188 L 336.785156 412.78125 C 335.765625 406.855469 335.253906 401.839844 335.253906 397.730469 C 335.253906 391.746094 340.980469 366.832031 348.945312 367.625 C 354.871094 368.21875 354.925781 379.21875 354.925781 383.5 Z M 412.269531 417.261719 L 411.929688 421.710938 C 410.769531 434.269531 410.203125 443.734375 410.203125 450.140625 C 410.203125 454.367188 411.109375 458.078125 412.953125 461.253906 C 413.40625 462.1875 413.886719 462.839844 414.398438 463.238281 C 414.90625 463.632812 415.671875 463.777344 416.722656 463.664062 L 433.304688 462.132812 C 434.890625 461.90625 435.882812 461.421875 436.222656 460.742188 C 436.5625 460.175781 437.214844 459.15625 438.179688 457.683594 C 439.144531 456.179688 439.910156 454.761719 440.417969 453.375 C 440.929688 452.011719 441.242188 450.652344 441.355469 449.261719 L 441.695312 442.773438 C 441.808594 440.703125 441.976562 436.960938 442.203125 431.546875 C 442.429688 426.132812 442.542969 421.257812 442.542969 416.890625 L 442.375 409.71875 C 442.035156 403.3125 441.015625 396 439.285156 387.78125 C 438.378906 383.214844 436.675781 379.671875 434.15625 377.179688 C 431.660156 374.65625 428.117188 373.066406 423.554688 372.359375 L 420.121094 372.019531 C 419.101562 372.019531 418.394531 372.332031 417.996094 372.984375 C 417.601562 373.605469 417.230469 374.996094 416.890625 377.179688 C 416.183594 382.875 415.332031 387.042969 414.3125 389.679688 C 407.707031 407.707031 401.8125 421.992188 396.679688 432.480469 C 396.566406 432.820312 396.3125 433.472656 395.914062 434.382812 C 395.519531 435.289062 394.921875 435.96875 394.128906 436.421875 C 393.675781 436.082031 393.449219 435.683594 393.449219 435.230469 L 393.449219 434.382812 L 393.109375 427.519531 C 392.996094 425.253906 392.824219 421.398438 392.597656 415.957031 C 392.34375 410.542969 392.230469 405.667969 392.230469 401.328125 L 392.230469 396 C 392.230469 392.230469 392.171875 389.453125 392.058594 387.609375 C 391.71875 384.179688 389.847656 382.480469 386.417969 382.480469 C 385.058594 382.480469 384.179688 382.734375 383.78125 383.242188 C 383.386719 383.753906 383.160156 384.40625 383.160156 385.226562 C 383.160156 386.023438 383.101562 386.644531 382.988281 387.097656 C 382.875 387.667969 382.761719 388.347656 382.648438 389.167969 C 382.535156 389.960938 382.480469 390.585938 382.480469 391.039062 C 381.796875 400.054688 381.457031 409.097656 381.457031 418.109375 C 381.457031 425.878906 381.628906 433.53125 381.96875 441.042969 C 382.195312 444.019531 382.480469 446.03125 382.820312 447.050781 C 383.160156 448.074219 383.867188 448.78125 384.886719 449.179688 C 385.910156 449.601562 387.894531 450.085938 390.871094 450.652344 C 391.210938 450.765625 391.71875 450.820312 392.398438 450.820312 C 394.46875 450.820312 396.171875 449.859375 397.558594 447.902344 C 399.714844 444.585938 401.925781 440.078125 404.21875 434.382812 L 407.140625 427.179688 L 411.222656 417.089844 Z M 508.421875 377.519531 C 507.402344 376.496094 504.707031 371.535156 503.914062 371.535156 C 498.839844 371.535156 485.574219 398.410156 481.550781 400.195312 C 480.1875 398.296875 479.960938 384.691406 478.488281 379.21875 C 477.667969 376.15625 475.625 373.976562 472.335938 372.726562 C 468.566406 371.339844 466.214844 370.660156 465.308594 370.660156 C 463.945312 370.660156 463.011719 371.339844 462.5 372.726562 C 461.992188 374.089844 461.679688 376.496094 461.566406 379.898438 L 459.667969 448.414062 C 459.667969 450.707031 459.722656 452.351562 459.835938 453.375 C 460.0625 455.441406 460.488281 456.832031 461.113281 457.597656 C 461.765625 458.332031 463.097656 458.871094 465.136719 459.210938 C 465.703125 459.324219 469.019531 459.835938 475.058594 460.742188 C 478.035156 461.195312 479.847656 461.421875 480.558594 461.421875 C 482.257812 461.421875 483.390625 460.941406 483.960938 459.976562 C 484.527344 459.015625 484.808594 457.085938 484.808594 454.253906 C 484.808594 450.027344 484.695312 445.238281 484.46875 439.9375 C 484.242188 434.636719 484.074219 430.953125 483.960938 428.882812 L 483.617188 422.730469 C 483.503906 420.09375 483.902344 417.683594 484.808594 415.445312 C 485.746094 413.234375 487.164062 410.570312 489.089844 407.480469 C 489.769531 407.933594 490.195312 408.472656 490.308594 409.125 C 490.421875 409.746094 490.480469 410.117188 490.480469 410.230469 C 490.707031 412.269531 490.933594 413.714844 491.160156 414.511719 C 492.632812 425 494.164062 433.644531 495.78125 440.363281 C 496.234375 441.976562 496.628906 443.960938 496.96875 446.371094 C 497.195312 447.164062 497.621094 449.007812 498.246094 451.925781 C 498.871094 454.847656 499.664062 457.425781 500.570312 459.722656 C 500.910156 460.742188 501.789062 461.679688 503.207031 462.472656 C 504.652344 463.265625 505.984375 463.664062 507.230469 463.664062 C 507.683594 463.664062 508.253906 463.550781 508.960938 463.324219 C 509.753906 462.871094 510.152344 462.246094 510.152344 461.421875 C 510.152344 460.96875 510.039062 460.347656 509.8125 459.554688 C 509.585938 458.757812 509.472656 458.191406 509.472656 457.851562 C 509.472656 456.691406 509.300781 455.613281 508.960938 454.59375 C 505.871094 442.261719 502.667969 427.519531 499.378906 410.398438 C 499.125 409.492188 498.925781 408.359375 498.757812 407.054688 C 498.585938 405.75 498.359375 404.5625 498.074219 403.539062 C 497.792969 402.519531 497.308594 401.667969 496.628906 400.988281 C 495.609375 399.714844 495.097656 398.691406 495.097656 397.898438 C 495.097656 395.519531 506.464844 380.351562 508.421875 377.519531 Z M 508.421875 377.519531 "/>
<path style=" stroke:none;fill-rule:nonzero;fill:rgb(55%,55%,55%);fill-opacity:1;" d="M 211.125 524.550781 L 205.285156 611.207031 L 181.671875 611.207031 L 174.300781 606.246094 L 163.503906 568.402344 L 152.871094 606.246094 L 144.820312 611.207031 L 120.160156 611.207031 L 114.007812 525.230469 L 105.960938 523.699219 L 105.960938 506.039062 L 135.75 509.300781 L 138.5 525.402344 L 144.652344 574.042969 L 152.871094 544.421875 L 163.503906 543.03125 L 174.300781 544.421875 L 182.523438 573.875 L 186.804688 525.570312 L 188.503906 509.128906 L 212.316406 509.128906 Z M 310.480469 559.671875 C 310.59375 575.066406 307.445312 588.046875 301.039062 598.535156 C 294.546875 608.710938 283.40625 613.898438 267.648438 614.125 C 254.296875 614.125 243.097656 610.753906 234.085938 604.007812 C 225.296875 597.289062 221.046875 582.660156 221.414062 560.183594 C 221.527344 549.78125 223.683594 539.800781 227.90625 530.191406 C 232.242188 520.722656 238.707031 514.261719 247.265625 510.832031 C 250.921875 509.242188 254.722656 507.996094 258.660156 507.089844 C 262.601562 506.15625 266.511719 505.8125 270.398438 506.039062 C 280.773438 506.976562 289.957031 510.886719 297.949219 517.863281 C 306.171875 524.949219 310.367188 538.867188 310.480469 559.671875 Z M 266.457031 527.980469 C 254.351562 527.980469 248.285156 538.527344 248.285156 559.671875 C 248.285156 570.726562 249.421875 578.890625 251.714844 584.164062 C 254.011719 589.863281 258.632812 592.722656 265.578125 592.722656 C 272.4375 592.722656 277.171875 589.691406 279.808594 583.625 C 282.332031 577.585938 283.578125 569.253906 283.578125 558.625 C 283.578125 547.910156 282.332031 540.113281 279.808594 535.265625 C 277.285156 530.390625 272.835938 527.980469 266.457031 527.980469 Z M 407.933594 559.671875 C 408.046875 575.066406 404.902344 588.046875 398.496094 598.535156 C 392.003906 608.710938 380.863281 613.898438 365.101562 614.125 C 351.75 614.125 340.554688 610.753906 331.539062 604.007812 C 322.753906 597.289062 318.527344 582.660156 318.871094 560.183594 C 318.984375 549.78125 321.136719 539.800781 325.359375 530.191406 C 329.726562 520.722656 336.160156 514.261719 344.722656 510.832031 C 348.378906 509.242188 352.175781 507.996094 356.117188 507.089844 C 360.058594 506.15625 363.96875 505.8125 367.851562 506.039062 C 378.226562 506.976562 387.4375 510.886719 395.433594 517.863281 C 403.652344 524.949219 407.820312 538.867188 407.933594 559.671875 Z M 363.910156 527.980469 C 351.808594 527.980469 345.742188 538.527344 345.742188 559.671875 C 345.742188 570.726562 346.902344 578.890625 349.171875 584.164062 C 351.46875 589.863281 356.089844 592.722656 363.0625 592.722656 C 369.894531 592.722656 374.65625 589.691406 377.261719 583.625 C 379.785156 577.585938 381.03125 569.253906 381.03125 558.625 C 381.03125 547.910156 379.785156 540.113281 377.261719 535.265625 C 374.769531 530.390625 370.316406 527.980469 363.910156 527.980469 Z M 425.054688 510.832031 C 425.054688 510.832031 426.757812 510.519531 430.128906 509.894531 C 433.472656 509.273438 437.726562 508.789062 442.886719 508.449219 C 448.015625 508.109375 453.65625 508.167969 459.835938 508.621094 C 465.988281 509.074219 471.882812 510.433594 477.46875 512.730469 C 486.253906 516.386719 492.832031 522.820312 497.167969 532.089844 C 501.730469 541.671875 503.800781 551.734375 503.347656 562.222656 C 502.1875 585.863281 494.023438 600.605469 478.855469 606.414062 C 464.003906 612.253906 445.832031 613.84375 424.375 611.207031 L 416.324219 611.207031 L 416.324219 513.242188 Z M 440.644531 597.003906 L 448.355469 597.003906 C 453.375 597.003906 458.390625 595.898438 463.4375 593.746094 C 467.320312 591.902344 470.210938 589.097656 472.167969 585.269531 C 474.09375 581.441406 475.199219 577.644531 475.425781 573.875 C 476.21875 564.972656 476.164062 557.746094 475.257812 552.21875 C 474.320312 546.660156 473.128906 542.636719 471.65625 540.140625 C 470.15625 537.390625 467.886719 534.699219 464.796875 532.089844 C 461.820312 529.113281 453.769531 527.359375 440.644531 526.761719 Z M 440.644531 597.003906 "/>
</g>
</svg>
