<?xml version="1.0" encoding="UTF-8"?>
<!DOCTYPE svg PUBLIC "-//W3C//DTD SVG 1.1//EN" "http://www.w3.org/Graphics/SVG/1.1/DTD/svg11.dtd">
<!-- Creator: CorelDRAW X6 -->
<svg xmlns="http://www.w3.org/2000/svg" xml:space="preserve" width="210mm" height="297mm" version="1.1" style="shape-rendering:geometricPrecision; text-rendering:geometricPrecision; image-rendering:optimizeQuality; fill-rule:evenodd; clip-rule:evenodd"
viewBox="0 0 21000 29700"
 xmlns:xlink="http://www.w3.org/1999/xlink">
 <defs>
  <style type="text/css">
   <![CDATA[
    .fil1 {fill:none}
    .fil2 {fill:#60A47C}
    .fil0 {fill:#B49C83}
    .fil4 {fill:#60A47C;fill-rule:nonzero}
    .fil3 {fill:#FEFEFE;fill-rule:nonzero}
   ]]>
  </style>
 </defs>
 <g id="Слой_x0020_1">
  <metadata id="CorelCorpID_0Corel-Layer"/>
  <g id="_325051008">
   <path class="fil0" d="M2320 12352c-75,-1005 -573,-489 319,-2392 -188,-483 92,-884 856,-1648 291,-291 -153,-1097 805,-1260 597,-101 -151,-1235 936,-1314 148,-11 1027,-156 1038,-196 156,-531 402,-1186 996,-941 524,216 -163,21 219,-402 561,-620 571,68 965,-448 241,134 1150,400 1531,400 501,0 683,-471 807,-400 281,161 980,377 1218,506 576,312 1092,69 1866,347 941,338 370,936 1937,1129 709,87 499,795 829,930 153,63 1189,611 1163,1634 -13,515 1300,1478 657,1965 -177,135 587,325 219,1012 -93,176 174,906 16,1151 -302,-34 -609,53 -974,-21 -69,-401 61,-1840 -149,-2350 -453,-1097 -2244,-3369 -2676,-3591 -1431,-737 -1838,-1382 -4600,-1264 -853,36 -1229,-94 -2558,450 -1753,717 -2240,1405 -3208,2481 -951,1056 -1185,2032 -1197,2651 -1,44 -86,1189 -86,1588 -382,-38 -928,-15 -929,-17z"/>
   <g>
    <path class="fil0" d="M9637 12268c95,-1096 1667,-1273 2017,137 18,74 57,140 18,198 -57,10 -170,-199 -206,-227 25,12 86,71 136,120 -455,-1141 -1640,-1017 -1708,-228 0,71 -57,128 -128,128 -71,0 -129,-57 -129,-128zm1829 108c-4,-4 -7,-5 -9,-2 1,-1 5,-1 9,2zm-9 -2c-1,1 -1,2 -1,3 0,-1 0,-2 1,-3z"/>
   </g>
   <path class="fil1" d="M9766 12268c0,-626 860,-905 1224,-646 220,157 593,510 669,959 4,23 -200,-242 -203,-204"/>
   <g>
    <path class="fil0" d="M8735 12336c-9,45 -19,84 -31,118l0 1 0 -1c-76,214 -212,201 -241,-60l0 0 0 -2c-27,-247 42,-717 350,-1427 212,-491 536,-494 1010,-668 810,-299 1485,-55 2156,403 321,219 572,1232 658,1883 3,-56 6,-98 8,-112 -2,43 -2,97 -2,155 24,199 32,360 20,447l-35 6c-4,-13 -6,-46 -6,-91 -41,-459 -383,-1912 -749,-2126 -1160,-677 -1364,-456 -2568,-126 -267,73 -506,1059 -579,1528 10,22 13,47 9,72z"/>
   </g>
   <path class="fil1" d="M8608 12315c-128,754 129,-1621 677,-1706 662,-102 430,-313 1435,-313 444,0 762,292 1170,466 385,164 775,1795 755,2304 -2,55 -17,-570 0,-595"/>
   <g>
    <path class="fil0" d="M6905 13683c-42,-878 -113,-2365 403,-3101 322,-460 1078,-1302 1539,-1569 490,-285 2056,-637 2594,-437 874,324 2204,1421 2510,2281 198,557 233,2323 203,2985l0 0 0 0 0 15 -33 13c-4,-4 -6,-15 -9,-32l-3 1 0 -29c-6,-70 -7,-191 -5,-336 -24,-776 -122,-2133 -282,-2549 -321,-831 -1616,-1806 -2468,-2107 -469,-166 -1943,164 -2378,417 -439,254 -1157,1065 -1460,1498 -463,661 -388,2080 -366,2873 22,68 -16,140 -84,161 -68,21 -140,-16 -161,-84zm7249 159l0 0 0 1c0,0 0,-1 0,-1z"/>
   </g>
   <path class="fil1" d="M7028 13645c-50,-159 9,-2282 174,-2633 257,-544 630,-769 823,-1091 252,-419 1027,-990 1510,-1032 686,-59 1432,-523 2124,-59 399,267 549,158 953,576 695,719 700,383 1274,1485 110,211 336,2738 245,2957 -8,20 0,-1476 0,-1455"/>
   <g>
    <path class="fil0" d="M6026 13676c-52,-504 -176,-2647 274,-3116 471,-490 321,-606 730,-1217 624,-933 702,-1005 1860,-1414 2272,-802 3305,-147 5092,1136 667,478 553,336 781,1078 231,749 843,2955 462,3705 333,-764 -401,-2905 -674,-3634 -253,-675 -49,-464 -737,-898 -1734,-1095 -2684,-1606 -4796,-999 -1126,324 -1142,359 -1784,1204 -451,593 -251,661 -816,1182 -388,357 -410,2560 -392,2973z"/>
   </g>
   <path class="fil1" d="M6026 13676c-124,-399 19,-2785 333,-3044 522,-432 346,-714 773,-1200 387,-442 314,-703 1052,-1017 1009,-429 2092,-728 3202,-544 615,102 2660,1340 3089,1752 4,4 339,1065 424,1237 173,350 580,2652 326,2988"/>
   <g>
    <path class="fil0" d="M4933 12554c366,-1722 837,-3326 2255,-4472 482,-390 1813,-628 2499,-889 1369,-520 1294,-140 2564,289 1546,524 1786,1067 2892,2177 581,583 496,693 640,1583 27,162 374,3121 152,2622 -16,-36 -87,-836 -81,-873l-1 0 -1 0c1,-1 1,-1 1,-2 22,-5 53,193 81,399 -37,-684 -191,-1557 -295,-2122 -164,-889 -54,-929 -622,-1480 -1101,-1068 -1308,-1580 -2807,-2074 -1260,-416 -1151,-772 -2419,-275 -643,253 -2004,531 -2419,874 -1346,1114 -1753,2624 -2098,4273 -8,94 -92,164 -186,155 -94,-8 -164,-91 -155,-185z"/>
   </g>
   <path class="fil1" d="M5103 12569c20,-221 446,-1800 569,-2019 87,-154 204,-795 507,-1052 100,-85 321,-559 598,-825 347,-333 618,-677 1128,-781 611,-125 881,-289 1466,-444 526,-139 863,-488 1605,-344 485,94 716,398 1254,493 174,31 1416,613 1536,782 101,143 1436,1471 1644,1667 209,196 681,3496 563,3802 -23,60 -96,-893 -121,-857"/>
   <g>
    <path class="fil0" d="M4290 13850c210,-1697 -82,-1876 491,-3594 66,-199 1050,-1925 1118,-2011 203,-258 642,-502 943,-796 801,-783 758,-546 1757,-939 1625,-641 2293,-454 3957,-42 982,242 999,393 1761,869 915,572 1896,1982 2175,3012 111,411 473,3862 250,3746 -16,-8 -24,-765 -27,-1151 -18,-234 -34,-415 -35,-426 -178,-2095 -294,-2772 -1797,-4349 -643,-674 -698,-460 -1225,-876 -654,-515 -1822,-448 -2664,-651l-393 -115c-480,-91 -1443,123 -1892,274 -991,331 -936,105 -1714,808 -280,252 -785,537 -957,742 -75,89 -1090,1740 -1162,1935 -621,1694 -333,1872 -586,3564zm12441 -670c11,277 10,229 29,714 3,-175 -11,-453 -29,-714z"/>
   </g>
   <path class="fil1" d="M4290 13850c213,-683 -64,-2144 396,-3115 131,-275 89,-618 480,-1032 48,-52 273,-584 377,-754 791,-1296 498,-581 1375,-1420 447,-427 483,-565 1096,-640 192,-24 974,-433 1623,-501 678,-71 708,-186 1424,10 706,194 2267,264 2718,791 166,193 677,241 1201,903 644,813 1144,1118 1441,2275 154,600 226,1232 275,1840 4,56 148,1810 54,1872l-37 -1355"/>
   <g>
    <path class="fil0" d="M3593 14228c-299,-1322 109,-3897 721,-5101 40,-80 800,-1317 830,-1354 846,-1028 2613,-2248 3933,-2336 1000,-66 1250,185 2086,278 1189,134 1417,165 2584,703 986,454 275,204 797,290 765,126 1322,1663 1690,2224 842,1285 648,626 1157,2304 44,144 508,1548 159,1709 200,-352 -214,-1375 -314,-1656 -599,-1676 -317,-928 -1208,-2202 -301,-431 -1005,-2088 -1648,-2050 -232,14 -1247,-491 -1511,-584 -1030,-361 -800,-249 -1750,-337 -768,-71 -1137,-308 -2021,-264 -738,36 -2064,669 -2609,1120 -1073,886 -990,890 -1686,1925 -854,1272 -1277,3804 -1210,5331z"/>
   </g>
   <path class="fil1" d="M3593 14228c-287,-921 409,-4737 1106,-5435 205,-204 231,-720 1048,-1387 800,-654 381,-499 1437,-1072 984,-534 1452,-804 2731,-652 588,70 960,278 1749,253 419,-13 2128,641 2504,887 317,207 333,-383 1340,1030 17,23 267,684 623,1158 860,1144 581,580 1033,1830 106,294 702,1888 386,2105"/>
   <g>
    <path class="fil0" d="M7849 13340c130,-2673 -245,-3172 2663,-3816 1542,-342 2133,441 2740,1831 392,898 293,1359 167,2297 0,0 -116,-1208 -116,-1208 -112,-746 -899,-2262 -1673,-2512 -476,-154 -2658,253 -3092,756 -508,590 -358,1744 -689,2652z"/>
   </g>
   <path class="fil1" d="M7849 13340c337,-1081 -266,-2896 1471,-3284 1939,-432 2601,-1039 3794,1367 394,792 305,1163 305,2229"/>
   <g>
    <path class="fil0" d="M9257 12901c-515,-257 -106,-2654 2012,-1838 562,216 1005,856 727,1416 -3,5 -8,18 -15,20l-2 -1c0,-2 -1,-2 1,-3 100,-646 -110,-1109 -747,-1333 -1839,-644 -2447,1188 -1976,1739zm2723 -406c1,1 1,1 2,1 -1,-1 -1,-1 -2,-1z"/>
   </g>
   <path class="fil1" d="M9257 12901c-339,-199 -264,-2106 1441,-1912 1735,196 1282,1572 1282,1506"/>
   <path class="fil0" d="M4488 7625c-359,160 913,-137 1469,141 636,318 1054,1091 1619,1091 10,0 -989,-781 -1359,-1189 -484,-534 -656,-835 -848,-843 -357,-16 -410,591 -881,800z"/>
   <path class="fil0" d="M15466 6588c98,210 -1639,1780 -1569,1693 87,-109 556,-201 990,-492 536,-359 1045,-917 1033,-924 -372,-218 12,-219 -454,-277z"/>
  </g>
  <polygon class="fil2" points="860,12328 20011,12328 20011,17236 860,17236 "/>
  <path class="fil3" d="M3284 15964c-132,12 -247,41 -344,85 -44,24 -66,48 -66,72 0,21 8,41 24,61l115 175c48,81 110,177 187,290 40,56 90,94 151,112 60,18 137,25 229,21l-368 -628c209,-45 420,-77 631,-97 211,-20 474,-40 788,-61 297,-16 523,-32 676,-48 -4,53 -15,100 -31,142 -16,42 -26,74 -30,94 -8,32 -19,66 -33,103 -14,36 -27,76 -39,120 -4,8 -6,20 -6,37 0,20 7,35 21,45 14,10 31,18 51,24 20,6 36,13 48,21 25,12 47,18 67,18 40,0 64,-20 72,-60 97,-262 159,-441 187,-538 16,-60 -18,-112 -102,-154 -85,-42 -167,-65 -248,-69 -36,-16 -54,-65 -54,-145 0,-37 3,-82 9,-136 6,-55 7,-98 3,-130 -16,-488 -46,-973 -90,-1456 -17,-174 -35,-318 -55,-432 -20,-115 -52,-227 -96,-336 -37,-88 -85,-145 -145,-169 -109,-40 -220,-60 -332,-60 -145,0 -304,30 -477,90 -77,28 -139,93 -187,194 -40,96 -65,197 -73,302 -12,153 -26,382 -42,689 -12,233 -28,435 -48,604 -20,169 -53,336 -97,501 -8,24 -27,96 -57,215 -30,119 -68,227 -112,326 -44,99 -86,158 -127,178zm1063 -181c-65,4 -149,20 -254,48 -104,25 -189,35 -253,31l157 -846c24,-141 36,-315 36,-520l0 -459c0,-32 2,-120 6,-263 4,-143 16,-277 36,-402 8,-72 91,-157 248,-254 16,29 24,57 24,85l-6 79 -67 1909c-4,105 -1,202 9,293 10,91 32,190 64,299zm1877 -918c0,310 59,646 176,1009 56,173 135,297 238,371 103,75 242,112 419,112 53,0 114,-5 185,-15 70,-10 123,-17 160,-21 84,-12 152,-61 205,-145 76,-125 141,-294 193,-508 84,-366 161,-880 229,-1541 8,-96 12,-165 12,-205 0,-226 -40,-437 -120,-634 -49,-125 -102,-214 -160,-266 -59,-53 -146,-79 -263,-79 -72,0 -131,4 -175,12 -96,16 -167,24 -211,24 -61,0 -115,-8 -163,-24 -28,-12 -59,-18 -91,-18 -76,0 -145,40 -205,121 -113,157 -199,324 -260,501 -60,190 -103,388 -129,596 -26,207 -40,444 -40,710zm1130 1213c-113,-314 -161,-537 -188,-803 -33,-334 -48,-706 -48,-1117l0 -278c0,-93 20,-236 60,-429 24,-97 42,-186 55,-266 8,-44 25,-75 51,-91 58,-35 106,-63 166,-60 336,13 321,1129 301,1378 -49,589 -64,1278 -397,1666zm2927 -2827c-32,-88 -57,-141 -75,-157 -18,-16 -64,-24 -136,-24 -76,0 -191,4 -344,12 -113,12 -227,18 -344,18 -185,0 -352,-24 -501,-72 -36,-12 -65,-18 -85,-18 -36,0 -61,13 -75,39 -14,26 -25,67 -33,124 -12,157 -22,392 -31,707 -8,443 -12,777 -12,1003 0,439 12,805 37,1099 4,53 14,109 30,170 16,60 26,100 30,120 20,61 58,89 115,85 112,-12 281,-26 507,-42 80,-8 122,-49 127,-121l18 -97c4,-32 15,-55 33,-69 18,-14 41,-15 69,-3 36,12 75,18 115,18 48,0 121,-12 217,-36 294,-53 441,-250 441,-593 0,-157 -28,-314 -85,-471 -28,-84 -71,-151 -129,-199 -59,-49 -134,-83 -227,-103 -60,-16 -129,-24 -205,-24 -97,0 -183,24 -260,72 -20,-48 -30,-99 -30,-154 0,-54 0,-85 0,-93 -16,-347 -42,-627 -78,-840 -12,-73 -18,-129 -18,-169 0,-45 15,-74 45,-88 30,-14 98,-25 202,-33 149,-16 376,-37 682,-61zm-815 1928c-12,-101 6,-184 55,-248 77,-104 224,-248 341,-94 45,59 136,79 160,170 24,90 36,186 36,287 0,177 -36,318 -109,423 -84,116 -191,181 -320,193l-30 0c-64,0 -96,-34 -96,-103l-37 -628zm2307 -1837c-33,-20 -50,-42 -52,-67 -2,-24 -3,-40 -3,-48 -16,-113 -36,-193 -60,-242 -24,-48 -60,-82 -109,-102 -48,-20 -129,-37 -241,-49l-61 -6c-76,-4 -128,5 -157,28 -28,22 -48,71 -60,148 -24,157 -36,318 -36,483 -4,117 -6,292 -6,526 0,463 14,1023 42,1679 4,182 38,367 103,556 16,41 32,69 48,85 16,16 36,24 60,24 12,0 35,-4 67,-12 96,-32 245,-73 447,-121 52,-12 91,-32 117,-60 26,-29 45,-71 58,-127 28,-109 42,-248 42,-417l-6 -308 -6 -109c0,-56 12,-93 36,-109 24,-16 82,-34 175,-54 16,0 33,-2 51,-6 18,-4 36,-6 52,-6 225,-37 382,-159 470,-369 73,-173 109,-328 109,-465 12,-318 -16,-641 -84,-967 -12,-76 -33,-141 -61,-193 -80,-161 -229,-246 -446,-254 -145,0 -256,77 -332,230 -33,52 -67,124 -103,217l-54 115zm748 187c0,266 -7,476 -21,629 -27,293 -50,354 -202,575 -60,87 -367,205 -381,101l-36 -272c-36,-209 -54,-386 -54,-531 0,-211 202,-1090 483,-1062 209,21 211,409 211,560zm2023 1191l-12 157c-41,443 -61,777 -61,1003 0,149 32,280 97,392 16,33 33,56 51,70 18,14 45,19 82,15l585 -54c56,-8 91,-25 103,-49 12,-20 35,-56 69,-108 34,-53 61,-103 79,-152 18,-48 29,-96 33,-145l12 -229c4,-73 10,-205 18,-396 8,-191 12,-363 12,-517l-6 -253c-12,-226 -48,-484 -109,-774 -32,-161 -92,-286 -181,-374 -88,-89 -213,-145 -374,-170l-121 -12c-36,0 -61,11 -75,34 -14,22 -27,71 -39,148 -25,201 -55,348 -91,441 -233,636 -441,1140 -622,1510 -4,12 -13,35 -27,67 -14,32 -35,56 -63,72 -16,-12 -24,-26 -24,-42 0,-16 0,-26 0,-30l-12 -242c-4,-80 -10,-216 -18,-408 -9,-191 -13,-363 -13,-516l0 -188c0,-133 -2,-231 -6,-296 -12,-121 -78,-181 -199,-181 -48,0 -79,9 -93,27 -14,18 -22,41 -22,70 0,28 -2,50 -6,66 -4,20 -8,44 -12,73 -4,28 -6,50 -6,66 -24,318 -36,637 -36,955 0,274 6,544 18,809 8,105 18,176 30,212 12,36 37,61 73,75 36,15 106,32 211,52 12,4 30,6 54,6 73,0 133,-34 182,-103 76,-117 154,-276 235,-477l103 -254 144 -356 37 6zm3392 -1402c-36,-36 -131,-211 -159,-211 -179,0 -647,948 -789,1011 -48,-67 -56,-547 -108,-740 -29,-108 -101,-185 -217,-229 -133,-49 -216,-73 -248,-73 -48,0 -81,24 -99,73 -18,48 -29,133 -33,253l-67 2417c0,81 2,139 6,175 8,73 23,122 45,149 23,26 70,45 142,57 20,4 137,22 350,54 105,16 169,24 194,24 60,0 100,-17 120,-51 20,-34 30,-102 30,-202 0,-149 -4,-318 -12,-505 -8,-187 -14,-317 -18,-390l-12 -217c-4,-93 10,-178 42,-257 33,-78 83,-172 151,-281 24,16 39,35 43,58 4,22 6,35 6,39 8,72 16,123 24,151 52,370 106,675 163,912 16,57 30,127 42,212 8,28 23,93 45,196 22,103 50,194 82,275 12,36 43,69 93,97 51,28 98,42 142,42 16,0 36,-4 61,-12 28,-16 42,-38 42,-67 0,-16 -4,-38 -12,-66 -8,-28 -12,-48 -12,-60 0,-41 -6,-79 -18,-115 -109,-435 -222,-955 -338,-1559 -9,-32 -16,-72 -22,-118 -6,-46 -14,-88 -24,-124 -10,-36 -27,-66 -51,-90 -36,-45 -54,-81 -54,-109 0,-84 401,-619 470,-719z"/>
  <path class="fil4" d="M7448 18505l-206 3057 -833 0 -260 -175 -381 -1335 -375 1335 -284 175 -870 0 -217 -3033 -284 -54 0 -623 1051 115 97 568 217 1716 290 -1045 375 -49 381 49 290 1039 151 -1704 60 -580 840 0 -42 544zm3505 1239c4,543 -107,1001 -333,1371 -229,359 -622,542 -1178,550 -471,0 -866,-119 -1184,-357 -310,-237 -460,-753 -447,-1546 4,-367 80,-719 229,-1058 153,-334 381,-562 683,-683 129,-56 263,-100 402,-132 139,-33 277,-45 414,-37 366,33 690,171 972,417 290,250 438,741 442,1475zm-1553 -1118c-427,0 -641,372 -641,1118 0,390 40,678 121,864 81,201 244,302 489,302 242,0 409,-107 502,-321 89,-213 133,-507 133,-882 0,-378 -44,-653 -133,-824 -89,-172 -246,-257 -471,-257zm4991 1118c4,543 -107,1001 -333,1371 -229,359 -622,542 -1178,550 -471,0 -866,-119 -1184,-357 -310,-237 -459,-753 -447,-1546 4,-367 80,-719 229,-1058 154,-334 381,-562 683,-683 129,-56 263,-100 402,-132 139,-33 277,-45 414,-37 366,33 691,171 973,417 290,250 437,741 441,1475zm-1553 -1118c-427,0 -641,372 -641,1118 0,390 41,678 121,864 81,201 244,302 490,302 241,0 409,-107 501,-321 89,-213 133,-507 133,-882 0,-378 -44,-653 -133,-824 -88,-172 -245,-257 -471,-257zm2157 -605c0,0 60,-11 179,-33 118,-22 268,-39 450,-51 181,-12 380,-10 598,6 217,16 425,64 622,145 310,129 542,356 695,683 161,338 234,693 218,1063 -41,834 -329,1354 -864,1559 -524,206 -1165,262 -1922,169l-284 0 0 -3456 308 -85zm550 3040l272 0c177,0 354,-39 532,-115 137,-65 239,-164 308,-299 68,-135 107,-269 115,-402 28,-314 26,-569 -6,-764 -33,-196 -75,-338 -127,-426 -53,-97 -133,-192 -242,-284 -105,-105 -389,-167 -852,-188l0 2478z"/>
 </g>
</svg>
