<svg width="201" height="50" viewBox="0 0 201 50" fill="none" xmlns="http://www.w3.org/2000/svg">
<path d="M50.0024 10.8838L56.0574 21.7067V28.3084L50.0095 39.11L50.0024 10.8838Z" fill="#5B57A2"/>
<path d="M73.2512 17.7676L78.925 14.2901L90.5366 14.2793L73.2512 24.8685V17.7676Z" fill="#D90751"/>
<path d="M73.219 10.8196L73.251 25.1487L67.1819 21.4196V0L73.2194 10.8196H73.219Z" fill="#FAB718"/>
<path d="M90.5364 14.2796L78.9244 14.2904L73.219 10.8196L67.1819 0L90.536 14.2796H90.5364Z" fill="#ED6F26"/>
<path d="M73.251 39.17V32.2179L67.1819 28.5596L67.1852 50.0004L73.251 39.17Z" fill="#63B22F"/>
<path d="M78.9107 35.7242L56.057 21.7067L50.0024 10.8838L90.512 35.71L78.9103 35.7242H78.9107Z" fill="#1487C9"/>
<path d="M67.1858 50.0004L73.2508 39.17L78.9104 35.7241L90.5116 35.71L67.1858 50.0004Z" fill="#017F36"/>
<path d="M50.0095 39.1093L67.2316 28.5593L61.4416 25.0068L56.0574 28.3077L50.0095 39.1093Z" fill="#984995"/>
<path fill-rule="evenodd" clip-rule="evenodd" d="M116.205 26.6991C120.112 26.6991 123.014 24.3033 123.014 20.6713C123.014 17.1557 120.873 14.8734 117.295 14.8734C115.644 14.8734 114.281 15.4544 113.255 16.4574C113.5 14.3847 115.253 12.871 117.183 12.871C117.628 12.871 120.982 12.8641 120.982 12.8641L122.878 9.23535C122.878 9.23535 118.668 9.33138 116.711 9.33138C112.239 9.4091 109.219 13.4736 109.219 18.4101C109.219 24.1617 112.164 26.6991 116.205 26.6991ZM116.228 18.0875C117.679 18.0875 118.685 19.0408 118.685 20.6709C118.685 22.1378 117.791 23.3467 116.228 23.3499C114.733 23.3499 113.727 22.2297 113.727 20.6957C113.727 19.0653 114.733 18.0875 116.228 18.0875ZM138.102 14.038V26.2621H133.737V17.6871H129.534V26.2621H125.169V14.0372L138.102 14.038ZM103.095 22.8763C104.635 22.764 105.666 22.1695 105.666 22.1695L107.281 25.1582C106.247 25.8227 104.549 26.2548 103.319 26.3004C98.9166 26.3813 95.8545 23.7027 95.8545 19.8001C95.8545 15.9468 99.1123 13.2043 103.319 13.2043C104.985 13.2043 106.418 13.6514 107.494 14.4669C107.268 14.8681 106.96 15.4239 106.667 15.9557L106.199 16.8094L105.772 17.589C105.772 17.589 104.222 16.7768 103.051 16.7768C101.14 16.7768 99.7483 17.8873 99.7483 19.8245C99.7483 21.811 101.325 22.9288 103.095 22.8763ZM99.7495 34.4888C99.6163 34.6589 99.4409 34.7875 99.2305 34.8742C99.0145 34.962 98.7836 35.0068 98.5504 35.0056C98.3187 35.0088 98.0882 34.9702 97.8701 34.8917C97.6742 34.8204 97.4951 34.7094 97.3442 34.5657C97.1952 34.4217 97.0782 34.2479 97.0009 34.0555C96.9171 33.8451 96.8754 33.6201 96.8781 33.3934C96.8781 33.1684 96.9167 32.9601 96.9971 32.7628C97.0742 32.565 97.1863 32.3953 97.3267 32.2529C97.3903 32.187 97.4597 32.128 97.5342 32.0751L97.5798 32.0442C97.6276 32.0128 97.6774 31.9835 97.7291 31.9567L97.7846 31.929L97.8247 31.9099C98.0176 31.8265 98.2279 31.7813 98.4593 31.7813C98.7083 31.7813 98.9396 31.8126 99.15 31.8749C99.2828 31.914 99.4029 31.9697 99.5103 32.0421C99.5734 32.0849 99.632 32.1333 99.6863 32.1874L99.4305 32.6207C99.3066 32.5084 99.161 32.4234 99.0025 32.3705C98.8519 32.3221 98.6945 32.2977 98.5364 32.2981C98.3962 32.2981 98.2629 32.3257 98.1333 32.3778C98.0058 32.4291 97.889 32.5044 97.7897 32.6C97.688 32.6976 97.608 32.8161 97.5545 32.9467C97.4951 33.0814 97.467 33.2307 97.467 33.3971C97.467 33.5668 97.4984 33.7194 97.558 33.8512C97.618 33.9863 97.6984 34.101 97.8001 34.1979C97.9016 34.2951 98.0208 34.3676 98.1575 34.4164C98.2133 34.4376 98.2703 34.4542 98.3284 34.4664C98.4133 34.4843 98.5012 34.4929 98.5925 34.4929C98.7817 34.4929 98.9539 34.4542 99.1009 34.3814C99.1781 34.344 99.2511 34.2992 99.319 34.2475C99.3793 34.2016 99.4354 34.1503 99.4867 34.0941L99.7495 34.4888ZM100.472 34.9328V31.8472H101.026V34.1462L102.828 31.8472H103.382V34.9332H102.828V32.6346L101.026 34.9332L100.472 34.9328ZM107.053 34.4888C106.917 34.6605 106.738 34.7932 106.534 34.8742C106.411 34.9242 106.282 34.9604 106.151 34.982C106.053 34.9979 105.953 35.006 105.854 35.0056C105.761 35.0068 105.668 35.0015 105.576 34.9893C105.439 34.9714 105.304 34.9389 105.174 34.8917C105.129 34.8754 105.085 34.8571 105.042 34.8367C104.99 34.8119 104.94 34.7842 104.891 34.7541C104.804 34.7 104.722 34.6369 104.648 34.5657C104.498 34.4217 104.382 34.2479 104.304 34.0555C104.221 33.8451 104.179 33.6201 104.181 33.3934C104.181 33.1684 104.22 32.9601 104.301 32.7628C104.378 32.565 104.49 32.3953 104.63 32.2529C104.77 32.1072 104.939 31.9966 105.128 31.9099C105.328 31.822 105.544 31.7781 105.763 31.7813C105.907 31.7813 106.046 31.7919 106.178 31.813L106.255 31.8265C106.285 31.8322 106.314 31.8387 106.343 31.8456L106.394 31.8582L106.453 31.8749C106.664 31.9371 106.842 32.0413 106.99 32.1874L106.734 32.6207C106.61 32.5084 106.465 32.4234 106.306 32.3705C106.268 32.3583 106.23 32.3473 106.191 32.3379C106.164 32.3318 106.137 32.3266 106.11 32.3217C106.085 32.3172 106.059 32.3131 106.034 32.3099L105.977 32.3038C105.932 32.2997 105.886 32.2977 105.84 32.2981C105.562 32.2989 105.294 32.4071 105.093 32.6C105.067 32.6256 105.042 32.6521 105.019 32.6802C104.992 32.7131 104.966 32.7481 104.943 32.7843C104.91 32.836 104.882 32.8901 104.858 32.9467C104.845 32.976 104.834 33.0061 104.824 33.037C104.812 33.0724 104.802 33.1086 104.795 33.1456C104.778 33.225 104.77 33.3084 104.77 33.3971C104.77 33.4773 104.777 33.5534 104.791 33.6254C104.799 33.6681 104.81 33.7088 104.822 33.7483C104.834 33.7841 104.847 33.8183 104.862 33.8512C104.899 33.9367 104.945 34.014 105 34.0835C105.031 34.1242 105.066 34.1621 105.103 34.1979C105.205 34.2951 105.325 34.3676 105.461 34.4164C105.598 34.4648 105.742 34.4929 105.896 34.4929C105.96 34.4929 106.023 34.4884 106.083 34.4795C106.198 34.4628 106.305 34.4294 106.404 34.3814C106.55 34.311 106.681 34.2134 106.79 34.0941L107.053 34.4888ZM107.34 31.8472H110.18V32.3953H109.037V34.9328H108.483V32.3953H107.34V31.8472ZM113.312 34.5967C113.157 34.735 112.979 34.8359 112.768 34.9018C112.565 34.9673 112.354 35.0011 112.141 35.0023C112.055 35.0036 111.97 34.9991 111.885 34.9893C111.737 34.9718 111.591 34.938 111.45 34.888C111.243 34.8119 111.068 34.7041 110.924 34.5621C110.777 34.418 110.662 34.2443 110.587 34.0526C110.51 33.8549 110.468 33.6331 110.468 33.3902C110.466 33.1749 110.503 32.9613 110.577 32.7595C110.644 32.5695 110.751 32.3961 110.889 32.2496C110.955 32.1817 111.027 32.1198 111.104 32.0653C111.193 32.0023 111.289 31.9489 111.39 31.9062C111.506 31.8582 111.631 31.8228 111.766 31.8017C111.865 31.7862 111.968 31.7781 112.077 31.7781C112.142 31.7776 112.206 31.7813 112.269 31.789C112.326 31.796 112.383 31.8061 112.44 31.8191C112.508 31.8354 112.576 31.8566 112.642 31.8822C112.814 31.9461 112.971 32.0438 113.105 32.1699C113.139 32.2029 113.171 32.237 113.201 32.2732C113.227 32.303 113.25 32.3335 113.273 32.3652C113.307 32.4136 113.338 32.4649 113.366 32.5174C113.383 32.5499 113.399 32.5833 113.413 32.6171C113.445 32.6887 113.47 32.7632 113.489 32.8409C113.516 32.9511 113.529 33.0683 113.529 33.1928C113.529 33.3349 113.519 33.4561 113.494 33.5635H111.096C111.12 33.8553 111.229 34.0835 111.429 34.2467C111.629 34.4099 111.881 34.4892 112.186 34.4892C112.29 34.4892 112.39 34.4811 112.484 34.4648C112.574 34.4494 112.659 34.4266 112.74 34.396C112.905 34.3334 113.042 34.2573 113.143 34.167L113.312 34.5967ZM112.053 32.2948C111.765 32.2948 111.537 32.3709 111.366 32.5267C111.196 32.6802 111.088 32.8897 111.061 33.1163H112.954C112.94 32.86 112.856 32.659 112.698 32.5133C112.672 32.4889 112.644 32.4669 112.615 32.447C112.587 32.4279 112.558 32.4108 112.527 32.3953C112.504 32.3835 112.48 32.3729 112.456 32.3632C112.339 32.3176 112.204 32.2948 112.053 32.2948ZM114.283 31.8472H114.788L115.987 33.3764L117.123 31.8472H117.614V34.9332H117.06V32.683L115.98 34.1149H115.959L114.837 32.6826V34.9328H114.283V31.8472ZM118.879 31.9404C118.957 31.907 119.038 31.8794 119.121 31.8578C119.3 31.8094 119.486 31.7817 119.682 31.7817C119.874 31.7817 120.041 31.8025 120.183 31.844C120.278 31.8716 120.362 31.9087 120.435 31.9546C120.504 31.9982 120.563 32.0503 120.612 32.1109C120.69 32.2065 120.75 32.32 120.794 32.4511C120.85 32.6199 120.878 32.8177 120.878 33.0439V34.9368H120.359V34.5381C120.268 34.6561 120.142 34.7598 119.983 34.8502C119.826 34.9401 119.619 34.9852 119.36 34.9852C119.172 34.9852 119.008 34.9498 118.868 34.879C118.837 34.8636 118.808 34.8465 118.78 34.8278C118.761 34.8148 118.742 34.8009 118.724 34.7867C118.704 34.7708 118.684 34.7537 118.665 34.7358C118.49 34.5694 118.402 34.3334 118.402 34.0319C118.401 33.8866 118.432 33.7434 118.494 33.612C118.551 33.4923 118.635 33.3869 118.739 33.3039C118.841 33.2205 118.967 33.1579 119.114 33.1163C119.143 33.1082 119.173 33.1005 119.202 33.0936L119.247 33.0838L119.297 33.0748C119.388 33.059 119.483 33.0504 119.581 33.0504C119.715 33.0521 119.849 33.0659 119.98 33.0923C120.116 33.1159 120.246 33.1692 120.359 33.2486C120.359 33.1871 120.358 33.1277 120.355 33.0704L120.349 32.9861C120.346 32.9406 120.341 32.8962 120.334 32.8531C120.317 32.7318 120.285 32.6281 120.236 32.5447C120.213 32.5056 120.185 32.4694 120.153 32.4376C120.138 32.4226 120.121 32.4083 120.104 32.3953C120.092 32.3868 120.08 32.3782 120.067 32.3705C120.052 32.362 120.038 32.3542 120.022 32.3469C119.928 32.2985 119.805 32.2737 119.651 32.2737C119.458 32.2737 119.296 32.2948 119.17 32.34L119.103 32.3648L119.046 32.3864L118.98 32.4136C118.917 32.4401 118.854 32.4686 118.791 32.4995L118.644 32.0621C118.719 32.0157 118.798 31.975 118.879 31.9404ZM119.553 34.4892C119.756 34.4892 119.921 34.4481 120.047 34.3578C120.161 34.2821 120.265 34.1922 120.356 34.0905V33.6986C120.294 33.6547 120.229 33.6181 120.16 33.5884C120.121 33.5717 120.081 33.5574 120.039 33.5456C120.011 33.5375 119.981 33.5302 119.952 33.5237C119.917 33.5163 119.882 33.5106 119.847 33.5062C119.785 33.4984 119.721 33.4944 119.655 33.4944C119.57 33.4944 119.49 33.5045 119.409 33.5253C119.369 33.535 119.33 33.5485 119.292 33.5656C119.259 33.5806 119.226 33.5985 119.195 33.6193C119.136 33.6608 119.083 33.7129 119.044 33.7788L119.036 33.793C119.031 33.804 119.025 33.815 119.021 33.8264C119.015 33.839 119.011 33.852 119.007 33.8655C119.003 33.8777 119 33.8903 118.998 33.9033C118.991 33.9346 118.988 33.968 118.988 34.0038C118.988 34.1495 119.037 34.2675 119.136 34.3574C119.192 34.4074 119.263 34.4437 119.347 34.4652C119.408 34.4811 119.477 34.4892 119.553 34.4892ZM126.085 30.4955C125.986 30.6237 125.882 30.7103 125.769 30.762C125.657 30.8141 125.534 30.8491 125.401 30.8768C125.301 30.8975 125.197 30.9166 125.087 30.9366L124.977 30.9569C124.811 30.9874 124.649 31.0399 124.496 31.1128C124.438 31.1376 124.383 31.1677 124.331 31.2023C124.293 31.2271 124.257 31.254 124.223 31.2833L124.183 31.3203L124.158 31.3451L124.132 31.3724C124.113 31.3948 124.095 31.4175 124.077 31.4407C124.042 31.4867 124.01 31.5343 123.981 31.584C123.951 31.634 123.925 31.6861 123.901 31.7402C123.841 31.8749 123.795 32.0177 123.764 32.1666C123.732 32.316 123.715 32.4612 123.704 32.6032H123.718C123.767 32.4926 123.837 32.3953 123.921 32.3082C124.008 32.2204 124.105 32.1447 124.212 32.0832C124.236 32.0698 124.259 32.0568 124.283 32.0442C124.31 32.0303 124.338 32.0173 124.366 32.0051C124.43 31.977 124.496 31.9534 124.563 31.9343C124.69 31.8997 124.819 31.8822 124.952 31.8822C125.083 31.8806 125.212 31.8948 125.338 31.9245C125.412 31.942 125.484 31.9648 125.555 31.9929C125.73 32.0621 125.886 32.1691 126.015 32.3054C126.143 32.4446 126.241 32.6085 126.302 32.7872C126.369 32.9747 126.404 33.1859 126.404 33.4179C126.404 33.6331 126.365 33.8374 126.285 34.0282C126.252 34.1104 126.212 34.1889 126.166 34.263C126.105 34.3606 126.035 34.4502 125.955 34.5311C125.811 34.6776 125.639 34.794 125.45 34.8742C125.254 34.9576 125.037 35.0027 124.802 35.0027C124.546 35.0027 124.318 34.9576 124.114 34.8676C123.911 34.7777 123.739 34.6524 123.595 34.486C123.452 34.3228 123.343 34.1222 123.266 33.8825C123.189 33.6433 123.15 33.3768 123.15 33.0818C123.15 32.8531 123.164 32.6142 123.192 32.3644C123.22 32.1194 123.275 31.879 123.357 31.6466C123.438 31.4175 123.557 31.2096 123.708 31.0261C123.859 30.8422 124.058 30.6969 124.307 30.5891L124.362 30.5655C124.388 30.5545 124.415 30.5439 124.442 30.5342C124.492 30.5163 124.541 30.5 124.591 30.4853C124.622 30.4768 124.652 30.4686 124.682 30.4613C124.721 30.452 124.759 30.4438 124.798 30.4369L124.99 30.4039L125.093 30.386L125.198 30.3673C125.259 30.3567 125.32 30.3425 125.38 30.3246C125.428 30.3108 125.474 30.2949 125.52 30.277C125.546 30.2672 125.57 30.2546 125.594 30.2404L125.626 30.22C125.682 30.1806 125.735 30.1277 125.783 30.0622L126.085 30.4955ZM123.743 33.1859C123.74 33.369 123.766 33.5517 123.82 33.7267C123.866 33.8748 123.939 34.0132 124.034 34.136C124.124 34.2459 124.238 34.3346 124.367 34.396C124.496 34.4583 124.637 34.4896 124.791 34.4896C124.908 34.4896 125.015 34.4738 125.114 34.4416L125.151 34.4294C125.17 34.4225 125.189 34.4148 125.209 34.4062C125.33 34.355 125.439 34.2793 125.531 34.1849C125.623 34.0901 125.694 33.9778 125.742 33.8549C125.79 33.7304 125.819 33.5949 125.819 33.4459C125.819 33.1444 125.734 32.8946 125.562 32.694C125.505 32.6273 125.439 32.5719 125.364 32.5276C125.303 32.4909 125.236 32.4621 125.163 32.4405C125.06 32.4104 124.946 32.3953 124.819 32.3953C124.557 32.3933 124.303 32.48 124.097 32.6415C124.006 32.7147 123.929 32.7977 123.869 32.8913C123.848 32.9223 123.83 32.9544 123.813 32.9878C123.8 33.0146 123.788 33.0419 123.777 33.0696C123.763 33.1074 123.752 33.1465 123.743 33.1859ZM130.099 31.8476H130.654V34.9336H130.099V31.8476ZM127.757 31.8476H127.203H127.2V34.9368H128.206C128.257 34.9368 128.305 34.9352 128.352 34.9323C128.381 34.9307 128.41 34.9283 128.438 34.9254C128.463 34.923 128.488 34.9201 128.512 34.9165C128.627 34.9002 128.73 34.8742 128.823 34.84C128.862 34.8253 128.9 34.8099 128.935 34.7932L128.98 34.7704L129.016 34.7513C129.041 34.7366 129.066 34.7212 129.089 34.7049C129.103 34.6947 129.118 34.6841 129.131 34.6736C129.148 34.6601 129.165 34.6463 129.18 34.6321C129.195 34.6186 129.209 34.6044 129.223 34.5901C129.321 34.486 129.395 34.3716 129.437 34.2402C129.464 34.1621 129.482 34.084 129.493 34.0046C129.5 33.9497 129.504 33.8939 129.504 33.8374C129.504 33.8077 129.503 33.7784 129.5 33.7491C129.499 33.7234 129.496 33.6982 129.493 33.673C129.484 33.5932 129.467 33.5155 129.444 33.4386C129.405 33.3108 129.339 33.1965 129.244 33.0993C129.149 33.002 129.023 32.9227 128.865 32.8633C128.707 32.8047 128.511 32.7733 128.269 32.7733H127.757V31.8476ZM128.161 34.4201H127.757V33.2897V33.2824H128.168C128.219 33.2824 128.268 33.284 128.314 33.2877C128.385 33.2933 128.449 33.3035 128.507 33.3178C128.55 33.3283 128.59 33.3418 128.625 33.3572C128.671 33.3772 128.71 33.4008 128.743 33.4284C128.78 33.461 128.811 33.498 128.837 33.5403C128.865 33.5867 128.885 33.6392 128.898 33.6974C128.909 33.7458 128.914 33.7983 128.914 33.8549C128.914 34.0388 128.859 34.1771 128.746 34.2744C128.697 34.3167 128.632 34.3501 128.551 34.3741C128.447 34.4046 128.317 34.4201 128.161 34.4201ZM134.318 34.4888C134.185 34.6589 134.009 34.7875 133.799 34.8742C133.583 34.9616 133.352 35.0064 133.119 35.0056C132.887 35.0088 132.656 34.9702 132.438 34.8917C132.242 34.8204 132.063 34.7094 131.912 34.5657C131.855 34.5104 131.803 34.4506 131.755 34.3871L131.717 34.333C131.703 34.3126 131.69 34.2919 131.677 34.2707L131.659 34.241C131.648 34.2211 131.637 34.2007 131.626 34.18C131.612 34.1527 131.598 34.1251 131.586 34.0966L131.569 34.0555C131.485 33.8451 131.444 33.6201 131.446 33.3934C131.446 33.1684 131.485 32.9601 131.565 32.7628C131.642 32.565 131.755 32.3953 131.895 32.2529C132.035 32.1072 132.203 31.9966 132.393 31.9099C132.593 31.822 132.809 31.7781 133.028 31.7813C133.276 31.7813 133.508 31.8126 133.718 31.8749C133.929 31.9371 134.107 32.0413 134.255 32.1874L133.999 32.6207C133.947 32.5735 133.891 32.5312 133.832 32.4942C133.803 32.4759 133.773 32.4588 133.742 32.4429C133.718 32.4307 133.694 32.4193 133.669 32.4083L133.622 32.3892L133.571 32.3705C133.42 32.3221 133.263 32.2977 133.105 32.2981C133.048 32.2981 132.993 32.3025 132.938 32.3111C132.858 32.3241 132.779 32.3469 132.701 32.3778C132.574 32.4291 132.457 32.5048 132.358 32.6C132.325 32.6317 132.295 32.6655 132.267 32.7009L132.243 32.733C132.195 32.7994 132.155 32.871 132.123 32.9467C132.063 33.0814 132.035 33.2307 132.035 33.3971C132.035 33.5668 132.067 33.7194 132.126 33.8512C132.186 33.9863 132.267 34.101 132.368 34.1979C132.47 34.2951 132.589 34.3676 132.726 34.4164C132.863 34.4648 133.007 34.4929 133.161 34.4929C133.275 34.4929 133.381 34.4791 133.48 34.4518C133.505 34.4449 133.53 34.4371 133.554 34.4286C133.594 34.4152 133.632 34.3993 133.669 34.3814C133.815 34.311 133.946 34.2134 134.055 34.0941L134.318 34.4888ZM134.605 31.8472H137.445V32.3953H136.302V34.9328H135.748V32.3953H134.605V31.8472ZM138.048 31.848H138.602V32.2118C138.707 32.0865 138.858 31.9868 139.051 31.9034C139.244 31.82 139.447 31.7785 139.664 31.7785C139.7 31.7776 139.735 31.7785 139.77 31.7805C139.84 31.7846 139.91 31.7935 139.979 31.8073C140.077 31.8269 140.172 31.8566 140.264 31.8961C140.437 31.9685 140.592 32.0788 140.717 32.2187C140.844 32.3624 140.941 32.5296 141.004 32.7107C141.037 32.8034 141.061 32.9007 141.078 33.0028C141.097 33.1111 141.106 33.2242 141.106 33.3422C141.106 33.5741 141.067 33.793 140.99 33.9969C140.913 34.2016 140.804 34.3749 140.66 34.5246C140.514 34.6736 140.341 34.7924 140.149 34.8746C139.949 34.9576 139.728 35.0023 139.482 35.0023C139.317 35.0023 139.156 34.9852 139.002 34.9507C138.848 34.9161 138.715 34.864 138.602 34.7912V36.306H138.048V31.848ZM139.504 32.2948C139.318 32.2948 139.146 32.3367 138.988 32.4201C138.831 32.5031 138.701 32.6037 138.603 32.7212V34.2504C138.728 34.3346 138.867 34.3981 139.013 34.438C139.146 34.4725 139.287 34.4896 139.437 34.4896C139.592 34.4925 139.746 34.4628 139.889 34.403C140.018 34.3505 140.134 34.2711 140.229 34.1706C140.325 34.0689 140.398 33.9485 140.444 33.817C140.493 33.6783 140.521 33.5294 140.521 33.3629C140.521 33.3279 140.52 33.2933 140.518 33.2596L140.513 33.2046L140.508 33.1656L140.502 33.1253L140.495 33.0866L140.485 33.0415C140.477 33.0044 140.466 32.9682 140.454 32.9328C140.412 32.8014 140.345 32.6903 140.258 32.5931C140.17 32.4962 140.065 32.4234 139.939 32.3713C139.809 32.3192 139.665 32.2948 139.504 32.2948ZM144.801 31.8476H145.355V34.9332H144.801V31.8476ZM142.456 31.8476H141.902H141.898V34.9364H142.904C143.15 34.9364 143.353 34.9018 143.522 34.84C143.69 34.7773 143.823 34.6943 143.921 34.5901C144.02 34.486 144.093 34.3716 144.135 34.2398C144.181 34.1084 144.202 33.9761 144.202 33.8374C144.202 33.6986 144.181 33.5672 144.142 33.4386C144.104 33.3108 144.037 33.1961 143.942 33.0993C143.848 33.002 143.722 32.9223 143.564 32.8633C143.406 32.8047 143.21 32.7733 142.967 32.7733H142.456V31.8476ZM142.863 34.4201H142.459V33.2897V33.2824H142.87C143.136 33.2824 143.329 33.3312 143.445 33.4284C143.557 33.5257 143.616 33.6673 143.616 33.8549C143.616 34.0388 143.56 34.1771 143.448 34.274C143.336 34.3716 143.14 34.4201 142.863 34.4201ZM148.013 33.3349L149.198 34.9332H148.518L147.603 33.6848L146.674 34.9332H146.029L147.207 33.3621L146.099 31.8472H146.779L147.624 33.0122L148.483 31.8472H149.128L148.013 33.3349ZM99.3396 38.7466H97.6392V41.3195H97.085V38.2339H99.8934V41.3195H99.3396V38.7466ZM103.038 38.7812H101.945L101.909 39.3012C101.885 39.5783 101.855 39.8208 101.818 40.03C101.796 40.1533 101.772 40.2652 101.745 40.3657C101.671 40.6363 101.58 40.8442 101.475 40.9899C101.37 41.1355 101.247 41.236 101.106 41.2849C100.961 41.3374 100.808 41.363 100.654 41.361L100.612 40.8267C100.672 40.83 100.742 40.8165 100.819 40.7819C100.896 40.7474 100.973 40.6709 101.047 40.5569C101.12 40.4385 101.187 40.2721 101.247 40.0573C101.306 39.8388 101.345 39.5547 101.366 39.1971L101.422 38.2368H103.593V41.3227H103.038V38.7812ZM104.609 38.4451C104.746 38.3584 104.907 38.2893 105.086 38.2409C105.269 38.1904 105.457 38.1648 105.647 38.1648C106.089 38.1648 106.401 38.275 106.576 38.4939C106.755 38.7125 106.843 39.0245 106.843 39.4266V41.3195H106.324V40.9207C106.232 41.0387 106.106 41.1429 105.949 41.2328C105.791 41.3231 105.584 41.3683 105.324 41.3683C105.037 41.3683 104.805 41.2849 104.63 41.1185C104.534 41.0277 104.465 40.9158 104.421 40.7836C104.385 40.6741 104.367 40.5512 104.367 40.4149C104.367 40.393 104.367 40.371 104.369 40.349C104.371 40.3006 104.378 40.253 104.388 40.2062C104.403 40.1333 104.426 40.0625 104.458 39.995C104.516 39.8754 104.6 39.77 104.704 39.687C104.759 39.6414 104.821 39.6023 104.891 39.5694C104.949 39.5417 105.012 39.5185 105.079 39.4994C105.226 39.4575 105.381 39.4335 105.545 39.4335C105.68 39.4351 105.813 39.4489 105.945 39.475C105.995 39.4839 106.045 39.497 106.093 39.5136C106.175 39.5421 106.252 39.5816 106.324 39.6308C106.324 39.4888 106.317 39.3574 106.299 39.2357C106.29 39.1714 106.276 39.112 106.259 39.0579C106.25 39.0302 106.239 39.0038 106.228 38.979C106.22 38.9611 106.211 38.9436 106.201 38.9273C106.152 38.8439 106.082 38.7747 105.987 38.7295C105.925 38.6982 105.852 38.6766 105.766 38.6657L105.723 38.6612C105.689 38.6583 105.653 38.6567 105.615 38.6567C105.423 38.6567 105.261 38.6779 105.135 38.7226C105.098 38.7356 105.062 38.7495 105.025 38.7637C104.936 38.7987 104.846 38.8378 104.756 38.8821L104.609 38.4451ZM105.521 40.8723C105.648 40.8723 105.76 40.856 105.857 40.8218C105.915 40.8011 105.968 40.7742 106.015 40.74C106.129 40.6648 106.233 40.5748 106.324 40.4731V40.0813C106.131 39.9429 105.896 39.8774 105.623 39.8774C105.591 39.8774 105.559 39.8786 105.527 39.8815C105.477 39.8864 105.427 39.8953 105.377 39.9079C105.296 39.9291 105.223 39.96 105.164 40.0019C105.104 40.0434 105.051 40.0955 105.013 40.1614C104.974 40.2273 104.956 40.3002 104.956 40.3868C104.956 40.5321 105.006 40.6501 105.104 40.74C105.202 40.8271 105.339 40.8723 105.521 40.8723ZM107.39 38.2339H110.23V38.7816H109.086V41.3195H108.532V38.782H107.39V38.2339ZM113.068 41.1856C112.989 41.2263 112.906 41.2605 112.817 41.2881C112.607 41.354 112.397 41.389 112.19 41.389C111.954 41.3919 111.721 41.3532 111.499 41.2743C111.292 41.1982 111.117 41.0904 110.973 40.9484C110.829 40.8064 110.714 40.6363 110.636 40.4389C110.559 40.2408 110.517 40.0194 110.517 39.7765C110.515 39.5612 110.552 39.3476 110.626 39.1454C110.657 39.0571 110.697 38.9725 110.745 38.8923C110.799 38.8003 110.864 38.7141 110.938 38.636C111.08 38.4887 111.251 38.3719 111.44 38.2925C111.639 38.2091 111.867 38.1644 112.127 38.1644C112.32 38.1631 112.511 38.1985 112.691 38.2685C112.863 38.3324 113.02 38.4305 113.154 38.5562C113.286 38.6832 113.391 38.8353 113.463 39.0034C113.54 39.1767 113.578 39.3676 113.578 39.5787C113.578 39.7212 113.567 39.8428 113.543 39.9498H111.145C111.17 40.2412 111.278 40.4703 111.478 40.633C111.678 40.7958 111.93 40.8755 112.235 40.8755C112.439 40.8755 112.624 40.8446 112.789 40.7824C112.954 40.7197 113.091 40.6436 113.193 40.5529L113.361 40.983C113.272 41.0627 113.174 41.1303 113.068 41.1856ZM112.099 38.6775C111.811 38.6775 111.583 38.754 111.412 38.9098C111.242 39.0628 111.133 39.2723 111.107 39.4994H113C112.986 39.2426 112.902 39.0416 112.744 38.896C112.586 38.754 112.372 38.6775 112.099 38.6775ZM114.55 38.2339H113.848L114.994 39.7212L113.796 41.3195H114.476L115.619 39.7216L114.55 38.2339ZM116.31 38.2339H115.755V41.3195H116.31V38.2339ZM117.07 39.7212L118.29 41.3195H117.603L116.446 39.7212L117.522 38.2335H118.21L117.07 39.7212ZM121.365 40.983C121.211 41.1213 121.032 41.2222 120.822 41.2881C120.619 41.3532 120.407 41.3874 120.194 41.389C119.959 41.3919 119.725 41.3532 119.504 41.2743C119.297 41.1982 119.122 41.0904 118.978 40.9484C118.834 40.8064 118.718 40.6363 118.641 40.4389C118.564 40.2408 118.522 40.0194 118.522 39.7765C118.52 39.5612 118.557 39.3476 118.631 39.1454C118.698 38.9558 118.805 38.782 118.943 38.636C119.085 38.4887 119.256 38.3719 119.444 38.2925C119.644 38.2091 119.872 38.1644 120.131 38.1644C120.324 38.1631 120.516 38.1985 120.696 38.2685C120.868 38.3324 121.025 38.4305 121.159 38.5562C121.29 38.6832 121.395 38.8353 121.467 39.0034C121.545 39.1767 121.583 39.3676 121.583 39.5787C121.583 39.7212 121.572 39.8428 121.548 39.9498H119.15C119.174 40.2412 119.283 40.4703 119.482 40.633C119.682 40.7958 119.935 40.8755 120.24 40.8755C120.443 40.8755 120.629 40.8446 120.794 40.7824C120.959 40.7197 121.095 40.6436 121.197 40.5529L121.365 40.983ZM120.104 38.6775C119.816 38.6775 119.588 38.754 119.416 38.9098C119.246 39.0628 119.138 39.2723 119.111 39.4994H121.005C120.991 39.2426 120.907 39.0416 120.749 38.896C120.591 38.754 120.374 38.6775 120.104 38.6775ZM123.446 37.0556C123.536 37.15 123.664 37.1972 123.831 37.1972C124.139 37.1972 124.311 37.0169 124.336 36.6564H124.855C124.855 36.7947 124.83 36.9196 124.781 37.0376C124.732 37.1556 124.662 37.2562 124.574 37.3392C124.535 37.375 124.493 37.4083 124.448 37.4384C124.389 37.4783 124.323 37.5125 124.252 37.5402C124.18 37.5695 124.104 37.5898 124.023 37.6024C123.961 37.6118 123.896 37.6163 123.827 37.6163C123.761 37.6163 123.698 37.6126 123.638 37.6053C123.542 37.5935 123.455 37.5723 123.375 37.5402C123.245 37.4885 123.133 37.4226 123.045 37.3392C122.993 37.2891 122.947 37.2321 122.91 37.1691C122.885 37.128 122.864 37.084 122.845 37.0376C122.82 36.9721 122.801 36.9042 122.79 36.833C122.78 36.7764 122.775 36.7178 122.775 36.6564H123.298C123.312 36.8326 123.361 36.9656 123.446 37.0556ZM122.887 41.3195H122.333V38.2335H122.887V40.5321L124.69 38.2335H125.244V41.3195H124.69V39.0205L122.887 41.3195Z" fill="black"/>
</svg>
